0
SECTION
2
HEADER
9
$INSUNITS
70
4
9
$ACADVER
1
AC1014
9
$HANDSEED
5
FFFF
0
ENDSEC
0
SECTION
2
TABLES
0
TABLE
2
VPORT
5
8
100
AcDbSymbolTable
0
ENDTAB
0
TABLE
2
LTYPE
5
5
100
AcDbSymbolTable
0
LTYPE
5
14
100
AcDbSymbolTableRecord
100
AcDbLinetypeTableRecord
2
BYBLOCK
70
0
0
LTYPE
5
15
100
AcDbSymbolTableRecord
100
AcDbLinetypeTableRecord
2
BYLAYER
70
0
0
ENDTAB
0
TABLE
2
LAYER
5
2
100
AcDbSymbolTable
70
2
0
LAYER
5
50
100
AcDbSymbolTableRecord
100
AcDbLayerTableRecord
2
0
70
0
6
CONTINUOUS
0
ENDTAB
0
TABLE
2
STYLE
5
3
100
AcDbSymbolTable
70
1
0
STYLE
5
11
100
AcDbSymbolTableRecord
100
AcDbTextStyleTableRecord
2
STANDARD
70
0
0
ENDTAB
0
TABLE
2
VIEW
5
6
100
AcDbSymbolTable
70
0
0
ENDTAB
0
TABLE
2
UCS
5
7
100
AcDbSymbolTable
70
0
0
ENDTAB
0
TABLE
2
APPID
5
9
100
AcDbSymbolTable
70
2
0
APPID
5
12
100
AcDbSymbolTableRecord
100
AcDbRegAppTableRecord
2
ACAD
70
0
0
ENDTAB
0
TABLE
2
DIMSTYLE
5
A
100
AcDbSymbolTable
70
1
0
ENDTAB
0
TABLE
2
BLOCK_RECORD
5
1
100
AcDbSymbolTable
70
1
0
BLOCK_RECORD
5
1F
100
AcDbSymbolTableRecord
100
AcDbBlockTableRecord
2
*MODEL_SPACE
0
BLOCK_RECORD
5
1B
100
AcDbSymbolTableRecord
100
AcDbBlockTableRecord
2
*PAPER_SPACE
0
ENDTAB
0
ENDSEC
0
SECTION
2
BLOCKS
0
BLOCK
5
20
100
AcDbEntity
100
AcDbBlockBegin
2
*MODEL_SPACE
0
ENDBLK
5
21
100
AcDbEntity
100
AcDbBlockEnd
0
BLOCK
5
1C
100
AcDbEntity
100
AcDbBlockBegin
2
*PAPER_SPACE
0
ENDBLK
5
1D
100
AcDbEntity
100
AcDbBlockEnd
0
ENDSEC
0
SECTION
2
ENTITIES
0
LWPOLYLINE
5
100
100
AcDbEntity
8
0
100
AcDbPolyline
90
4
70
1
43
0.0
10
-33.15422727345986
20
-25
10
-12.087668305341472
20
-25
10
-12.08766830534147
20
15
10
-33.15422727345986
20
15
0
LWPOLYLINE
5
101
100
AcDbEntity
8
0
100
AcDbPolyline
90
4
70
1
43
0.0
10
22.961450990183678
20
59.850797875236793
10
22.961450990183675
20
72.273997992971687
42
0.99999999999999989
10
17.961450990183675
20
72.273997992971687
10
17.961450990183678
20
59.850797875236793
42
0.99999999999999989
0
LWPOLYLINE
5
102
100
AcDbEntity
8
0
100
AcDbPolyline
90
4
70
1
43
0.0
10
-17.961450990183678
20
59.850797875236793
10
-17.961450990183675
20
72.273997992971687
42
0.99999999999999989
10
-22.961450990183675
20
72.273997992971687
10
-22.961450990183678
20
59.850797875236793
42
0.99999999999999989
0
LINE
5
103
100
AcDbEntity
8
0
100
AcDbLine
10
-10.461450990183788
20
97.499999999999986
30
0
11
-10.461450985183824
21
90.84564700944766
31
0
0
ARC
5
104
100
AcDbEntity
8
0
100
AcDbCircle
10
-10.761450990183858
20
90.845647009447646
30
0
40
0.30000000999999488
210
0
220
0
230
1
100
AcDbArc
50
-90.000002999997136
51
0
0
LINE
5
105
100
AcDbEntity
8
0
100
AcDbLine
10
-10.761451005891807
20
90.545646999447641
30
0
11
-12.461450990183746
21
90.545647059447646
31
0
0
LINE
5
106
100
AcDbEntity
8
0
100
AcDbLine
10
-12.461450990183746
20
90.545647059447646
30
0
11
-12.461450990183746
21
93.54564705944766
31
0
0
LINE
5
107
100
AcDbEntity
8
0
100
AcDbLine
10
-12.461450990183746
20
93.54564705944766
30
0
11
-13.400781990183754
21
93.54564705944766
31
0
0
LINE
5
108
100
AcDbEntity
8
0
100
AcDbLine
10
-13.400781990183754
20
93.54564705944766
30
0
11
-13.400807490158666
21
93.545647059445841
31
0
0
LINE
5
109
100
AcDbEntity
8
0
100
AcDbLine
10
-13.400807490158666
20
93.545647059445841
30
0
11
-16.461450990183657
21
90.484995259447686
31
0
0
LINE
5
110
100
AcDbEntity
8
0
100
AcDbLine
10
-16.461450990183657
20
90.484995259447686
30
0
11
-16.461450990183657
21
84.606306959447664
31
0
0
LINE
5
111
100
AcDbEntity
8
0
100
AcDbLine
10
-16.461450990183657
20
84.606306959447664
30
0
11
-13.400797490183793
21
81.545647059447873
31
0
0
LINE
5
112
100
AcDbEntity
8
0
100
AcDbLine
10
-13.400797490183793
20
81.545647059447873
30
0
11
-12.461450990183746
21
81.545647059447873
31
0
0
LINE
5
113
100
AcDbEntity
8
0
100
AcDbLine
10
-12.461450990183746
20
81.545647059447873
30
0
11
-12.461450990183746
21
84.545647059447887
31
0
0
LINE
5
114
100
AcDbEntity
8
0
100
AcDbLine
10
-12.461450990183746
20
84.545647059447887
30
0
11
-10.761450990183871
21
84.545647059447887
31
0
0
ARC
5
115
100
AcDbEntity
8
0
100
AcDbCircle
10
-10.761450990183874
20
84.245647109447631
30
0
40
0.30000001000001442
210
0
220
0
230
1
100
AcDbArc
50
0
51
89.999999999999332
0
LINE
5
116
100
AcDbEntity
8
0
100
AcDbLine
10
-10.461450980183859
20
84.245647109447631
30
0
11
-10.461450990183788
21
78.545647059447887
31
0
0
ARC
5
117
100
AcDbEntity
8
0
100
AcDbCircle
10
-11.46145099018381
20
78.545647059447901
30
0
40
1.0000000000000231
210
0
220
0
230
1
100
AcDbArc
50
270.0000000000004
51
360
0
LINE
5
118
100
AcDbEntity
8
0
100
AcDbLine
10
-11.461450990183803
20
77.545647059447873
30
0
11
-17.161451055891597
21
77.545647049447595
31
0
0
ARC
5
119
100
AcDbEntity
8
0
100
AcDbCircle
10
-17.161451040183668
20
77.845647059447572
30
0
40
0.30000000999997223
210
0
220
0
230
1
100
AcDbArc
50
180
51
269.99999700000654
0
LINE
5
120
100
AcDbEntity
8
0
100
AcDbLine
10
-17.461451050183641
20
77.845647059447614
30
0
11
-17.461450990183671
21
79.545647059447873
31
0
0
LINE
5
121
100
AcDbEntity
8
0
100
AcDbLine
10
-17.461450990183671
20
79.545647059447873
30
0
11
-14.461450990183735
21
79.545647059447873
31
0
0
LINE
5
122
100
AcDbEntity
8
0
100
AcDbLine
10
-14.461450990183735
20
79.545647059447873
30
0
11
-14.461450990183735
21
80.484978059447897
31
0
0
LINE
5
123
100
AcDbEntity
8
0
100
AcDbLine
10
-14.461450990183735
20
80.484978059447897
30
0
11
-17.522120190183728
21
83.545647059447873
31
0
0
LINE
5
124
100
AcDbEntity
8
0
100
AcDbLine
10
-17.522120190183728
20
83.545647059447873
30
0
11
-23.400807540183692
21
83.545647059447873
31
0
0
LINE
5
125
100
AcDbEntity
8
0
100
AcDbLine
10
-23.400807540183692
20
83.545647059447873
30
0
11
-26.461450990183614
21
80.485003559447904
31
0
0
LINE
5
126
100
AcDbEntity
8
0
100
AcDbLine
10
-26.461450990183614
20
80.485003559447904
30
0
11
-26.461450990183614
21
79.545647059447873
31
0
0
LINE
5
127
100
AcDbEntity
8
0
100
AcDbLine
10
-26.461450990183614
20
79.545647059447873
30
0
11
-23.461450990183678
21
79.54564705944766
31
0
0
LINE
5
128
100
AcDbEntity
8
0
100
AcDbLine
10
-23.461450990183678
20
79.54564705944766
30
0
11
-23.461450990183678
21
77.845647059447828
31
0
0
ARC
5
129
100
AcDbEntity
8
0
100
AcDbCircle
10
-23.761450990183612
20
77.845647059447828
30
0
40
0.29999999999994031
210
0
220
0
230
1
100
AcDbArc
50
-90.000000000001378
51
0
0
LINE
5
130
100
AcDbEntity
8
0
100
AcDbLine
10
-23.761450990183619
20
77.545647059447887
30
0
11
-29.461450990183646
21
77.545647059447887
31
0
0
ARC
5
131
100
AcDbEntity
8
0
100
AcDbCircle
10
-29.461450990183646
20
78.545647059447901
30
0
40
1.0000000000000142
210
0
220
0
230
1
100
AcDbArc
50
180
51
270
0
LINE
5
132
100
AcDbEntity
8
0
100
AcDbLine
10
-30.461450990183661
20
78.545647059447901
30
0
11
-30.461450990183661
21
84.245647109447631
31
0
0
ARC
5
133
100
AcDbEntity
8
0
100
AcDbCircle
10
-30.161450990183663
20
84.245647109447631
30
0
40
0.30000000999997667
210
0
220
-0
230
1
100
AcDbArc
50
89.999999999997286
51
180
0
LINE
5
134
100
AcDbEntity
8
0
100
AcDbLine
10
-30.161450990183649
20
84.545647119447608
30
0
11
-28.461450990183668
21
84.545647059447887
31
0
0
LINE
5
135
100
AcDbEntity
8
0
100
AcDbLine
10
-28.461450990183668
20
84.545647059447887
30
0
11
-28.461450990183668
21
81.545647059447873
31
0
0
LINE
5
136
100
AcDbEntity
8
0
100
AcDbLine
10
-28.461450990183668
20
81.545647059447873
30
0
11
-27.522130990183655
21
81.545647059447873
31
0
0
LINE
5
137
100
AcDbEntity
8
0
100
AcDbLine
10
-27.522130990183655
20
81.545647059447873
30
0
11
-24.461450990183657
21
84.606317409425159
31
0
0
LINE
5
138
100
AcDbEntity
8
0
100
AcDbLine
10
-24.461450990183657
20
84.606317409425159
30
0
11
-24.461450990183621
21
90.484984309447739
31
0
0
LINE
5
139
100
AcDbEntity
8
0
100
AcDbLine
10
-24.461450990183621
20
90.484984309447739
30
0
11
-27.522119951765781
21
93.545646550378208
31
0
0
LINE
5
140
100
AcDbEntity
8
0
100
AcDbLine
10
-27.522119951765781
20
93.545646550378208
30
0
11
-28.461450990183668
21
93.54564705944766
31
0
0
LINE
5
141
100
AcDbEntity
8
0
100
AcDbLine
10
-28.461450990183668
20
93.54564705944766
30
0
11
-28.461450990183668
21
90.545647059447646
31
0
0
LINE
5
142
100
AcDbEntity
8
0
100
AcDbLine
10
-28.461450990183668
20
90.545647059447646
30
0
11
-30.161451005891582
21
90.54564702944765
31
0
0
ARC
5
143
100
AcDbEntity
8
0
100
AcDbCircle
10
-30.161450990183635
20
90.845647009447646
30
0
40
0.30000000999998999
210
0
220
0
230
1
100
AcDbArc
50
180
51
269.99999700000291
0
LINE
5
144
100
AcDbEntity
8
0
100
AcDbLine
10
-30.461451000183626
20
90.84564700944766
30
0
11
-30.461450990183661
21
97.499999999999986
31
0
0
LINE
5
145
100
AcDbEntity
8
0
100
AcDbLine
10
-30.461450990183661
20
97.499999999999986
30
0
11
-39.759999999999998
21
97.5
31
0
0
LINE
5
146
100
AcDbEntity
8
0
100
AcDbLine
10
-39.759999999999998
20
97.5
30
0
11
-39.759999999999998
21
75.000000000000014
31
0
0
LINE
5
147
100
AcDbEntity
8
0
100
AcDbLine
10
-39.759999999999998
20
75.000000000000014
30
0
11
-35
21
75
31
0
0
LINE
5
148
100
AcDbEntity
8
0
100
AcDbLine
10
-35
20
75
30
0
11
-35
21
60
31
0
0
LINE
5
149
100
AcDbEntity
8
0
100
AcDbLine
10
-35
20
60
30
0
11
-39.759999999999998
21
60
31
0
0
LINE
5
150
100
AcDbEntity
8
0
100
AcDbLine
10
-39.759999999999998
20
60
30
0
11
-39.759999999999998
21
7.5
31
0
0
LINE
5
151
100
AcDbEntity
8
0
100
AcDbLine
10
-39.759999999999998
20
7.5
30
0
11
-35
21
7.5
31
0
0
LINE
5
152
100
AcDbEntity
8
0
100
AcDbLine
10
-35
20
7.5
30
0
11
-35
21
-7.5
31
0
0
LINE
5
153
100
AcDbEntity
8
0
100
AcDbLine
10
-35
20
-7.5
30
0
11
-39.759999999999998
21
-7.5
31
0
0
LINE
5
154
100
AcDbEntity
8
0
100
AcDbLine
10
-39.759999999999998
20
-7.5
30
0
11
-39.759999999999998
21
-60
31
0
0
LINE
5
155
100
AcDbEntity
8
0
100
AcDbLine
10
-39.759999999999998
20
-60
30
0
11
-35
21
-60
31
0
0
LINE
5
156
100
AcDbEntity
8
0
100
AcDbLine
10
-35
20
-60
30
0
11
-35
21
-75
31
0
0
LINE
5
157
100
AcDbEntity
8
0
100
AcDbLine
10
-35
20
-75
30
0
11
-39.759999999999998
21
-75
31
0
0
LINE
5
158
100
AcDbEntity
8
0
100
AcDbLine
10
-39.759999999999998
20
-75
30
0
11
-39.759999999999998
21
-97.499999999999986
31
0
0
LINE
5
159
100
AcDbEntity
8
0
100
AcDbLine
10
-39.759999999999998
20
-97.499999999999986
30
0
11
39.759999999999998
21
-97.499999999999986
31
0
0
LINE
5
160
100
AcDbEntity
8
0
100
AcDbLine
10
39.759999999999998
20
-97.499999999999986
30
0
11
39.759999999999998
21
-75.000000000000014
31
0
0
LINE
5
161
100
AcDbEntity
8
0
100
AcDbLine
10
39.759999999999998
20
-75.000000000000014
30
0
11
35
21
-75
31
0
0
LINE
5
162
100
AcDbEntity
8
0
100
AcDbLine
10
35
20
-75
30
0
11
35
21
-60
31
0
0
LINE
5
163
100
AcDbEntity
8
0
100
AcDbLine
10
35
20
-60
30
0
11
39.759999999999998
21
-60
31
0
0
LINE
5
164
100
AcDbEntity
8
0
100
AcDbLine
10
39.759999999999998
20
-60
30
0
11
39.759999999999998
21
-7.5
31
0
0
LINE
5
165
100
AcDbEntity
8
0
100
AcDbLine
10
39.759999999999998
20
-7.5
30
0
11
35
21
-7.5
31
0
0
LINE
5
166
100
AcDbEntity
8
0
100
AcDbLine
10
35
20
-7.5
30
0
11
35
21
7.5
31
0
0
LINE
5
167
100
AcDbEntity
8
0
100
AcDbLine
10
35
20
7.5
30
0
11
39.759999999999998
21
7.5
31
0
0
LINE
5
168
100
AcDbEntity
8
0
100
AcDbLine
10
39.759999999999998
20
7.5
30
0
11
39.759999999999998
21
60
31
0
0
LINE
5
169
100
AcDbEntity
8
0
100
AcDbLine
10
39.759999999999998
20
60
30
0
11
35
21
60
31
0
0
LINE
5
170
100
AcDbEntity
8
0
100
AcDbLine
10
35
20
60
30
0
11
35
21
75
31
0
0
LINE
5
171
100
AcDbEntity
8
0
100
AcDbLine
10
35
20
75
30
0
11
39.759999999999998
21
75
31
0
0
LINE
5
172
100
AcDbEntity
8
0
100
AcDbLine
10
39.759999999999998
20
75
30
0
11
39.759999999999998
21
97.5
31
0
0
LINE
5
173
100
AcDbEntity
8
0
100
AcDbLine
10
39.759999999999998
20
97.5
30
0
11
30.461450990183661
21
97.499999999999986
31
0
0
LINE
5
174
100
AcDbEntity
8
0
100
AcDbLine
10
30.461450990183661
20
97.499999999999986
30
0
11
30.461450995183643
21
90.845647061807725
31
0
0
ARC
5
175
100
AcDbEntity
8
0
100
AcDbCircle
10
30.161450990183614
20
90.845647009447646
30
0
40
0.3000000100000122
210
0
220
0
230
1
100
AcDbArc
50
-89.999999999993236
51
9.9931643210558118e-06
0
LINE
5
176
100
AcDbEntity
8
0
100
AcDbLine
10
30.161450990183649
20
90.545646999447627
30
0
11
28.461450990183668
21
90.545647059447646
31
0
0
LINE
5
177
100
AcDbEntity
8
0
100
AcDbLine
10
28.461450990183668
20
90.545647059447646
30
0
11
28.461450990183668
21
93.54564705944766
31
0
0
LINE
5
178
100
AcDbEntity
8
0
100
AcDbLine
10
28.461450990183668
20
93.54564705944766
30
0
11
27.522119951765781
21
93.545646550378208
31
0
0
LINE
5
179
100
AcDbEntity
8
0
100
AcDbLine
10
27.522119951765781
20
93.545646550378208
30
0
11
24.461450990183621
21
90.484984309447739
31
0
0
LINE
5
180
100
AcDbEntity
8
0
100
AcDbLine
10
24.461450990183621
20
90.484984309447739
30
0
11
24.461450990183657
21
84.606317409425159
31
0
0
LINE
5
181
100
AcDbEntity
8
0
100
AcDbLine
10
24.461450990183657
20
84.606317409425159
30
0
11
27.522129490183602
21
81.545645559444552
31
0
0
LINE
5
182
100
AcDbEntity
8
0
100
AcDbLine
10
27.522129490183602
20
81.545645559444552
30
0
11
28.461450990183668
21
81.545647059447873
31
0
0
LINE
5
183
100
AcDbEntity
8
0
100
AcDbLine
10
28.461450990183668
20
81.545647059447873
30
0
11
28.461450990183668
21
84.545647059447887
31
0
0
LINE
5
184
100
AcDbEntity
8
0
100
AcDbLine
10
28.461450990183668
20
84.545647059447887
30
0
11
30.161450990183649
21
84.545647119447636
31
0
0
ARC
5
185
100
AcDbEntity
8
0
100
AcDbCircle
10
30.161450990183628
20
84.245647109447617
30
0
40
0.30000001000003451
210
0
220
0
230
1
100
AcDbArc
50
-9.9931643405297582e-06
51
89.999999999995936
0
LINE
5
186
100
AcDbEntity
8
0
100
AcDbLine
10
30.461451000183658
20
84.245647057087808
30
0
11
30.461450990183661
21
78.545647059447901
31
0
0
ARC
5
187
100
AcDbEntity
8
0
100
AcDbCircle
10
29.461450990183646
20
78.545647059447901
30
0
40
1.0000000000000142
210
0
220
0
230
1
100
AcDbArc
50
-90
51
0
0
LINE
5
188
100
AcDbEntity
8
0
100
AcDbLine
10
29.461450990183646
20
77.545647059447887
30
0
11
23.761450990183619
21
77.545647059447887
31
0
0
ARC
5
189
100
AcDbEntity
8
0
100
AcDbCircle
10
23.761450990183612
20
77.845647059447828
30
0
40
0.29999999999993587
210
0
220
0
230
1
100
AcDbArc
50
180
51
270.00000000000131
0
LINE
5
190
100
AcDbEntity
8
0
100
AcDbLine
10
23.461450990183678
20
77.845647059447828
30
0
11
23.461450990183678
21
79.54564705944766
31
0
0
LINE
5
191
100
AcDbEntity
8
0
100
AcDbLine
10
23.461450990183678
20
79.54564705944766
30
0
11
26.461450990183614
21
79.545647059447873
31
0
0
LINE
5
192
100
AcDbEntity
8
0
100
AcDbLine
10
26.461450990183614
20
79.545647059447873
30
0
11
26.461450990183614
21
80.485003559447904
31
0
0
LINE
5
193
100
AcDbEntity
8
0
100
AcDbLine
10
26.461450990183614
20
80.485003559447904
30
0
11
23.400807540183692
21
83.545647059447873
31
0
0
LINE
5
194
100
AcDbEntity
8
0
100
AcDbLine
10
23.400807540183692
20
83.545647059447873
30
0
11
17.522120190183728
21
83.545647059447873
31
0
0
LINE
5
195
100
AcDbEntity
8
0
100
AcDbLine
10
17.522120190183728
20
83.545647059447873
30
0
11
14.461450990183735
21
80.484978059447897
31
0
0
LINE
5
196
100
AcDbEntity
8
0
100
AcDbLine
10
14.461450990183735
20
80.484978059447897
30
0
11
14.461450990183735
21
79.545647059447873
31
0
0
LINE
5
197
100
AcDbEntity
8
0
100
AcDbLine
10
14.461450990183735
20
79.545647059447873
30
0
11
17.461450990183671
21
79.545647059447873
31
0
0
LINE
5
198
100
AcDbEntity
8
0
100
AcDbLine
10
17.461450990183671
20
79.545647059447873
30
0
11
17.461450990183671
21
77.845647059447614
31
0
0
ARC
5
199
100
AcDbEntity
8
0
100
AcDbCircle
10
17.161451040183653
20
77.845647059447614
30
0
40
0.30000000999998555
210
0
220
0
230
1
100
AcDbArc
50
-89.999999999997954
51
0
0
LINE
5
200
100
AcDbEntity
8
0
100
AcDbLine
10
17.161451040183664
20
77.545647049447624
30
0
11
11.461450990183803
21
77.545647059447873
31
0
0
ARC
5
201
100
AcDbEntity
8
0
100
AcDbCircle
10
11.46145099018381
20
78.545647059447901
30
0
40
1.0000000000000209
210
0
220
0
230
1
100
AcDbArc
50
180
51
269.9999999999996
0
LINE
5
202
100
AcDbEntity
8
0
100
AcDbLine
10
10.461450990183788
20
78.545647059447887
30
0
11
10.461450980183859
21
84.245647109447631
31
0
0
ARC
5
203
100
AcDbEntity
8
0
100
AcDbCircle
10
10.761450990183874
20
84.245647109447631
30
0
40
0.3000000100000122
210
0
220
0
230
1
100
AcDbArc
50
90.000000000000696
51
180
0
LINE
5
204
100
AcDbEntity
8
0
100
AcDbLine
10
10.761450990183871
20
84.545647119447636
30
0
11
12.461450990183746
21
84.545647059447887
31
0
0
LINE
5
205
100
AcDbEntity
8
0
100
AcDbLine
10
12.461450990183746
20
84.545647059447887
30
0
11
12.461450990183746
21
81.545647059447873
31
0
0
LINE
5
206
100
AcDbEntity
8
0
100
AcDbLine
10
12.461450990183746
20
81.545647059447873
30
0
11
13.400796990183787
21
81.545647059447873
31
0
0
LINE
5
207
100
AcDbEntity
8
0
100
AcDbLine
10
13.400796990183787
20
81.545647059447873
30
0
11
16.461450990183657
21
84.606306959447664
31
0
0
LINE
5
208
100
AcDbEntity
8
0
100
AcDbLine
10
16.461450990183657
20
84.606306959447664
30
0
11
16.461450990183657
21
90.484995259447686
31
0
0
LINE
5
209
100
AcDbEntity
8
0
100
AcDbLine
10
16.461450990183657
20
90.484995259447686
30
0
11
13.400807490158666
21
93.545647059445841
31
0
0
LINE
5
210
100
AcDbEntity
8
0
100
AcDbLine
10
13.400807490158666
20
93.545647059445841
30
0
11
13.400781990183754
21
93.54564705944766
31
0
0
LINE
5
211
100
AcDbEntity
8
0
100
AcDbLine
10
13.400781990183754
20
93.54564705944766
30
0
11
12.461450990183746
21
93.54564705944766
31
0
0
LINE
5
212
100
AcDbEntity
8
0
100
AcDbLine
10
12.461450990183746
20
93.54564705944766
30
0
11
12.461450990183746
21
90.545647059447646
31
0
0
LINE
5
213
100
AcDbEntity
8
0
100
AcDbLine
10
12.461450990183746
20
90.545647059447646
30
0
11
10.761450990183871
21
90.54564702944765
31
0
0
ARC
5
214
100
AcDbEntity
8
0
100
AcDbCircle
10
10.761450990183874
20
90.84564700944766
30
0
40
0.30000001000001442
210
0
220
0
230
1
100
AcDbArc
50
180
51
269.99999999999932
0
LINE
5
215
100
AcDbEntity
8
0
100
AcDbLine
10
10.461450980183859
20
90.84564700944766
30
0
11
10.461450990183794
21
97.499999999999986
31
0
0
LINE
5
216
100
AcDbEntity
8
0
100
AcDbLine
10
10.461450990183794
20
97.499999999999986
30
0
11
-10.461450990183788
21
97.499999999999986
31
0
0
CIRCLE
5
217
100
AcDbEntity
8
0
100
AcDbCircle
10
37.380000000000003
20
-33.75
30
0
40
1.4999999999999991
210
0
220
-0
230
1
0
CIRCLE
5
218
100
AcDbEntity
8
0
100
AcDbCircle
10
37.380000000000003
20
33.75
30
0
40
1.4999999999999991
210
0
220
-0
230
1
0
CIRCLE
5
219
100
AcDbEntity
8
0
100
AcDbCircle
10
-37.380000000000003
20
-33.75
30
0
40
1.4999999999999991
210
0
220
-0
230
1
0
CIRCLE
5
220
100
AcDbEntity
8
0
100
AcDbCircle
10
-37.380000000000003
20
33.75
30
0
40
1.4999999999999991
210
0
220
-0
230
1
0
ENDSEC
0
SECTION
2
OBJECTS
0
DICTIONARY
5
C
100
AcDbDictionary
3
ACAD_GROUP
350
D
3
ACAD_MLINESTYLE
350
17
0
DICTIONARY
5
D
100
AcDbDictionary
0
DICTIONARY
5
1A
330
C
100
AcDbDictionary
0
DICTIONARY
5
17
100
AcDbDictionary
0
ENDSEC
0
EOF
