0
SECTION
2
HEADER
9
$INSUNITS
70
4
9
$ACADVER
1
AC1014
9
$HANDSEED
5
FFFF
0
ENDSEC
0
SECTION
2
TABLES
0
TABLE
2
VPORT
5
8
100
AcDbSymbolTable
0
ENDTAB
0
TABLE
2
LTYPE
5
5
100
AcDbSymbolTable
0
LTYPE
5
14
100
AcDbSymbolTableRecord
100
AcDbLinetypeTableRecord
2
BYBLOCK
70
0
0
LTYPE
5
15
100
AcDbSymbolTableRecord
100
AcDbLinetypeTableRecord
2
BYLAYER
70
0
0
ENDTAB
0
TABLE
2
LAYER
5
2
100
AcDbSymbolTable
70
2
0
LAYER
5
50
100
AcDbSymbolTableRecord
100
AcDbLayerTableRecord
2
0
70
0
6
CONTINUOUS
0
ENDTAB
0
TABLE
2
STYLE
5
3
100
AcDbSymbolTable
70
1
0
STYLE
5
11
100
AcDbSymbolTableRecord
100
AcDbTextStyleTableRecord
2
STANDARD
70
0
0
ENDTAB
0
TABLE
2
VIEW
5
6
100
AcDbSymbolTable
70
0
0
ENDTAB
0
TABLE
2
UCS
5
7
100
AcDbSymbolTable
70
0
0
ENDTAB
0
TABLE
2
APPID
5
9
100
AcDbSymbolTable
70
2
0
APPID
5
12
100
AcDbSymbolTableRecord
100
AcDbRegAppTableRecord
2
ACAD
70
0
0
ENDTAB
0
TABLE
2
DIMSTYLE
5
A
100
AcDbSymbolTable
70
1
0
ENDTAB
0
TABLE
2
BLOCK_RECORD
5
1
100
AcDbSymbolTable
70
1
0
BLOCK_RECORD
5
1F
100
AcDbSymbolTableRecord
100
AcDbBlockTableRecord
2
*MODEL_SPACE
0
BLOCK_RECORD
5
1B
100
AcDbSymbolTableRecord
100
AcDbBlockTableRecord
2
*PAPER_SPACE
0
ENDTAB
0
ENDSEC
0
SECTION
2
BLOCKS
0
BLOCK
5
20
100
AcDbEntity
100
AcDbBlockBegin
2
*MODEL_SPACE
0
ENDBLK
5
21
100
AcDbEntity
100
AcDbBlockEnd
0
BLOCK
5
1C
100
AcDbEntity
100
AcDbBlockBegin
2
*PAPER_SPACE
0
ENDBLK
5
1D
100
AcDbEntity
100
AcDbBlockEnd
0
ENDSEC
0
SECTION
2
ENTITIES
0
LWPOLYLINE
5
100
100
AcDbEntity
8
0
100
AcDbPolyline
90
4
70
1
43
0.0
10
-50
20
20
10
-36
20
20
10
-36
20
50
10
-50
20
50
0
CIRCLE
5
101
100
AcDbEntity
8
0
100
AcDbCircle
10
19.999999999999996
20
30.000000000000007
30
0
40
7.9999999999999982
210
0
220
0
230
1
0
LWPOLYLINE
5
102
100
AcDbEntity
8
0
100
AcDbPolyline
90
76
70
1
43
0.0
10
-32.250000000000014
20
4.7599999999999998
10
-32.250000000000014
20
6.0099999999999998
10
-30.950000000000017
20
6.0099999999999998
10
-30.950000000000017
20
8.5099999999999998
10
-32.250000000000014
20
8.5099999999999998
10
-32.250000000000014
20
9.7599999999999998
10
-35.250000000000021
20
9.7599999999999998
10
-35.250000000000021
20
8.5099999999999998
10
-36.550000000000018
20
8.5099999999999998
10
-36.550000000000018
20
6.0099999999999998
10
-35.250000000000021
20
6.0099999999999998
10
-35.250000000000021
20
4.7599999999999998
10
-60.000000000000014
20
4.7599999999999998
10
-60.000000000000014
20
0
10
-75.000000000000014
20
0
10
-75.000000000000014
20
4.7599999999999998
10
-97.499999999999986
20
4.7599999999999998
10
-97.499999999999986
20
64.760000000000005
10
-75.000000000000014
20
64.760000000000005
10
-75.000000000000014
20
69.519999999999996
10
-60.000000000000014
20
69.519999999999996
10
-60.000000000000014
20
64.760000000000005
10
-35.250000000000021
20
64.760000000000005
10
-35.250000000000021
20
63.509999999999998
10
-36.550000000000018
20
63.509999999999998
10
-36.550000000000018
20
61.009999999999998
10
-35.250000000000021
20
61.009999999999998
10
-35.250000000000021
20
59.759999999999998
10
-32.250000000000014
20
59.759999999999998
10
-32.250000000000014
20
61.009999999999998
10
-30.950000000000017
20
61.009999999999998
10
-30.950000000000017
20
63.509999999999998
10
-32.250000000000014
20
63.509999999999998
10
-32.250000000000014
20
64.760000000000005
10
-7.5000000000000178
20
64.760000000000005
10
-7.5000000000000178
20
69.519999999999996
10
7.4999999999999822
20
69.519999999999996
10
7.4999999999999822
20
64.760000000000005
10
32.249999999999979
20
64.760000000000005
10
32.249999999999979
20
63.509999999999998
10
30.949999999999971
20
63.509999999999998
10
30.949999999999971
20
61.009999999999998
10
32.249999999999979
20
61.009999999999998
10
32.249999999999979
20
59.759999999999998
10
35.249999999999986
20
59.759999999999998
10
35.249999999999986
20
61.009999999999998
10
36.549999999999997
20
61.009999999999998
10
36.549999999999997
20
63.509999999999998
10
35.249999999999986
20
63.509999999999998
10
35.249999999999986
20
64.760000000000005
10
59.999999999999986
20
64.760000000000005
10
59.999999999999986
20
69.519999999999996
10
74.999999999999986
20
69.519999999999996
10
74.999999999999986
20
64.760000000000005
10
97.500000000000014
20
64.760000000000005
10
97.500000000000014
20
4.7599999999999998
10
74.999999999999986
20
4.7599999999999998
10
74.999999999999986
20
0
10
59.999999999999986
20
0
10
59.999999999999986
20
4.7599999999999998
10
35.249999999999986
20
4.7599999999999998
10
35.249999999999986
20
6.0099999999999998
10
36.549999999999983
20
6.0099999999999998
10
36.549999999999983
20
8.5099999999999998
10
35.249999999999986
20
8.5099999999999998
10
35.249999999999986
20
9.7599999999999998
10
32.249999999999979
20
9.7599999999999998
10
32.249999999999979
20
8.5099999999999998
10
30.949999999999982
20
8.5099999999999998
10
30.949999999999982
20
6.0099999999999998
10
32.249999999999979
20
6.0099999999999998
10
32.249999999999979
20
4.7599999999999998
10
7.4999999999999822
20
4.7599999999999998
10
7.4999999999999822
20
0
10
-7.5000000000000178
20
0
10
-7.5000000000000178
20
4.7599999999999998
0
ENDSEC
0
SECTION
2
OBJECTS
0
DICTIONARY
5
C
100
AcDbDictionary
3
ACAD_GROUP
350
D
3
ACAD_MLINESTYLE
350
17
0
DICTIONARY
5
D
100
AcDbDictionary
0
DICTIONARY
5
1A
330
C
100
AcDbDictionary
0
DICTIONARY
5
17
100
AcDbDictionary
0
ENDSEC
0
EOF
