  0
SECTION
  2
HEADER
  9
$ACADVER
  1
AC1024
  9
$ACADMAINTVER
 70
     6
  9
$DWGCODEPAGE
  3
ANSI_1252
  9
$INSBASE
 10
0.0
 20
0.0
 30
0.0
  9
$EXTMIN
 10
1.000000000000000E+20
 20
1.000000000000000E+20
 30
1.000000000000000E+20
  9
$EXTMAX
 10
-1.000000000000000E+20
 20
-1.000000000000000E+20
 30
-1.000000000000000E+20
  9
$LIMMIN
 10
0.0
 20
0.0
  9
$LIMMAX
 10
12.0
 20
9.0
  9
$ORTHOMODE
 70
     0
  9
$REGENMODE
 70
     1
  9
$FILLMODE
 70
     1
  9
$QTEXTMODE
 70
     0
  9
$MIRRTEXT
 70
     1
  9
$LTSCALE
 40
1.0
  9
$ATTMODE
 70
     1
  9
$TEXTSIZE
 40
0.2
  9
$TRACEWID
 40
0.05
  9
$TEXTSTYLE
  7
Standard
  9
$CLAYER
  8
0
  9
$CELTYPE
  6
ByLayer
  9
$CECOLOR
 62
   256
  9
$CELTSCALE
 40
1.0
  9
$DISPSILH
 70
     0
  9
$DIMSCALE
 40
1.0
  9
$DIMASZ
 40
0.18
  9
$DIMEXO
 40
0.0625
  9
$DIMDLI
 40
0.38
  9
$DIMRND
 40
0.0
  9
$DIMDLE
 40
0.0
  9
$DIMEXE
 40
0.18
  9
$DIMTP
 40
0.0
  9
$DIMTM
 40
0.0
  9
$DIMTXT
 40
0.18
  9
$DIMCEN
 40
0.09
  9
$DIMTSZ
 40
0.0
  9
$DIMTOL
 70
     0
  9
$DIMLIM
 70
     0
  9
$DIMTIH
 70
     1
  9
$DIMTOH
 70
     1
  9
$DIMSE1
 70
     0
  9
$DIMSE2
 70
     0
  9
$DIMTAD
 70
     0
  9
$DIMZIN
 70
     0
  9
$DIMBLK
  1

  9
$DIMASO
 70
     1
  9
$DIMSHO
 70
     1
  9
$DIMPOST
  1

  9
$DIMAPOST
  1

  9
$DIMALT
 70
     0
  9
$DIMALTD
 70
     2
  9
$DIMALTF
 40
25.4
  9
$DIMLFAC
 40
1.0
  9
$DIMTOFL
 70
     0
  9
$DIMTVP
 40
0.0
  9
$DIMTIX
 70
     0
  9
$DIMSOXD
 70
     0
  9
$DIMSAH
 70
     0
  9
$DIMBLK1
  1

  9
$DIMBLK2
  1

  9
$DIMSTYLE
  2
Standard
  9
$DIMCLRD
 70
     0
  9
$DIMCLRE
 70
     0
  9
$DIMCLRT
 70
     0
  9
$DIMTFAC
 40
1.0
  9
$DIMGAP
 40
0.09
  9
$DIMJUST
 70
     0
  9
$DIMSD1
 70
     0
  9
$DIMSD2
 70
     0
  9
$DIMTOLJ
 70
     1
  9
$DIMTZIN
 70
     0
  9
$DIMALTZ
 70
     0
  9
$DIMALTTZ
 70
     0
  9
$DIMUPT
 70
     0
  9
$DIMDEC
 70
     4
  9
$DIMTDEC
 70
     4
  9
$DIMALTU
 70
     2
  9
$DIMALTTD
 70
     2
  9
$DIMTXSTY
  7
Standard
  9
$DIMAUNIT
 70
     0
  9
$DIMADEC
 70
     0
  9
$DIMALTRND
 40
0.0
  9
$DIMAZIN
 70
     0
  9
$DIMDSEP
 70
    46
  9
$DIMATFIT
 70
     3
  9
$DIMFRAC
 70
     0
  9
$DIMLDRBLK
  1

  9
$DIMLUNIT
 70
     2
  9
$DIMLWD
 70
    -2
  9
$DIMLWE
 70
    -2
  9
$DIMTMOVE
 70
     0
  9
$DIMFXL
 40
1.0
  9
$DIMFXLON
 70
     0
  9
$DIMJOGANG
 40
0.7853981633974483
  9
$DIMTFILL
 70
     0
  9
$DIMTFILLCLR
 70
     0
  9
$DIMARCSYM
 70
     0
  9
$DIMLTYPE
  6

  9
$DIMLTEX1
  6

  9
$DIMLTEX2
  6

  9
$DIMTXTDIRECTION
 70
     0
  9
$LUNITS
 70
     2
  9
$LUPREC
 70
     4
  9
$SKETCHINC
 40
0.1
  9
$FILLETRAD
 40
0.5
  9
$AUNITS
 70
     0
  9
$AUPREC
 70
     0
  9
$MENU
  1
.
  9
$ELEVATION
 40
0.0
  9
$PELEVATION
 40
0.0
  9
$THICKNESS
 40
0.0
  9
$LIMCHECK
 70
     0
  9
$CHAMFERA
 40
0.5
  9
$CHAMFERB
 40
0.5
  9
$CHAMFERC
 40
1.0
  9
$CHAMFERD
 40
0.0
  9
$SKPOLY
 70
     0
  9
$TDCREATE
 40
2458939.7345514
  9
$TDUCREATE
 40
2458939.942884734
  9
$TDUPDATE
 40
2458939.734551562
  9
$TDUUPDATE
 40
2458939.942884896
  9
$TDINDWG
 40
0.0000000116
  9
$TDUSRTIMER
 40
0.0000000116
  9
$USRTIMER
 70
     1
  9
$ANGBASE
 50
0.0
  9
$ANGDIR
 70
     0
  9
$PDMODE
 70
     0
  9
$PDSIZE
 40
0.0
  9
$PLINEWID
 40
0.0
  9
$SPLFRAME
 70
     0
  9
$SPLINETYPE
 70
     6
  9
$SPLINESEGS
 70
     8
  9
$HANDSEED
  5
3C8
  9
$SURFTAB1
 70
     6
  9
$SURFTAB2
 70
     6
  9
$SURFTYPE
 70
     6
  9
$SURFU
 70
     6
  9
$SURFV
 70
     6
  9
$UCSBASE
  2

  9
$UCSNAME
  2

  9
$UCSORG
 10
0.0
 20
0.0
 30
0.0
  9
$UCSXDIR
 10
1.0
 20
0.0
 30
0.0
  9
$UCSYDIR
 10
0.0
 20
1.0
 30
0.0
  9
$UCSORTHOREF
  2

  9
$UCSORTHOVIEW
 70
     0
  9
$UCSORGTOP
 10
0.0
 20
0.0
 30
0.0
  9
$UCSORGBOTTOM
 10
0.0
 20
0.0
 30
0.0
  9
$UCSORGLEFT
 10
0.0
 20
0.0
 30
0.0
  9
$UCSORGRIGHT
 10
0.0
 20
0.0
 30
0.0
  9
$UCSORGFRONT
 10
0.0
 20
0.0
 30
0.0
  9
$UCSORGBACK
 10
0.0
 20
0.0
 30
0.0
  9
$PUCSBASE
  2

  9
$PUCSNAME
  2

  9
$PUCSORG
 10
0.0
 20
0.0
 30
0.0
  9
$PUCSXDIR
 10
1.0
 20
0.0
 30
0.0
  9
$PUCSYDIR
 10
0.0
 20
1.0
 30
0.0
  9
$PUCSORTHOREF
  2

  9
$PUCSORTHOVIEW
 70
     0
  9
$PUCSORGTOP
 10
0.0
 20
0.0
 30
0.0
  9
$PUCSORGBOTTOM
 10
0.0
 20
0.0
 30
0.0
  9
$PUCSORGLEFT
 10
0.0
 20
0.0
 30
0.0
  9
$PUCSORGRIGHT
 10
0.0
 20
0.0
 30
0.0
  9
$PUCSORGFRONT
 10
0.0
 20
0.0
 30
0.0
  9
$PUCSORGBACK
 10
0.0
 20
0.0
 30
0.0
  9
$USERI1
 70
     0
  9
$USERI2
 70
     0
  9
$USERI3
 70
     0
  9
$USERI4
 70
     0
  9
$USERI5
 70
     0
  9
$USERR1
 40
0.0
  9
$USERR2
 40
0.0
  9
$USERR3
 40
0.0
  9
$USERR4
 40
0.0
  9
$USERR5
 40
0.0
  9
$WORLDVIEW
 70
     1
  9
$SHADEDGE
 70
     3
  9
$SHADEDIF
 70
    70
  9
$TILEMODE
 70
     1
  9
$MAXACTVP
 70
    64
  9
$PINSBASE
 10
0.0
 20
0.0
 30
0.0
  9
$PLIMCHECK
 70
     0
  9
$PEXTMIN
 10
1.000000000000000E+20
 20
1.000000000000000E+20
 30
1.000000000000000E+20
  9
$PEXTMAX
 10
-1.000000000000000E+20
 20
-1.000000000000000E+20
 30
-1.000000000000000E+20
  9
$PLIMMIN
 10
0.0
 20
0.0
  9
$PLIMMAX
 10
12.0
 20
9.0
  9
$UNITMODE
 70
     0
  9
$VISRETAIN
 70
     1
  9
$PLINEGEN
 70
     0
  9
$PSLTSCALE
 70
     1
  9
$TREEDEPTH
 70
  3020
  9
$CMLSTYLE
  2
Standard
  9
$CMLJUST
 70
     0
  9
$CMLSCALE
 40
1.0
  9
$PROXYGRAPHICS
 70
     1
  9
$MEASUREMENT
 70
     0
  9
$CELWEIGHT
370
    -1
  9
$ENDCAPS
280
     0
  9
$JOINSTYLE
280
     0
  9
$LWDISPLAY
290
     1
  9
$INSUNITS
 70
     1
  9
$HYPERLINKBASE
  1

  9
$STYLESHEET
  1

  9
$XEDIT
290
     1
  9
$CEPSNTYPE
380
     0
  9
$PSTYLEMODE
290
     1
  9
$FINGERPRINTGUID
  2
{1743551F-DEAE-4EA0-BAFA-30E9BF041E2B}
  9
$VERSIONGUID
  2
{FAEB1C32-E019-11D5-929B-00C0DF256EC4}
  9
$EXTNAMES
290
     1
  9
$PSVPSCALE
 40
0.0
  9
$OLESTARTUP
290
     0
  9
$SORTENTS
280
   127
  9
$INDEXCTL
280
     0
  9
$HIDETEXT
280
     1
  9
$XCLIPFRAME
280
     2
  9
$HALOGAP
280
     0
  9
$OBSCOLOR
 70
   257
  9
$OBSLTYPE
280
     0
  9
$INTERSECTIONDISPLAY
280
     0
  9
$INTERSECTIONCOLOR
 70
   257
  9
$DIMASSOC
280
     2
  9
$PROJECTNAME
  1

  9
$CAMERADISPLAY
290
     0
  9
$LENSLENGTH
 40
50.0
  9
$CAMERAHEIGHT
 40
0.0
  9
$STEPSPERSEC
 40
2.0
  9
$STEPSIZE
 40
6.0
  9
$3DDWFPREC
 40
2.0
  9
$PSOLWIDTH
 40
0.25
  9
$PSOLHEIGHT
 40
4.0
  9
$LOFTANG1
 40
1.570796326794897
  9
$LOFTANG2
 40
1.570796326794897
  9
$LOFTMAG1
 40
0.0
  9
$LOFTMAG2
 40
0.0
  9
$LOFTPARAM
 70
     7
  9
$LOFTNORMALS
280
     1
  9
$LATITUDE
 40
37.795
  9
$LONGITUDE
 40
-122.394
  9
$NORTHDIRECTION
 40
0.0
  9
$TIMEZONE
 70
 -8000
  9
$LIGHTGLYPHDISPLAY
280
     1
  9
$TILEMODELIGHTSYNCH
280
     1
  9
$CMATERIAL
347
3C
  9
$SOLIDHIST
280
     1
  9
$SHOWHIST
280
     1
  9
$DWFFRAME
280
     2
  9
$DGNFRAME
280
     2
  9
$REALWORLDSCALE
290
     1
  9
$INTERFERECOLOR
 62
   256
  9
$CSHADOW
280
     0
  9
$SHADOWPLANELOCATION
 40
0.0
  0
ENDSEC
  0
SECTION
  2
CLASSES
  0
CLASS
  1
ACDBDICTIONARYWDFLT
  2
AcDbDictionaryWithDefault
  3
ObjectDBX Classes
 90
        0
 91
        4
280
     0
281
     0
  0
CLASS
  1
VISUALSTYLE
  2
AcDbVisualStyle
  3
ObjectDBX Classes
 90
     4095
 91
        4
280
     0
281
     0
  0
CLASS
  1
MATERIAL
  2
AcDbMaterial
  3
ObjectDBX Classes
 90
     1153
 91
        4
280
     0
281
     0
  0
CLASS
  1
SUN
  2
AcDbSun
  3
SCENEOE
 90
     1024
 91
        4
280
     0
281
     0
  0
ENDSEC
  0
SECTION
  2
TABLES
  0
TABLE
  2
VPORT
  5
8
330
0
100
AcDbSymbolTable
 70
     1
  0
VPORT
  5
29
330
8
100
AcDbSymbolTableRecord
100
AcDbViewportTableRecord
  2
*Active
 70
     0
 10
0.0
 20
0.0
 11
1.0
 21
1.0
 12
0.0
 22
0.0
 13
0.0
 23
0.0
 14
0.5
 24
0.5
 15
0.5
 25
0.5
 16
0.0
 26
0.0
 36
1.0
 17
107.9499999730125
 27
139.699999965075
 37
0.0
 40
279.39999993015
 41
0.7727272727272728
 42
50.0
 43
0.0
 44
0.0
 50
0.0
 51
0.0
 71
     0
 72
   100
 73
     1
 74
     3
 75
     0
 76
     0
 77
     0
 78
     0
281
     0
 65
     1
110
0.0
120
0.0
130
0.0
111
1.0
121
0.0
131
0.0
112
0.0
122
1.0
132
0.0
 79
     0
146
0.0
 60
     3
 61
     5
292
     1
282
     1
141
0.0
142
0.0
 63
   250
361
3F
  0
ENDTAB
  0
TABLE
  2
LTYPE
  5
5
330
0
100
AcDbSymbolTable
 70
     1
  0
LTYPE
  5
14
330
5
100
AcDbSymbolTableRecord
100
AcDbLinetypeTableRecord
  2
ByBlock
 70
     0
  3

 72
    65
 73
     0
 40
0.0
  0
LTYPE
  5
15
330
5
100
AcDbSymbolTableRecord
100
AcDbLinetypeTableRecord
  2
ByLayer
 70
     0
  3

 72
    65
 73
     0
 40
0.0
  0
LTYPE
  5
16
330
5
100
AcDbSymbolTableRecord
100
AcDbLinetypeTableRecord
  2
Continuous
 70
     0
  3
Solid line
 72
    65
 73
     0
 40
0.0
  0
ENDTAB
  0
TABLE
  2
LAYER
  5
2
330
0
100
AcDbSymbolTable
 70
     1
  0
LAYER
  5
10
330
2
100
AcDbSymbolTableRecord
100
AcDbLayerTableRecord
  2
0
 70
     0
 62
     7
  6
Continuous
370
    -3
390
F
347
3E
  0
ENDTAB
  0
TABLE
  2
STYLE
  5
3
330
0
100
AcDbSymbolTable
 70
     1
  0
STYLE
  5
11
330
3
100
AcDbSymbolTableRecord
100
AcDbTextStyleTableRecord
  2
Standard
 70
     0
 40
0.0
 41
1.0
 50
0.0
 71
     0
 42
0.2
  3
txt
  4

  0
ENDTAB
  0
TABLE
  2
VIEW
  5
6
330
0
100
AcDbSymbolTable
 70
     0
  0
ENDTAB
  0
TABLE
  2
UCS
  5
7
330
0
100
AcDbSymbolTable
 70
     0
  0
ENDTAB
  0
TABLE
  2
APPID
  5
9
330
0
100
AcDbSymbolTable
 70
     1
  0
APPID
  5
12
330
9
100
AcDbSymbolTableRecord
100
AcDbRegAppTableRecord
  2
ACAD
 70
     0
  0
ENDTAB
  0
TABLE
  2
DIMSTYLE
  5
A
330
0
100
AcDbSymbolTable
 70
     1
100
AcDbDimStyleTable
  0
DIMSTYLE
105
27
330
A
100
AcDbSymbolTableRecord
100
AcDbDimStyleTableRecord
  2
Standard
 70
     0
178
     0
340
11
  0
ENDTAB
  0
TABLE
  2
BLOCK_RECORD
  5
1
330
0
100
AcDbSymbolTable
 70
   125
  0
BLOCK_RECORD
  5
1F
330
1
100
AcDbSymbolTableRecord
100
AcDbBlockTableRecord
  2
*Model_Space
340
22
 70
     0
280
     1
281
     0
  0
BLOCK_RECORD
  5
1B
330
1
100
AcDbSymbolTableRecord
100
AcDbBlockTableRecord
  2
*Paper_Space
340
1E
 70
     0
280
     1
281
     0
  0
BLOCK_RECORD
  5
23
330
1
100
AcDbSymbolTableRecord
100
AcDbBlockTableRecord
  2
*Paper_Space0
340
26
 70
     0
280
     1
281
     0
  0
BLOCK_RECORD
  5
40
330
1
100
AcDbSymbolTableRecord
100
AcDbBlockTableRecord
  2
block 2
340
0
102
{BLKREFS
331
41
102
}
 70
     0
280
     1
281
     0
  0
BLOCK_RECORD
  5
45
330
1
100
AcDbSymbolTableRecord
100
AcDbBlockTableRecord
  2
block 3
340
0
102
{BLKREFS
331
46
102
}
 70
     0
280
     1
281
     0
  0
BLOCK_RECORD
  5
4A
330
1
100
AcDbSymbolTableRecord
100
AcDbBlockTableRecord
  2
block 4
340
0
102
{BLKREFS
331
4B
102
}
 70
     0
280
     1
281
     0
  0
BLOCK_RECORD
  5
4F
330
1
100
AcDbSymbolTableRecord
100
AcDbBlockTableRecord
  2
block 5
340
0
102
{BLKREFS
331
50
102
}
 70
     0
280
     1
281
     0
  0
BLOCK_RECORD
  5
54
330
1
100
AcDbSymbolTableRecord
100
AcDbBlockTableRecord
  2
block 6
340
0
102
{BLKREFS
331
55
102
}
 70
     0
280
     1
281
     0
  0
BLOCK_RECORD
  5
59
330
1
100
AcDbSymbolTableRecord
100
AcDbBlockTableRecord
  2
block 7
340
0
102
{BLKREFS
331
5A
102
}
 70
     0
280
     1
281
     0
  0
BLOCK_RECORD
  5
5E
330
1
100
AcDbSymbolTableRecord
100
AcDbBlockTableRecord
  2
block 8
340
0
102
{BLKREFS
331
5F
102
}
 70
     0
280
     1
281
     0
  0
BLOCK_RECORD
  5
63
330
1
100
AcDbSymbolTableRecord
100
AcDbBlockTableRecord
  2
block 9
340
0
102
{BLKREFS
331
64
102
}
 70
     0
280
     1
281
     0
  0
BLOCK_RECORD
  5
68
330
1
100
AcDbSymbolTableRecord
100
AcDbBlockTableRecord
  2
block 10
340
0
102
{BLKREFS
331
69
102
}
 70
     0
280
     1
281
     0
  0
BLOCK_RECORD
  5
6D
330
1
100
AcDbSymbolTableRecord
100
AcDbBlockTableRecord
  2
block 11
340
0
102
{BLKREFS
331
6E
102
}
 70
     0
280
     1
281
     0
  0
BLOCK_RECORD
  5
78
330
1
100
AcDbSymbolTableRecord
100
AcDbBlockTableRecord
  2
block 12
340
0
102
{BLKREFS
331
79
102
}
 70
     0
280
     1
281
     0
  0
BLOCK_RECORD
  5
7D
330
1
100
AcDbSymbolTableRecord
100
AcDbBlockTableRecord
  2
block 13
340
0
102
{BLKREFS
331
7E
102
}
 70
     0
280
     1
281
     0
  0
BLOCK_RECORD
  5
88
330
1
100
AcDbSymbolTableRecord
100
AcDbBlockTableRecord
  2
block 14
340
0
102
{BLKREFS
331
89
102
}
 70
     0
280
     1
281
     0
  0
BLOCK_RECORD
  5
90
330
1
100
AcDbSymbolTableRecord
100
AcDbBlockTableRecord
  2
block 15
340
0
102
{BLKREFS
331
91
102
}
 70
     0
280
     1
281
     0
  0
BLOCK_RECORD
  5
98
330
1
100
AcDbSymbolTableRecord
100
AcDbBlockTableRecord
  2
block 16
340
0
102
{BLKREFS
331
99
102
}
 70
     0
280
     1
281
     0
  0
BLOCK_RECORD
  5
A0
330
1
100
AcDbSymbolTableRecord
100
AcDbBlockTableRecord
  2
block 17
340
0
102
{BLKREFS
331
A1
102
}
 70
     0
280
     1
281
     0
  0
BLOCK_RECORD
  5
A8
330
1
100
AcDbSymbolTableRecord
100
AcDbBlockTableRecord
  2
block 18
340
0
102
{BLKREFS
331
A9
102
}
 70
     0
280
     1
281
     0
  0
BLOCK_RECORD
  5
B0
330
1
100
AcDbSymbolTableRecord
100
AcDbBlockTableRecord
  2
block 19
340
0
102
{BLKREFS
331
B1
102
}
 70
     0
280
     1
281
     0
  0
BLOCK_RECORD
  5
B8
330
1
100
AcDbSymbolTableRecord
100
AcDbBlockTableRecord
  2
block 20
340
0
102
{BLKREFS
331
B9
102
}
 70
     0
280
     1
281
     0
  0
BLOCK_RECORD
  5
C0
330
1
100
AcDbSymbolTableRecord
100
AcDbBlockTableRecord
  2
block 21
340
0
102
{BLKREFS
331
C1
102
}
 70
     0
280
     1
281
     0
  0
BLOCK_RECORD
  5
C5
330
1
100
AcDbSymbolTableRecord
100
AcDbBlockTableRecord
  2
block 22
340
0
102
{BLKREFS
331
C6
102
}
 70
     0
280
     1
281
     0
  0
BLOCK_RECORD
  5
CD
330
1
100
AcDbSymbolTableRecord
100
AcDbBlockTableRecord
  2
block 23
340
0
102
{BLKREFS
331
CE
102
}
 70
     0
280
     1
281
     0
  0
BLOCK_RECORD
  5
D2
330
1
100
AcDbSymbolTableRecord
100
AcDbBlockTableRecord
  2
block 24
340
0
102
{BLKREFS
331
D3
102
}
 70
     0
280
     1
281
     0
  0
BLOCK_RECORD
  5
DA
330
1
100
AcDbSymbolTableRecord
100
AcDbBlockTableRecord
  2
block 25
340
0
102
{BLKREFS
331
DB
102
}
 70
     0
280
     1
281
     0
  0
BLOCK_RECORD
  5
E2
330
1
100
AcDbSymbolTableRecord
100
AcDbBlockTableRecord
  2
block 26
340
0
102
{BLKREFS
331
E3
102
}
 70
     0
280
     1
281
     0
  0
BLOCK_RECORD
  5
E7
330
1
100
AcDbSymbolTableRecord
100
AcDbBlockTableRecord
  2
block 27
340
0
102
{BLKREFS
331
E8
102
}
 70
     0
280
     1
281
     0
  0
BLOCK_RECORD
  5
EF
330
1
100
AcDbSymbolTableRecord
100
AcDbBlockTableRecord
  2
block 28
340
0
102
{BLKREFS
331
F0
102
}
 70
     0
280
     1
281
     0
  0
BLOCK_RECORD
  5
F7
330
1
100
AcDbSymbolTableRecord
100
AcDbBlockTableRecord
  2
block 29
340
0
102
{BLKREFS
331
F8
102
}
 70
     0
280
     1
281
     0
  0
BLOCK_RECORD
  5
FF
330
1
100
AcDbSymbolTableRecord
100
AcDbBlockTableRecord
  2
block 30
340
0
102
{BLKREFS
331
100
102
}
 70
     0
280
     1
281
     0
  0
BLOCK_RECORD
  5
107
330
1
100
AcDbSymbolTableRecord
100
AcDbBlockTableRecord
  2
block 31
340
0
102
{BLKREFS
331
108
102
}
 70
     0
280
     1
281
     0
  0
BLOCK_RECORD
  5
10F
330
1
100
AcDbSymbolTableRecord
100
AcDbBlockTableRecord
  2
block 32
340
0
102
{BLKREFS
331
110
102
}
 70
     0
280
     1
281
     0
  0
BLOCK_RECORD
  5
117
330
1
100
AcDbSymbolTableRecord
100
AcDbBlockTableRecord
  2
block 33
340
0
102
{BLKREFS
331
118
102
}
 70
     0
280
     1
281
     0
  0
BLOCK_RECORD
  5
11F
330
1
100
AcDbSymbolTableRecord
100
AcDbBlockTableRecord
  2
block 34
340
0
102
{BLKREFS
331
120
102
}
 70
     0
280
     1
281
     0
  0
BLOCK_RECORD
  5
127
330
1
100
AcDbSymbolTableRecord
100
AcDbBlockTableRecord
  2
block 35
340
0
102
{BLKREFS
331
128
102
}
 70
     0
280
     1
281
     0
  0
BLOCK_RECORD
  5
12F
330
1
100
AcDbSymbolTableRecord
100
AcDbBlockTableRecord
  2
block 36
340
0
102
{BLKREFS
331
130
102
}
 70
     0
280
     1
281
     0
  0
BLOCK_RECORD
  5
137
330
1
100
AcDbSymbolTableRecord
100
AcDbBlockTableRecord
  2
block 37
340
0
102
{BLKREFS
331
138
102
}
 70
     0
280
     1
281
     0
  0
BLOCK_RECORD
  5
13F
330
1
100
AcDbSymbolTableRecord
100
AcDbBlockTableRecord
  2
block 38
340
0
102
{BLKREFS
331
140
102
}
 70
     0
280
     1
281
     0
  0
BLOCK_RECORD
  5
147
330
1
100
AcDbSymbolTableRecord
100
AcDbBlockTableRecord
  2
block 39
340
0
102
{BLKREFS
331
148
102
}
 70
     0
280
     1
281
     0
  0
BLOCK_RECORD
  5
14F
330
1
100
AcDbSymbolTableRecord
100
AcDbBlockTableRecord
  2
block 40
340
0
102
{BLKREFS
331
150
102
}
 70
     0
280
     1
281
     0
  0
BLOCK_RECORD
  5
157
330
1
100
AcDbSymbolTableRecord
100
AcDbBlockTableRecord
  2
block 41
340
0
102
{BLKREFS
331
158
102
}
 70
     0
280
     1
281
     0
  0
BLOCK_RECORD
  5
15C
330
1
100
AcDbSymbolTableRecord
100
AcDbBlockTableRecord
  2
block 42
340
0
102
{BLKREFS
331
15D
102
}
 70
     0
280
     1
281
     0
  0
BLOCK_RECORD
  5
164
330
1
100
AcDbSymbolTableRecord
100
AcDbBlockTableRecord
  2
block 43
340
0
102
{BLKREFS
331
165
102
}
 70
     0
280
     1
281
     0
  0
BLOCK_RECORD
  5
169
330
1
100
AcDbSymbolTableRecord
100
AcDbBlockTableRecord
  2
block 44
340
0
102
{BLKREFS
331
16A
102
}
 70
     0
280
     1
281
     0
  0
BLOCK_RECORD
  5
171
330
1
100
AcDbSymbolTableRecord
100
AcDbBlockTableRecord
  2
block 45
340
0
102
{BLKREFS
331
172
102
}
 70
     0
280
     1
281
     0
  0
BLOCK_RECORD
  5
176
330
1
100
AcDbSymbolTableRecord
100
AcDbBlockTableRecord
  2
block 46
340
0
102
{BLKREFS
331
177
102
}
 70
     0
280
     1
281
     0
  0
BLOCK_RECORD
  5
17E
330
1
100
AcDbSymbolTableRecord
100
AcDbBlockTableRecord
  2
block 47
340
0
102
{BLKREFS
331
17F
102
}
 70
     0
280
     1
281
     0
  0
BLOCK_RECORD
  5
183
330
1
100
AcDbSymbolTableRecord
100
AcDbBlockTableRecord
  2
block 48
340
0
102
{BLKREFS
331
184
102
}
 70
     0
280
     1
281
     0
  0
BLOCK_RECORD
  5
18B
330
1
100
AcDbSymbolTableRecord
100
AcDbBlockTableRecord
  2
block 49
340
0
102
{BLKREFS
331
18C
102
}
 70
     0
280
     1
281
     0
  0
BLOCK_RECORD
  5
193
330
1
100
AcDbSymbolTableRecord
100
AcDbBlockTableRecord
  2
block 50
340
0
102
{BLKREFS
331
194
102
}
 70
     0
280
     1
281
     0
  0
BLOCK_RECORD
  5
19B
330
1
100
AcDbSymbolTableRecord
100
AcDbBlockTableRecord
  2
block 51
340
0
102
{BLKREFS
331
19C
102
}
 70
     0
280
     1
281
     0
  0
BLOCK_RECORD
  5
1A3
330
1
100
AcDbSymbolTableRecord
100
AcDbBlockTableRecord
  2
block 52
340
0
102
{BLKREFS
331
1A4
102
}
 70
     0
280
     1
281
     0
  0
BLOCK_RECORD
  5
1AB
330
1
100
AcDbSymbolTableRecord
100
AcDbBlockTableRecord
  2
block 53
340
0
102
{BLKREFS
331
1AC
102
}
 70
     0
280
     1
281
     0
  0
BLOCK_RECORD
  5
1B0
330
1
100
AcDbSymbolTableRecord
100
AcDbBlockTableRecord
  2
block 54
340
0
102
{BLKREFS
331
1B1
102
}
 70
     0
280
     1
281
     0
  0
BLOCK_RECORD
  5
1B8
330
1
100
AcDbSymbolTableRecord
100
AcDbBlockTableRecord
  2
block 55
340
0
102
{BLKREFS
331
1B9
102
}
 70
     0
280
     1
281
     0
  0
BLOCK_RECORD
  5
1C0
330
1
100
AcDbSymbolTableRecord
100
AcDbBlockTableRecord
  2
block 56
340
0
102
{BLKREFS
331
1C1
102
}
 70
     0
280
     1
281
     0
  0
BLOCK_RECORD
  5
1C8
330
1
100
AcDbSymbolTableRecord
100
AcDbBlockTableRecord
  2
block 57
340
0
102
{BLKREFS
331
1C9
102
}
 70
     0
280
     1
281
     0
  0
BLOCK_RECORD
  5
1CD
330
1
100
AcDbSymbolTableRecord
100
AcDbBlockTableRecord
  2
block 58
340
0
102
{BLKREFS
331
1CE
102
}
 70
     0
280
     1
281
     0
  0
BLOCK_RECORD
  5
1D5
330
1
100
AcDbSymbolTableRecord
100
AcDbBlockTableRecord
  2
block 59
340
0
102
{BLKREFS
331
1D6
102
}
 70
     0
280
     1
281
     0
  0
BLOCK_RECORD
  5
1DD
330
1
100
AcDbSymbolTableRecord
100
AcDbBlockTableRecord
  2
block 60
340
0
102
{BLKREFS
331
1DE
102
}
 70
     0
280
     1
281
     0
  0
BLOCK_RECORD
  5
1E5
330
1
100
AcDbSymbolTableRecord
100
AcDbBlockTableRecord
  2
block 61
340
0
102
{BLKREFS
331
1E6
102
}
 70
     0
280
     1
281
     0
  0
BLOCK_RECORD
  5
1ED
330
1
100
AcDbSymbolTableRecord
100
AcDbBlockTableRecord
  2
block 62
340
0
102
{BLKREFS
331
1EE
102
}
 70
     0
280
     1
281
     0
  0
BLOCK_RECORD
  5
1F5
330
1
100
AcDbSymbolTableRecord
100
AcDbBlockTableRecord
  2
block 63
340
0
102
{BLKREFS
331
1F6
102
}
 70
     0
280
     1
281
     0
  0
BLOCK_RECORD
  5
1FD
330
1
100
AcDbSymbolTableRecord
100
AcDbBlockTableRecord
  2
block 64
340
0
102
{BLKREFS
331
1FE
102
}
 70
     0
280
     1
281
     0
  0
BLOCK_RECORD
  5
205
330
1
100
AcDbSymbolTableRecord
100
AcDbBlockTableRecord
  2
block 65
340
0
102
{BLKREFS
331
206
102
}
 70
     0
280
     1
281
     0
  0
BLOCK_RECORD
  5
20D
330
1
100
AcDbSymbolTableRecord
100
AcDbBlockTableRecord
  2
block 66
340
0
102
{BLKREFS
331
20E
102
}
 70
     0
280
     1
281
     0
  0
BLOCK_RECORD
  5
212
330
1
100
AcDbSymbolTableRecord
100
AcDbBlockTableRecord
  2
block 67
340
0
102
{BLKREFS
331
213
102
}
 70
     0
280
     1
281
     0
  0
BLOCK_RECORD
  5
21A
330
1
100
AcDbSymbolTableRecord
100
AcDbBlockTableRecord
  2
block 68
340
0
102
{BLKREFS
331
21B
102
}
 70
     0
280
     1
281
     0
  0
BLOCK_RECORD
  5
222
330
1
100
AcDbSymbolTableRecord
100
AcDbBlockTableRecord
  2
block 69
340
0
102
{BLKREFS
331
223
102
}
 70
     0
280
     1
281
     0
  0
BLOCK_RECORD
  5
22A
330
1
100
AcDbSymbolTableRecord
100
AcDbBlockTableRecord
  2
block 70
340
0
102
{BLKREFS
331
22B
102
}
 70
     0
280
     1
281
     0
  0
BLOCK_RECORD
  5
22F
330
1
100
AcDbSymbolTableRecord
100
AcDbBlockTableRecord
  2
block 71
340
0
102
{BLKREFS
331
230
102
}
 70
     0
280
     1
281
     0
  0
BLOCK_RECORD
  5
237
330
1
100
AcDbSymbolTableRecord
100
AcDbBlockTableRecord
  2
block 72
340
0
102
{BLKREFS
331
238
102
}
 70
     0
280
     1
281
     0
  0
BLOCK_RECORD
  5
23C
330
1
100
AcDbSymbolTableRecord
100
AcDbBlockTableRecord
  2
block 73
340
0
102
{BLKREFS
331
23D
102
}
 70
     0
280
     1
281
     0
  0
BLOCK_RECORD
  5
244
330
1
100
AcDbSymbolTableRecord
100
AcDbBlockTableRecord
  2
block 74
340
0
102
{BLKREFS
331
245
102
}
 70
     0
280
     1
281
     0
  0
BLOCK_RECORD
  5
24C
330
1
100
AcDbSymbolTableRecord
100
AcDbBlockTableRecord
  2
block 75
340
0
102
{BLKREFS
331
24D
102
}
 70
     0
280
     1
281
     0
  0
BLOCK_RECORD
  5
251
330
1
100
AcDbSymbolTableRecord
100
AcDbBlockTableRecord
  2
block 76
340
0
102
{BLKREFS
331
252
102
}
 70
     0
280
     1
281
     0
  0
BLOCK_RECORD
  5
259
330
1
100
AcDbSymbolTableRecord
100
AcDbBlockTableRecord
  2
block 77
340
0
102
{BLKREFS
331
25A
102
}
 70
     0
280
     1
281
     0
  0
BLOCK_RECORD
  5
261
330
1
100
AcDbSymbolTableRecord
100
AcDbBlockTableRecord
  2
block 78
340
0
102
{BLKREFS
331
262
102
}
 70
     0
280
     1
281
     0
  0
BLOCK_RECORD
  5
269
330
1
100
AcDbSymbolTableRecord
100
AcDbBlockTableRecord
  2
block 79
340
0
102
{BLKREFS
331
26A
102
}
 70
     0
280
     1
281
     0
  0
BLOCK_RECORD
  5
271
330
1
100
AcDbSymbolTableRecord
100
AcDbBlockTableRecord
  2
block 80
340
0
102
{BLKREFS
331
272
102
}
 70
     0
280
     1
281
     0
  0
BLOCK_RECORD
  5
279
330
1
100
AcDbSymbolTableRecord
100
AcDbBlockTableRecord
  2
block 81
340
0
102
{BLKREFS
331
27A
102
}
 70
     0
280
     1
281
     0
  0
BLOCK_RECORD
  5
281
330
1
100
AcDbSymbolTableRecord
100
AcDbBlockTableRecord
  2
block 82
340
0
102
{BLKREFS
331
282
102
}
 70
     0
280
     1
281
     0
  0
BLOCK_RECORD
  5
289
330
1
100
AcDbSymbolTableRecord
100
AcDbBlockTableRecord
  2
block 83
340
0
102
{BLKREFS
331
28A
102
}
 70
     0
280
     1
281
     0
  0
BLOCK_RECORD
  5
291
330
1
100
AcDbSymbolTableRecord
100
AcDbBlockTableRecord
  2
block 84
340
0
102
{BLKREFS
331
292
102
}
 70
     0
280
     1
281
     0
  0
BLOCK_RECORD
  5
296
330
1
100
AcDbSymbolTableRecord
100
AcDbBlockTableRecord
  2
block 85
340
0
102
{BLKREFS
331
297
102
}
 70
     0
280
     1
281
     0
  0
BLOCK_RECORD
  5
29E
330
1
100
AcDbSymbolTableRecord
100
AcDbBlockTableRecord
  2
block 86
340
0
102
{BLKREFS
331
29F
102
}
 70
     0
280
     1
281
     0
  0
BLOCK_RECORD
  5
2A6
330
1
100
AcDbSymbolTableRecord
100
AcDbBlockTableRecord
  2
block 87
340
0
102
{BLKREFS
331
2A7
102
}
 70
     0
280
     1
281
     0
  0
BLOCK_RECORD
  5
2AE
330
1
100
AcDbSymbolTableRecord
100
AcDbBlockTableRecord
  2
block 88
340
0
102
{BLKREFS
331
2AF
102
}
 70
     0
280
     1
281
     0
  0
BLOCK_RECORD
  5
2B6
330
1
100
AcDbSymbolTableRecord
100
AcDbBlockTableRecord
  2
block 89
340
0
102
{BLKREFS
331
2B7
102
}
 70
     0
280
     1
281
     0
  0
BLOCK_RECORD
  5
2BE
330
1
100
AcDbSymbolTableRecord
100
AcDbBlockTableRecord
  2
block 90
340
0
102
{BLKREFS
331
2BF
102
}
 70
     0
280
     1
281
     0
  0
BLOCK_RECORD
  5
2C6
330
1
100
AcDbSymbolTableRecord
100
AcDbBlockTableRecord
  2
block 91
340
0
102
{BLKREFS
331
2C7
102
}
 70
     0
280
     1
281
     0
  0
BLOCK_RECORD
  5
2CE
330
1
100
AcDbSymbolTableRecord
100
AcDbBlockTableRecord
  2
block 92
340
0
102
{BLKREFS
331
2CF
102
}
 70
     0
280
     1
281
     0
  0
BLOCK_RECORD
  5
2D6
330
1
100
AcDbSymbolTableRecord
100
AcDbBlockTableRecord
  2
block 93
340
0
102
{BLKREFS
331
2D7
102
}
 70
     0
280
     1
281
     0
  0
BLOCK_RECORD
  5
2DE
330
1
100
AcDbSymbolTableRecord
100
AcDbBlockTableRecord
  2
block 94
340
0
102
{BLKREFS
331
2DF
102
}
 70
     0
280
     1
281
     0
  0
BLOCK_RECORD
  5
2E6
330
1
100
AcDbSymbolTableRecord
100
AcDbBlockTableRecord
  2
block 95
340
0
102
{BLKREFS
331
2E7
102
}
 70
     0
280
     1
281
     0
  0
BLOCK_RECORD
  5
2EE
330
1
100
AcDbSymbolTableRecord
100
AcDbBlockTableRecord
  2
block 96
340
0
102
{BLKREFS
331
2EF
102
}
 70
     0
280
     1
281
     0
  0
BLOCK_RECORD
  5
2F3
330
1
100
AcDbSymbolTableRecord
100
AcDbBlockTableRecord
  2
block 97
340
0
102
{BLKREFS
331
2F4
102
}
 70
     0
280
     1
281
     0
  0
BLOCK_RECORD
  5
2F8
330
1
100
AcDbSymbolTableRecord
100
AcDbBlockTableRecord
  2
block 98
340
0
102
{BLKREFS
331
2F9
102
}
 70
     0
280
     1
281
     0
  0
BLOCK_RECORD
  5
2FD
330
1
100
AcDbSymbolTableRecord
100
AcDbBlockTableRecord
  2
block 99
340
0
102
{BLKREFS
331
2FE
102
}
 70
     0
280
     1
281
     0
  0
BLOCK_RECORD
  5
305
330
1
100
AcDbSymbolTableRecord
100
AcDbBlockTableRecord
  2
block 100
340
0
102
{BLKREFS
331
306
102
}
 70
     0
280
     1
281
     0
  0
BLOCK_RECORD
  5
30A
330
1
100
AcDbSymbolTableRecord
100
AcDbBlockTableRecord
  2
block 101
340
0
102
{BLKREFS
331
30B
102
}
 70
     0
280
     1
281
     0
  0
BLOCK_RECORD
  5
312
330
1
100
AcDbSymbolTableRecord
100
AcDbBlockTableRecord
  2
block 102
340
0
102
{BLKREFS
331
313
102
}
 70
     0
280
     1
281
     0
  0
BLOCK_RECORD
  5
31A
330
1
100
AcDbSymbolTableRecord
100
AcDbBlockTableRecord
  2
block 103
340
0
102
{BLKREFS
331
31B
102
}
 70
     0
280
     1
281
     0
  0
BLOCK_RECORD
  5
322
330
1
100
AcDbSymbolTableRecord
100
AcDbBlockTableRecord
  2
block 104
340
0
102
{BLKREFS
331
323
102
}
 70
     0
280
     1
281
     0
  0
BLOCK_RECORD
  5
32A
330
1
100
AcDbSymbolTableRecord
100
AcDbBlockTableRecord
  2
block 105
340
0
102
{BLKREFS
331
32B
102
}
 70
     0
280
     1
281
     0
  0
BLOCK_RECORD
  5
332
330
1
100
AcDbSymbolTableRecord
100
AcDbBlockTableRecord
  2
block 106
340
0
102
{BLKREFS
331
333
102
}
 70
     0
280
     1
281
     0
  0
BLOCK_RECORD
  5
33A
330
1
100
AcDbSymbolTableRecord
100
AcDbBlockTableRecord
  2
block 107
340
0
102
{BLKREFS
331
33B
102
}
 70
     0
280
     1
281
     0
  0
BLOCK_RECORD
  5
342
330
1
100
AcDbSymbolTableRecord
100
AcDbBlockTableRecord
  2
block 108
340
0
102
{BLKREFS
331
343
102
}
 70
     0
280
     1
281
     0
  0
BLOCK_RECORD
  5
34A
330
1
100
AcDbSymbolTableRecord
100
AcDbBlockTableRecord
  2
block 109
340
0
102
{BLKREFS
331
34B
102
}
 70
     0
280
     1
281
     0
  0
BLOCK_RECORD
  5
352
330
1
100
AcDbSymbolTableRecord
100
AcDbBlockTableRecord
  2
block 110
340
0
102
{BLKREFS
331
353
102
}
 70
     0
280
     1
281
     0
  0
BLOCK_RECORD
  5
35A
330
1
100
AcDbSymbolTableRecord
100
AcDbBlockTableRecord
  2
block 111
340
0
102
{BLKREFS
331
35B
102
}
 70
     0
280
     1
281
     0
  0
BLOCK_RECORD
  5
362
330
1
100
AcDbSymbolTableRecord
100
AcDbBlockTableRecord
  2
block 112
340
0
102
{BLKREFS
331
363
102
}
 70
     0
280
     1
281
     0
  0
BLOCK_RECORD
  5
367
330
1
100
AcDbSymbolTableRecord
100
AcDbBlockTableRecord
  2
block 113
340
0
102
{BLKREFS
331
368
102
}
 70
     0
280
     1
281
     0
  0
BLOCK_RECORD
  5
36F
330
1
100
AcDbSymbolTableRecord
100
AcDbBlockTableRecord
  2
block 114
340
0
102
{BLKREFS
331
370
102
}
 70
     0
280
     1
281
     0
  0
BLOCK_RECORD
  5
377
330
1
100
AcDbSymbolTableRecord
100
AcDbBlockTableRecord
  2
block 115
340
0
102
{BLKREFS
331
378
102
}
 70
     0
280
     1
281
     0
  0
BLOCK_RECORD
  5
37F
330
1
100
AcDbSymbolTableRecord
100
AcDbBlockTableRecord
  2
block 116
340
0
102
{BLKREFS
331
380
102
}
 70
     0
280
     1
281
     0
  0
BLOCK_RECORD
  5
387
330
1
100
AcDbSymbolTableRecord
100
AcDbBlockTableRecord
  2
block 117
340
0
102
{BLKREFS
331
388
102
}
 70
     0
280
     1
281
     0
  0
BLOCK_RECORD
  5
38F
330
1
100
AcDbSymbolTableRecord
100
AcDbBlockTableRecord
  2
block 118
340
0
102
{BLKREFS
331
390
102
}
 70
     0
280
     1
281
     0
  0
BLOCK_RECORD
  5
397
330
1
100
AcDbSymbolTableRecord
100
AcDbBlockTableRecord
  2
block 119
340
0
102
{BLKREFS
331
398
102
}
 70
     0
280
     1
281
     0
  0
BLOCK_RECORD
  5
39C
330
1
100
AcDbSymbolTableRecord
100
AcDbBlockTableRecord
  2
block 120
340
0
102
{BLKREFS
331
39D
102
}
 70
     0
280
     1
281
     0
  0
BLOCK_RECORD
  5
3A4
330
1
100
AcDbSymbolTableRecord
100
AcDbBlockTableRecord
  2
block 121
340
0
102
{BLKREFS
331
3A5
102
}
 70
     0
280
     1
281
     0
  0
BLOCK_RECORD
  5
3AC
330
1
100
AcDbSymbolTableRecord
100
AcDbBlockTableRecord
  2
block 122
340
0
102
{BLKREFS
331
3AD
102
}
 70
     0
280
     1
281
     0
  0
BLOCK_RECORD
  5
3B4
330
1
100
AcDbSymbolTableRecord
100
AcDbBlockTableRecord
  2
block 123
340
0
102
{BLKREFS
331
3B5
102
}
 70
     0
280
     1
281
     0
  0
BLOCK_RECORD
  5
3BC
330
1
100
AcDbSymbolTableRecord
100
AcDbBlockTableRecord
  2
block 124
340
0
102
{BLKREFS
331
3BD
102
}
 70
     0
280
     1
281
     0
  0
BLOCK_RECORD
  5
3C1
330
1
100
AcDbSymbolTableRecord
100
AcDbBlockTableRecord
  2
block 125
340
0
102
{BLKREFS
331
3C2
102
}
 70
     0
280
     1
281
     0
  0
ENDTAB
  0
ENDSEC
  0
SECTION
  2
BLOCKS
  0
BLOCK
  5
20
330
1F
100
AcDbEntity
  8
0
100
AcDbBlockBegin
  2
*Model_Space
 70
     0
 10
0.0
 20
0.0
 30
0.0
  3
*Model_Space
  1

  0
ENDBLK
  5
21
330
1F
100
AcDbEntity
  8
0
100
AcDbBlockEnd
  0
BLOCK
  5
1C
330
1B
100
AcDbEntity
 67
     1
  8
0
100
AcDbBlockBegin
  2
*Paper_Space
 70
     0
 10
0.0
 20
0.0
 30
0.0
  3
*Paper_Space
  1

  0
ENDBLK
  5
1D
330
1B
100
AcDbEntity
 67
     1
  8
0
100
AcDbBlockEnd
  0
BLOCK
  5
24
330
23
100
AcDbEntity
  8
0
100
AcDbBlockBegin
  2
*Paper_Space0
 70
     0
 10
0.0
 20
0.0
 30
0.0
  3
*Paper_Space0
  1

  0
ENDBLK
  5
25
330
23
100
AcDbEntity
  8
0
100
AcDbBlockEnd
  0
BLOCK
  5
42
330
40
100
AcDbEntity
  8
0
100
AcDbBlockBegin
  2
block 2
 70
     0
 10
0.0
 20
0.0
 30
0.0
  3
block 2
  1

  0
SPLINE
  5
44
330
40
100
AcDbEntity
  8
0
 62
     7
420
 16777215
370
    25
100
AcDbSpline
210
0.0
220
0.0
230
1.0
 70
    11
 71
     3
 72
    20
 73
    16
 74
     0
 42
0.0000000001
 43
0.0000000001
 12
1.0
 22
0.0
 32
0.0
 13
1.0
 23
0.0
 33
0.0
 40
0.0
 40
0.0
 40
0.0
 40
0.0
 40
1.0
 40
1.0
 40
1.0
 40
2.0
 40
2.0
 40
2.0
 40
3.0
 40
3.0
 40
3.0
 40
4.0
 40
4.0
 40
4.0
 40
5.0
 40
5.0
 40
5.0
 40
5.0
 10
85.88870299528638
 20
192.7974475891518
 30
0.0
 10
85.88870299528638
 20
195.0065865884749
 30
0.0
 10
87.67956399596302
 20
196.7974475891516
 30
0.0
 10
89.88870299528621
 20
196.7974475891516
 30
0.0
 10
92.09784199460938
 20
196.7974475891516
 30
0.0
 10
93.88870299528635
 20
195.0065865884749
 30
0.0
 10
93.88870299528635
 20
192.7974475891518
 30
0.0
 10
93.88870299528635
 20
190.5883085898286
 30
0.0
 10
92.09784199460938
 20
188.7974475891519
 30
0.0
 10
89.88870299528621
 20
188.7974475891519
 30
0.0
 10
87.67956399596302
 20
188.7974475891519
 30
0.0
 10
85.88870299528638
 20
190.5883085898286
 30
0.0
 10
85.88870299528638
 20
192.7974475891518
 30
0.0
 10
85.88870299528638
 20
192.7974475891518
 30
0.0
 10
85.88870299528638
 20
192.7974475891518
 30
0.0
 10
85.88870299528638
 20
192.7974475891518
 30
0.0
  0
ENDBLK
  5
43
330
40
100
AcDbEntity
  8
0
100
AcDbBlockEnd
  0
BLOCK
  5
47
330
45
100
AcDbEntity
  8
0
100
AcDbBlockBegin
  2
block 3
 70
     0
 10
0.0
 20
0.0
 30
0.0
  3
block 3
  1

  0
SPLINE
  5
49
330
45
100
AcDbEntity
  8
0
 62
     7
420
 16777215
370
    25
100
AcDbSpline
210
0.0
220
0.0
230
1.0
 70
    11
 71
     3
 72
    20
 73
    16
 74
     0
 42
0.0000000001
 43
0.0000000001
 12
1.0
 22
0.0
 32
0.0
 13
1.0
 23
0.0
 33
0.0
 40
0.0
 40
0.0
 40
0.0
 40
0.0
 40
1.0
 40
1.0
 40
1.0
 40
2.0
 40
2.0
 40
2.0
 40
3.0
 40
3.0
 40
3.0
 40
4.0
 40
4.0
 40
4.0
 40
5.0
 40
5.0
 40
5.0
 40
5.0
 10
187.8887029952813
 20
192.797425198927
 30
0.0
 10
187.8887029952813
 20
195.0065641982501
 30
0.0
 10
189.6795639959583
 20
196.7974251989268
 30
0.0
 10
191.8887029952814
 20
196.7974251989268
 30
0.0
 10
194.0978419946046
 20
196.7974251989268
 30
0.0
 10
195.8887029952816
 20
195.0065641982501
 30
0.0
 10
195.8887029952816
 20
192.797425198927
 30
0.0
 10
195.8887029952816
 20
190.5882861996038
 30
0.0
 10
194.0978419946046
 20
188.7974251989268
 30
0.0
 10
191.8887029952814
 20
188.7974251989268
 30
0.0
 10
189.6795639959583
 20
188.7974251989268
 30
0.0
 10
187.8887029952813
 20
190.5882861996038
 30
0.0
 10
187.8887029952813
 20
192.797425198927
 30
0.0
 10
187.8887029952813
 20
192.797425198927
 30
0.0
 10
187.8887029952813
 20
192.797425198927
 30
0.0
 10
187.8887029952813
 20
192.797425198927
 30
0.0
  0
ENDBLK
  5
48
330
45
100
AcDbEntity
  8
0
100
AcDbBlockEnd
  0
BLOCK
  5
4C
330
4A
100
AcDbEntity
  8
0
100
AcDbBlockBegin
  2
block 4
 70
     0
 10
0.0
 20
0.0
 30
0.0
  3
block 4
  1

  0
SPLINE
  5
4E
330
4A
100
AcDbEntity
  8
0
 62
     7
420
 16777215
370
    25
100
AcDbSpline
210
0.0
220
0.0
230
1.0
 70
    11
 71
     3
 72
    20
 73
    16
 74
     0
 42
0.0000000001
 43
0.0000000001
 12
1.0
 22
0.0
 32
0.0
 13
1.0
 23
0.0
 33
0.0
 40
0.0
 40
0.0
 40
0.0
 40
0.0
 40
1.0
 40
1.0
 40
1.0
 40
2.0
 40
2.0
 40
2.0
 40
3.0
 40
3.0
 40
3.0
 40
4.0
 40
4.0
 40
4.0
 40
5.0
 40
5.0
 40
5.0
 40
5.0
 10
85.88870299528638
 20
84.69391768557799
 30
0.0
 10
85.88870299528638
 20
86.90305668490117
 30
0.0
 10
87.67956399596302
 20
88.69391768557813
 30
0.0
 10
89.88870299528621
 20
88.69391768557813
 30
0.0
 10
92.09784199460938
 20
88.69391768557813
 30
0.0
 10
93.88870299528635
 20
86.90305668490117
 30
0.0
 10
93.88870299528635
 20
84.69391768557799
 30
0.0
 10
93.88870299528635
 20
82.48477868625481
 30
0.0
 10
92.09784199460938
 20
80.69391768557784
 30
0.0
 10
89.88870299528621
 20
80.69391768557784
 30
0.0
 10
87.67956399596302
 20
80.69391768557784
 30
0.0
 10
85.88870299528638
 20
82.48477868625481
 30
0.0
 10
85.88870299528638
 20
84.69391768557799
 30
0.0
 10
85.88870299528638
 20
84.69391768557799
 30
0.0
 10
85.88870299528638
 20
84.69391768557799
 30
0.0
 10
85.88870299528638
 20
84.69391768557799
 30
0.0
  0
ENDBLK
  5
4D
330
4A
100
AcDbEntity
  8
0
100
AcDbBlockEnd
  0
BLOCK
  5
51
330
4F
100
AcDbEntity
  8
0
100
AcDbBlockBegin
  2
block 5
 70
     0
 10
0.0
 20
0.0
 30
0.0
  3
block 5
  1

  0
SPLINE
  5
53
330
4F
100
AcDbEntity
  8
0
 62
     7
420
 16777215
370
    25
100
AcDbSpline
210
0.0
220
0.0
230
1.0
 70
    11
 71
     3
 72
    20
 73
    16
 74
     0
 42
0.0000000001
 43
0.0000000001
 12
1.0
 22
0.0
 32
0.0
 13
1.0
 23
0.0
 33
0.0
 40
0.0
 40
0.0
 40
0.0
 40
0.0
 40
1.0
 40
1.0
 40
1.0
 40
2.0
 40
2.0
 40
2.0
 40
3.0
 40
3.0
 40
3.0
 40
4.0
 40
4.0
 40
4.0
 40
5.0
 40
5.0
 40
5.0
 40
5.0
 10
187.8887029952813
 20
84.69394010531806
 30
0.0
 10
187.8887029952813
 20
86.90307910464125
 30
0.0
 10
189.6795639959583
 20
88.6939401053182
 30
0.0
 10
191.8887029952814
 20
88.6939401053182
 30
0.0
 10
194.0978419946046
 20
88.6939401053182
 30
0.0
 10
195.8887029952816
 20
86.90307910464125
 30
0.0
 10
195.8887029952816
 20
84.69394010531806
 30
0.0
 10
195.8887029952816
 20
82.48480110599489
 30
0.0
 10
194.0978419946046
 20
80.69394010531792
 30
0.0
 10
191.8887029952814
 20
80.69394010531792
 30
0.0
 10
189.6795639959583
 20
80.69394010531792
 30
0.0
 10
187.8887029952813
 20
82.48480110599489
 30
0.0
 10
187.8887029952813
 20
84.69394010531806
 30
0.0
 10
187.8887029952813
 20
84.69394010531806
 30
0.0
 10
187.8887029952813
 20
84.69394010531806
 30
0.0
 10
187.8887029952813
 20
84.69394010531806
 30
0.0
  0
ENDBLK
  5
52
330
4F
100
AcDbEntity
  8
0
100
AcDbBlockEnd
  0
BLOCK
  5
56
330
54
100
AcDbEntity
  8
0
100
AcDbBlockBegin
  2
block 6
 70
     0
 10
0.0
 20
0.0
 30
0.0
  3
block 6
  1

  0
SPLINE
  5
58
330
54
100
AcDbEntity
  8
0
 62
     7
420
 16777215
370
    25
100
AcDbSpline
210
0.0
220
0.0
230
1.0
 70
    11
 71
     3
 72
    20
 73
    16
 74
     0
 42
0.0000000001
 43
0.0000000001
 12
1.0
 22
0.0
 32
0.0
 13
1.0
 23
0.0
 33
0.0
 40
0.0
 40
0.0
 40
0.0
 40
0.0
 40
1.0
 40
1.0
 40
1.0
 40
2.0
 40
2.0
 40
2.0
 40
3.0
 40
3.0
 40
3.0
 40
4.0
 40
4.0
 40
4.0
 40
5.0
 40
5.0
 40
5.0
 40
5.0
 10
-8.612202812669084
 20
138.745682637365
 30
0.0
 10
-8.612202812669084
 20
145.3730996353343
 30
0.0
 10
-3.23961981063852
 20
150.7456826373648
 30
0.0
 10
3.38779718733102
 20
150.7456826373648
 30
0.0
 10
10.01521418530056
 20
150.7456826373648
 30
0.0
 10
15.3877971873308
 20
145.3730996353343
 30
0.0
 10
15.3877971873308
 20
138.745682637365
 30
0.0
 10
15.3877971873308
 20
132.1182656393955
 30
0.0
 10
10.01521418530056
 20
126.7456826373646
 30
0.0
 10
3.38779718733102
 20
126.7456826373646
 30
0.0
 10
-3.23961981063852
 20
126.7456826373646
 30
0.0
 10
-8.612202812669084
 20
132.1182656393955
 30
0.0
 10
-8.612202812669084
 20
138.745682637365
 30
0.0
 10
-8.612202812669084
 20
138.745682637365
 30
0.0
 10
-8.612202812669084
 20
138.745682637365
 30
0.0
 10
-8.612202812669084
 20
138.745682637365
 30
0.0
  0
ENDBLK
  5
57
330
54
100
AcDbEntity
  8
0
100
AcDbBlockEnd
  0
BLOCK
  5
5B
330
59
100
AcDbEntity
  8
0
100
AcDbBlockBegin
  2
block 7
 70
     0
 10
0.0
 20
0.0
 30
0.0
  3
block 7
  1

  0
SPLINE
  5
5D
330
59
100
AcDbEntity
  8
0
 62
     7
420
 16777215
370
    25
100
AcDbSpline
210
0.0
220
0.0
230
1.0
 70
    11
 71
     3
 72
    20
 73
    16
 74
     0
 42
0.0000000001
 43
0.0000000001
 12
1.0
 22
0.0
 32
0.0
 13
1.0
 23
0.0
 33
0.0
 40
0.0
 40
0.0
 40
0.0
 40
0.0
 40
1.0
 40
1.0
 40
1.0
 40
2.0
 40
2.0
 40
2.0
 40
3.0
 40
3.0
 40
3.0
 40
4.0
 40
4.0
 40
4.0
 40
5.0
 40
5.0
 40
5.0
 40
5.0
 10
-13.61220281266926
 20
154.245682637365
 30
0.0
 10
-13.61220281266926
 20
155.074109762111
 30
0.0
 10
-12.94062993741532
 20
155.745682637365
 30
0.0
 10
-12.11220281266921
 20
155.745682637365
 30
0.0
 10
-11.28377568792277
 20
155.745682637365
 30
0.0
 10
-10.61220281266915
 20
155.074109762111
 30
0.0
 10
-10.61220281266915
 20
154.245682637365
 30
0.0
 10
-10.61220281266915
 20
153.4172555126185
 30
0.0
 10
-11.28377568792277
 20
152.7456826373649
 30
0.0
 10
-12.11220281266921
 20
152.7456826373649
 30
0.0
 10
-12.94062993741532
 20
152.7456826373649
 30
0.0
 10
-13.61220281266926
 20
153.4172555126185
 30
0.0
 10
-13.61220281266926
 20
154.245682637365
 30
0.0
 10
-13.61220281266926
 20
154.245682637365
 30
0.0
 10
-13.61220281266926
 20
154.245682637365
 30
0.0
 10
-13.61220281266926
 20
154.245682637365
 30
0.0
  0
ENDBLK
  5
5C
330
59
100
AcDbEntity
  8
0
100
AcDbBlockEnd
  0
BLOCK
  5
60
330
5E
100
AcDbEntity
  8
0
100
AcDbBlockBegin
  2
block 8
 70
     0
 10
0.0
 20
0.0
 30
0.0
  3
block 8
  1

  0
SPLINE
  5
62
330
5E
100
AcDbEntity
  8
0
 62
     7
420
 16777215
370
    25
100
AcDbSpline
210
0.0
220
0.0
230
1.0
 70
    11
 71
     3
 72
    20
 73
    16
 74
     0
 42
0.0000000001
 43
0.0000000001
 12
1.0
 22
0.0
 32
0.0
 13
1.0
 23
0.0
 33
0.0
 40
0.0
 40
0.0
 40
0.0
 40
0.0
 40
1.0
 40
1.0
 40
1.0
 40
2.0
 40
2.0
 40
2.0
 40
3.0
 40
3.0
 40
3.0
 40
4.0
 40
4.0
 40
4.0
 40
5.0
 40
5.0
 40
5.0
 40
5.0
 10
17.38779718733087
 20
154.245682637365
 30
0.0
 10
17.38779718733087
 20
155.074109762111
 30
0.0
 10
18.05937006258481
 20
155.745682637365
 30
0.0
 10
18.88779718733092
 20
155.745682637365
 30
0.0
 10
19.71622431207704
 20
155.745682637365
 30
0.0
 10
20.38779718733098
 20
155.074109762111
 30
0.0
 10
20.38779718733098
 20
154.245682637365
 30
0.0
 10
20.38779718733098
 20
153.4172555126185
 30
0.0
 10
19.71622431207704
 20
152.7456826373649
 30
0.0
 10
18.88779718733092
 20
152.7456826373649
 30
0.0
 10
18.05937006258481
 20
152.7456826373649
 30
0.0
 10
17.38779718733087
 20
153.4172555126185
 30
0.0
 10
17.38779718733087
 20
154.245682637365
 30
0.0
 10
17.38779718733087
 20
154.245682637365
 30
0.0
 10
17.38779718733087
 20
154.245682637365
 30
0.0
 10
17.38779718733087
 20
154.245682637365
 30
0.0
  0
ENDBLK
  5
61
330
5E
100
AcDbEntity
  8
0
100
AcDbBlockEnd
  0
BLOCK
  5
65
330
63
100
AcDbEntity
  8
0
100
AcDbBlockBegin
  2
block 9
 70
     0
 10
0.0
 20
0.0
 30
0.0
  3
block 9
  1

  0
SPLINE
  5
67
330
63
100
AcDbEntity
  8
0
 62
     7
420
 16777215
370
    25
100
AcDbSpline
210
0.0
220
0.0
230
1.0
 70
    11
 71
     3
 72
    20
 73
    16
 74
     0
 42
0.0000000001
 43
0.0000000001
 12
1.0
 22
0.0
 32
0.0
 13
1.0
 23
0.0
 33
0.0
 40
0.0
 40
0.0
 40
0.0
 40
0.0
 40
1.0
 40
1.0
 40
1.0
 40
2.0
 40
2.0
 40
2.0
 40
3.0
 40
3.0
 40
3.0
 40
4.0
 40
4.0
 40
4.0
 40
5.0
 40
5.0
 40
5.0
 40
5.0
 10
-13.61220281266926
 20
123.2456826373648
 30
0.0
 10
-13.61220281266926
 20
124.0741097621109
 30
0.0
 10
-12.94062993741532
 20
124.7456826373645
 30
0.0
 10
-12.11220281266921
 20
124.7456826373645
 30
0.0
 10
-11.28377568792277
 20
124.7456826373645
 30
0.0
 10
-10.61220281266915
 20
124.0741097621109
 30
0.0
 10
-10.61220281266915
 20
123.2456826373648
 30
0.0
 10
-10.61220281266915
 20
122.4172555126187
 30
0.0
 10
-11.28377568792277
 20
121.7456826373651
 30
0.0
 10
-12.11220281266921
 20
121.7456826373651
 30
0.0
 10
-12.94062993741532
 20
121.7456826373651
 30
0.0
 10
-13.61220281266926
 20
122.4172555126187
 30
0.0
 10
-13.61220281266926
 20
123.2456826373648
 30
0.0
 10
-13.61220281266926
 20
123.2456826373648
 30
0.0
 10
-13.61220281266926
 20
123.2456826373648
 30
0.0
 10
-13.61220281266926
 20
123.2456826373648
 30
0.0
  0
ENDBLK
  5
66
330
63
100
AcDbEntity
  8
0
100
AcDbBlockEnd
  0
BLOCK
  5
6A
330
68
100
AcDbEntity
  8
0
100
AcDbBlockBegin
  2
block 10
 70
     0
 10
0.0
 20
0.0
 30
0.0
  3
block 10
  1

  0
SPLINE
  5
6C
330
68
100
AcDbEntity
  8
0
 62
     7
420
 16777215
370
    25
100
AcDbSpline
210
0.0
220
0.0
230
1.0
 70
    11
 71
     3
 72
    20
 73
    16
 74
     0
 42
0.0000000001
 43
0.0000000001
 12
1.0
 22
0.0
 32
0.0
 13
1.0
 23
0.0
 33
0.0
 40
0.0
 40
0.0
 40
0.0
 40
0.0
 40
1.0
 40
1.0
 40
1.0
 40
2.0
 40
2.0
 40
2.0
 40
3.0
 40
3.0
 40
3.0
 40
4.0
 40
4.0
 40
4.0
 40
5.0
 40
5.0
 40
5.0
 40
5.0
 10
17.38779718733087
 20
123.2456826373648
 30
0.0
 10
17.38779718733087
 20
124.0741097621109
 30
0.0
 10
18.05937006258481
 20
124.7456826373645
 30
0.0
 10
18.88779718733092
 20
124.7456826373645
 30
0.0
 10
19.71622431207704
 20
124.7456826373645
 30
0.0
 10
20.38779718733098
 20
124.0741097621109
 30
0.0
 10
20.38779718733098
 20
123.2456826373648
 30
0.0
 10
20.38779718733098
 20
122.4172555126187
 30
0.0
 10
19.71622431207704
 20
121.7456826373651
 30
0.0
 10
18.88779718733092
 20
121.7456826373651
 30
0.0
 10
18.05937006258481
 20
121.7456826373651
 30
0.0
 10
17.38779718733087
 20
122.4172555126187
 30
0.0
 10
17.38779718733087
 20
123.2456826373648
 30
0.0
 10
17.38779718733087
 20
123.2456826373648
 30
0.0
 10
17.38779718733087
 20
123.2456826373648
 30
0.0
 10
17.38779718733087
 20
123.2456826373648
 30
0.0
  0
ENDBLK
  5
6B
330
68
100
AcDbEntity
  8
0
100
AcDbBlockEnd
  0
BLOCK
  5
6F
330
6D
100
AcDbEntity
  8
0
100
AcDbBlockBegin
  2
block 11
 70
     0
 10
0.0
 20
0.0
 30
0.0
  3
block 11
  1

  0
POLYLINE
  5
71
330
6D
100
AcDbEntity
  8
0
 62
     7
420
 16777215
370
    25
100
AcDb2dPolyline
 66
     1
 10
0.0
 20
0.0
 30
0.0
  0
VERTEX
  5
72
330
71
100
AcDbEntity
  8
0
 62
     7
420
 16777215
370
    25
100
AcDbVertex
100
AcDb2dVertex
 10
-17.8502131624776
 20
207.01376731368
 30
0.0
  0
VERTEX
  5
73
330
71
100
AcDbEntity
  8
0
 62
     7
420
 16777215
370
    25
100
AcDbVertex
100
AcDb2dVertex
 10
-47.85021316247769
 20
207.01376731368
 30
0.0
  0
VERTEX
  5
74
330
71
100
AcDbEntity
  8
0
 62
     7
420
 16777215
370
    25
100
AcDbVertex
100
AcDb2dVertex
 10
-47.85021316247769
 20
193.0137673136798
 30
0.0
  0
VERTEX
  5
75
330
71
100
AcDbEntity
  8
0
 62
     7
420
 16777215
370
    25
100
AcDbVertex
100
AcDb2dVertex
 10
-17.8502131624776
 20
193.0137673136798
 30
0.0
  0
VERTEX
  5
76
330
71
100
AcDbEntity
  8
0
 62
     7
420
 16777215
370
    25
100
AcDbVertex
100
AcDb2dVertex
 10
-17.8502131624776
 20
207.01376731368
 30
0.0
  0
SEQEND
  5
77
330
71
100
AcDbEntity
  8
0
 62
     7
420
 16777215
370
    25
  0
ENDBLK
  5
70
330
6D
100
AcDbEntity
  8
0
100
AcDbBlockEnd
  0
BLOCK
  5
7A
330
78
100
AcDbEntity
  8
0
100
AcDbBlockBegin
  2
block 12
 70
     0
 10
0.0
 20
0.0
 30
0.0
  3
block 12
  1

  0
SPLINE
  5
7C
330
78
100
AcDbEntity
  8
0
 62
     7
420
 16777215
370
    25
100
AcDbSpline
210
0.0
220
0.0
230
1.0
 70
    11
 71
     3
 72
    20
 73
    16
 74
     0
 42
0.0000000001
 43
0.0000000001
 12
1.0
 22
0.0
 32
0.0
 13
1.0
 23
0.0
 33
0.0
 40
0.0
 40
0.0
 40
0.0
 40
0.0
 40
1.0
 40
1.0
 40
1.0
 40
2.0
 40
2.0
 40
2.0
 40
3.0
 40
3.0
 40
3.0
 40
4.0
 40
4.0
 40
4.0
 40
5.0
 40
5.0
 40
5.0
 40
5.0
 10
-47.06894635166741
 20
219.3770978387611
 30
0.0
 10
-47.06894635166741
 20
223.7953758374075
 30
0.0
 10
-43.4872243503138
 20
227.3770978387611
 30
0.0
 10
-39.06894635166744
 20
227.3770978387611
 30
0.0
 10
-34.65066835302109
 20
227.3770978387611
 30
0.0
 10
-31.06894635166748
 20
223.7953758374075
 30
0.0
 10
-31.06894635166748
 20
219.3770978387611
 30
0.0
 10
-31.06894635166748
 20
214.9588198401148
 30
0.0
 10
-34.65066835302109
 20
211.3770978387608
 30
0.0
 10
-39.06894635166744
 20
211.3770978387608
 30
0.0
 10
-43.4872243503138
 20
211.3770978387608
 30
0.0
 10
-47.06894635166741
 20
214.9588198401148
 30
0.0
 10
-47.06894635166741
 20
219.3770978387611
 30
0.0
 10
-47.06894635166741
 20
219.3770978387611
 30
0.0
 10
-47.06894635166741
 20
219.3770978387611
 30
0.0
 10
-47.06894635166741
 20
219.3770978387611
 30
0.0
  0
ENDBLK
  5
7B
330
78
100
AcDbEntity
  8
0
100
AcDbBlockEnd
  0
BLOCK
  5
7F
330
7D
100
AcDbEntity
  8
0
100
AcDbBlockBegin
  2
block 13
 70
     0
 10
0.0
 20
0.0
 30
0.0
  3
block 13
  1

  0
POLYLINE
  5
81
330
7D
100
AcDbEntity
  8
0
 62
     7
420
 16777215
370
    25
100
AcDb2dPolyline
 66
     1
 10
0.0
 20
0.0
 30
0.0
  0
VERTEX
  5
82
330
81
100
AcDbEntity
  8
0
 62
     7
420
 16777215
370
    25
100
AcDbVertex
100
AcDb2dVertex
 10
273.3576798456551
 20
249.8770950704751
 30
0.0
  0
VERTEX
  5
83
330
81
100
AcDbEntity
  8
0
 62
     7
420
 16777215
370
    25
100
AcDbVertex
100
AcDb2dVertex
 10
-57.1049021219408
 20
249.8770950704751
 30
0.0
  0
VERTEX
  5
84
330
81
100
AcDbEntity
  8
0
 62
     7
420
 16777215
370
    25
100
AcDbVertex
100
AcDb2dVertex
 10
-57.1049021219408
 20
29.87709507047471
 30
0.0
  0
VERTEX
  5
85
330
81
100
AcDbEntity
  8
0
 62
     7
420
 16777215
370
    25
100
AcDbVertex
100
AcDb2dVertex
 10
273.3576798456551
 20
29.87709507047471
 30
0.0
  0
VERTEX
  5
86
330
81
100
AcDbEntity
  8
0
 62
     7
420
 16777215
370
    25
100
AcDbVertex
100
AcDb2dVertex
 10
273.3576798456551
 20
249.8770950704751
 30
0.0
  0
SEQEND
  5
87
330
81
100
AcDbEntity
  8
0
 62
     7
420
 16777215
370
    25
  0
ENDBLK
  5
80
330
7D
100
AcDbEntity
  8
0
100
AcDbBlockEnd
  0
BLOCK
  5
8A
330
88
100
AcDbEntity
  8
0
100
AcDbBlockBegin
  2
block 14
 70
     0
 10
0.0
 20
0.0
 30
0.0
  3
block 14
  1

  0
POLYLINE
  5
8C
330
88
100
AcDbEntity
  8
0
 62
     7
420
 16777215
370
    25
100
AcDb2dPolyline
 66
     1
 10
0.0
 20
0.0
 30
0.0
  0
VERTEX
  5
8D
330
8C
100
AcDbEntity
  8
0
 62
     7
420
 16777215
370
    25
100
AcDbVertex
100
AcDb2dVertex
 10
-46.61220280266922
 20
48.87568263736485
 30
0.0
  0
VERTEX
  5
8E
330
8C
100
AcDbEntity
  8
0
 62
     7
420
 16777215
370
    25
100
AcDbVertex
100
AcDb2dVertex
 10
-46.61220280266922
 20
43.17568258736507
 30
0.0
  0
SEQEND
  5
8F
330
8C
100
AcDbEntity
  8
0
 62
     7
420
 16777215
370
    25
  0
ENDBLK
  5
8B
330
88
100
AcDbEntity
  8
0
100
AcDbBlockEnd
  0
BLOCK
  5
92
330
90
100
AcDbEntity
  8
0
100
AcDbBlockBegin
  2
block 15
 70
     0
 10
0.0
 20
0.0
 30
0.0
  3
block 15
  1

  0
POLYLINE
  5
94
330
90
100
AcDbEntity
  8
0
 62
     7
420
 16777215
370
    25
100
AcDb2dPolyline
 66
     1
 10
0.0
 20
0.0
 30
0.0
  0
VERTEX
  5
95
330
94
100
AcDbEntity
  8
0
 62
     7
420
 16777215
370
    25
100
AcDbVertex
100
AcDb2dVertex
 10
-26.61220280266916
 20
48.87568263736485
 30
0.0
  0
VERTEX
  5
96
330
94
100
AcDbEntity
  8
0
 62
     7
420
 16777215
370
    25
100
AcDbVertex
100
AcDb2dVertex
 10
-26.61220280266916
 20
43.17568258736507
 30
0.0
  0
SEQEND
  5
97
330
94
100
AcDbEntity
  8
0
 62
     7
420
 16777215
370
    25
  0
ENDBLK
  5
93
330
90
100
AcDbEntity
  8
0
100
AcDbBlockEnd
  0
BLOCK
  5
9A
330
98
100
AcDbEntity
  8
0
100
AcDbBlockBegin
  2
block 16
 70
     0
 10
0.0
 20
0.0
 30
0.0
  3
block 16
  1

  0
POLYLINE
  5
9C
330
98
100
AcDbEntity
  8
0
 62
     7
420
 16777215
370
    25
100
AcDb2dPolyline
 66
     1
 10
0.0
 20
0.0
 30
0.0
  0
VERTEX
  5
9D
330
9C
100
AcDbEntity
  8
0
 62
     7
420
 16777215
370
    25
100
AcDbVertex
100
AcDb2dVertex
 10
-29.55154880266911
 20
45.87568563736487
 30
0.0
  0
VERTEX
  5
9E
330
9C
100
AcDbEntity
  8
0
 62
     7
420
 16777215
370
    25
100
AcDbVertex
100
AcDb2dVertex
 10
-32.61220280266905
 20
42.81502273736469
 30
0.0
  0
SEQEND
  5
9F
330
9C
100
AcDbEntity
  8
0
 62
     7
420
 16777215
370
    25
  0
ENDBLK
  5
9B
330
98
100
AcDbEntity
  8
0
100
AcDbBlockEnd
  0
BLOCK
  5
A2
330
A0
100
AcDbEntity
  8
0
100
AcDbBlockBegin
  2
block 17
 70
     0
 10
0.0
 20
0.0
 30
0.0
  3
block 17
  1

  0
POLYLINE
  5
A4
330
A0
100
AcDbEntity
  8
0
 62
     7
420
 16777215
370
    25
100
AcDb2dPolyline
 66
     1
 10
0.0
 20
0.0
 30
0.0
  0
VERTEX
  5
A5
330
A4
100
AcDbEntity
  8
0
 62
     7
420
 16777215
370
    25
100
AcDbVertex
100
AcDb2dVertex
 10
-28.61220280266923
 20
45.87568263736475
 30
0.0
  0
VERTEX
  5
A6
330
A4
100
AcDbEntity
  8
0
 62
     7
420
 16777215
370
    25
100
AcDbVertex
100
AcDb2dVertex
 10
-28.61220280266923
 20
42.87568263736464
 30
0.0
  0
SEQEND
  5
A7
330
A4
100
AcDbEntity
  8
0
 62
     7
420
 16777215
370
    25
  0
ENDBLK
  5
A3
330
A0
100
AcDbEntity
  8
0
100
AcDbBlockEnd
  0
BLOCK
  5
AA
330
A8
100
AcDbEntity
  8
0
100
AcDbBlockBegin
  2
block 18
 70
     0
 10
0.0
 20
0.0
 30
0.0
  3
block 18
  1

  0
POLYLINE
  5
AC
330
A8
100
AcDbEntity
  8
0
 62
     7
420
 16777215
370
    25
100
AcDb2dPolyline
 66
     1
 10
0.0
 20
0.0
 30
0.0
  0
VERTEX
  5
AD
330
AC
100
AcDbEntity
  8
0
 62
     7
420
 16777215
370
    25
100
AcDbVertex
100
AcDb2dVertex
 10
-45.61220280266919
 20
29.87568263736482
 30
0.0
  0
VERTEX
  5
AE
330
AC
100
AcDbEntity
  8
0
 62
     7
420
 16777215
370
    25
100
AcDbVertex
100
AcDb2dVertex
 10
-39.91220275266908
 20
29.87568263736482
 30
0.0
  0
SEQEND
  5
AF
330
AC
100
AcDbEntity
  8
0
 62
     7
420
 16777215
370
    25
  0
ENDBLK
  5
AB
330
A8
100
AcDbEntity
  8
0
100
AcDbBlockEnd
  0
BLOCK
  5
B2
330
B0
100
AcDbEntity
  8
0
100
AcDbBlockBegin
  2
block 19
 70
     0
 10
0.0
 20
0.0
 30
0.0
  3
block 19
  1

  0
POLYLINE
  5
B4
330
B0
100
AcDbEntity
  8
0
 62
     7
420
 16777215
370
    25
100
AcDb2dPolyline
 66
     1
 10
0.0
 20
0.0
 30
0.0
  0
VERTEX
  5
B5
330
B4
100
AcDbEntity
  8
0
 62
     7
420
 16777215
370
    25
100
AcDbVertex
100
AcDb2dVertex
 10
-44.61220280266915
 20
45.87568263736475
 30
0.0
  0
VERTEX
  5
B6
330
B4
100
AcDbEntity
  8
0
 62
     7
420
 16777215
370
    25
100
AcDbVertex
100
AcDb2dVertex
 10
-44.61220280266915
 20
42.87568263736464
 30
0.0
  0
SEQEND
  5
B7
330
B4
100
AcDbEntity
  8
0
 62
     7
420
 16777215
370
    25
  0
ENDBLK
  5
B3
330
B0
100
AcDbEntity
  8
0
100
AcDbBlockEnd
  0
BLOCK
  5
BA
330
B8
100
AcDbEntity
  8
0
100
AcDbBlockBegin
  2
block 20
 70
     0
 10
0.0
 20
0.0
 30
0.0
  3
block 20
  1

  0
POLYLINE
  5
BC
330
B8
100
AcDbEntity
  8
0
 62
     7
420
 16777215
370
    25
100
AcDb2dPolyline
 66
     1
 10
0.0
 20
0.0
 30
0.0
  0
VERTEX
  5
BD
330
BC
100
AcDbEntity
  8
0
 62
     7
420
 16777215
370
    25
100
AcDbVertex
100
AcDb2dVertex
 10
-46.31220280266921
 20
36.87568263736507
 30
0.0
  0
VERTEX
  5
BE
330
BC
100
AcDbEntity
  8
0
 62
     7
420
 16777215
370
    25
100
AcDbVertex
100
AcDb2dVertex
 10
-44.61220280266915
 20
36.87568263736507
 30
0.0
  0
SEQEND
  5
BF
330
BC
100
AcDbEntity
  8
0
 62
     7
420
 16777215
370
    25
  0
ENDBLK
  5
BB
330
B8
100
AcDbEntity
  8
0
100
AcDbBlockEnd
  0
BLOCK
  5
C2
330
C0
100
AcDbEntity
  8
0
100
AcDbBlockBegin
  2
block 21
 70
     0
 10
0.0
 20
0.0
 30
0.0
  3
block 21
  1

  0
SPLINE
  5
C4
330
C0
100
AcDbEntity
  8
0
 62
     7
420
 16777215
370
    25
100
AcDbSpline
210
0.0
220
0.0
230
1.0
 70
     8
 71
     3
 72
     8
 73
     4
 74
     0
 42
0.0000000001
 43
0.0000000001
 12
1.0
 22
0.0
 32
0.0
 13
1.0
 23
0.0
 33
0.0
 40
0.0
 40
0.0
 40
0.0
 40
0.0
 40
1.0
 40
1.0
 40
1.0
 40
1.0
 10
-46.61220280266922
 20
30.87568263736486
 30
0.0
 10
-46.61220280266922
 20
30.3233978875339
 30
0.0
 10
-46.16448755249982
 20
29.87568263736482
 30
0.0
 10
-45.61220280266919
 20
29.87568263736482
 30
0.0
  0
ENDBLK
  5
C3
330
C0
100
AcDbEntity
  8
0
100
AcDbBlockEnd
  0
BLOCK
  5
C7
330
C5
100
AcDbEntity
  8
0
100
AcDbBlockBegin
  2
block 22
 70
     0
 10
0.0
 20
0.0
 30
0.0
  3
block 22
  1

  0
POLYLINE
  5
C9
330
C5
100
AcDbEntity
  8
0
 62
     7
420
 16777215
370
    25
100
AcDb2dPolyline
 66
     1
 10
0.0
 20
0.0
 30
0.0
  0
VERTEX
  5
CA
330
C9
100
AcDbEntity
  8
0
 62
     7
420
 16777215
370
    25
100
AcDbVertex
100
AcDb2dVertex
 10
-40.31220280266933
 20
39.87566976236506
 30
0.0
  0
VERTEX
  5
CB
330
C9
100
AcDbEntity
  8
0
 62
     7
420
 16777215
370
    25
100
AcDbVertex
100
AcDb2dVertex
 10
-40.61220280266933
 20
39.35605452009381
 30
0.0
  0
SEQEND
  5
CC
330
C9
100
AcDbEntity
  8
0
 62
     7
420
 16777215
370
    25
  0
ENDBLK
  5
C8
330
C5
100
AcDbEntity
  8
0
100
AcDbBlockEnd
  0
BLOCK
  5
CF
330
CD
100
AcDbEntity
  8
0
100
AcDbBlockBegin
  2
block 23
 70
     0
 10
0.0
 20
0.0
 30
0.0
  3
block 23
  1

  0
SPLINE
  5
D1
330
CD
100
AcDbEntity
  8
0
 62
     7
420
 16777215
370
    25
100
AcDbSpline
210
0.0
220
0.0
230
1.0
 70
     8
 71
     3
 72
     8
 73
     4
 74
     0
 42
0.0000000001
 43
0.0000000001
 12
1.0
 22
0.0
 32
0.0
 13
1.0
 23
0.0
 33
0.0
 40
0.0
 40
0.0
 40
0.0
 40
0.0
 40
1.0
 40
1.0
 40
1.0
 40
1.0
 10
-46.31220281837705
 20
36.87568269736457
 30
0.0
 10
-46.47788824884911
 20
36.87568268868944
 30
0.0
 10
-46.61220282134427
 20
36.7413681021292
 30
0.0
 10
-46.61220281266914
 20
36.57568267165713
 30
0.0
  0
ENDBLK
  5
D0
330
CD
100
AcDbEntity
  8
0
100
AcDbBlockEnd
  0
BLOCK
  5
D4
330
D2
100
AcDbEntity
  8
0
100
AcDbBlockBegin
  2
block 24
 70
     0
 10
0.0
 20
0.0
 30
0.0
  3
block 24
  1

  0
POLYLINE
  5
D6
330
D2
100
AcDbEntity
  8
0
 62
     7
420
 16777215
370
    25
100
AcDb2dPolyline
 66
     1
 10
0.0
 20
0.0
 30
0.0
  0
VERTEX
  5
D7
330
D6
100
AcDbEntity
  8
0
 62
     7
420
 16777215
370
    25
100
AcDbVertex
100
AcDb2dVertex
 10
-29.55154930266913
 20
33.87567263736456
 30
0.0
  0
VERTEX
  5
D8
330
D6
100
AcDbEntity
  8
0
 62
     7
420
 16777215
370
    25
100
AcDbVertex
100
AcDb2dVertex
 10
-32.61220280266905
 20
36.93633443736488
 30
0.0
  0
SEQEND
  5
D9
330
D6
100
AcDbEntity
  8
0
 62
     7
420
 16777215
370
    25
  0
ENDBLK
  5
D5
330
D2
100
AcDbEntity
  8
0
100
AcDbBlockEnd
  0
BLOCK
  5
DC
330
DA
100
AcDbEntity
  8
0
100
AcDbBlockBegin
  2
block 25
 70
     0
 10
0.0
 20
0.0
 30
0.0
  3
block 25
  1

  0
POLYLINE
  5
DE
330
DA
100
AcDbEntity
  8
0
 62
     7
420
 16777215
370
    25
100
AcDb2dPolyline
 66
     1
 10
0.0
 20
0.0
 30
0.0
  0
VERTEX
  5
DF
330
DE
100
AcDbEntity
  8
0
 62
     7
420
 16777215
370
    25
100
AcDbVertex
100
AcDb2dVertex
 10
-42.61220280266908
 20
47.87568263736482
 30
0.0
  0
VERTEX
  5
E0
330
DE
100
AcDbEntity
  8
0
 62
     7
420
 16777215
370
    25
100
AcDbVertex
100
AcDb2dVertex
 10
-42.61220280266908
 20
46.93632613736484
 30
0.0
  0
SEQEND
  5
E1
330
DE
100
AcDbEntity
  8
0
 62
     7
420
 16777215
370
    25
  0
ENDBLK
  5
DD
330
DA
100
AcDbEntity
  8
0
100
AcDbBlockEnd
  0
BLOCK
  5
E4
330
E2
100
AcDbEntity
  8
0
100
AcDbBlockBegin
  2
block 26
 70
     0
 10
0.0
 20
0.0
 30
0.0
  3
block 26
  1

  0
SPLINE
  5
E6
330
E2
100
AcDbEntity
  8
0
 62
     7
420
 16777215
370
    25
100
AcDbSpline
210
0.0
220
0.0
230
1.0
 70
     8
 71
     3
 72
     8
 73
     4
 74
     0
 42
0.0000000001
 43
0.0000000001
 12
1.0
 22
0.0
 32
0.0
 13
1.0
 23
0.0
 33
0.0
 40
0.0
 40
0.0
 40
0.0
 40
0.0
 40
1.0
 40
1.0
 40
1.0
 40
1.0
 10
-26.61220280266916
 20
48.87568263736485
 30
0.0
 10
-26.61220280266916
 20
49.42796738719517
 30
0.0
 10
-27.05991805283856
 20
49.87568263736488
 30
0.0
 10
-27.6122028026692
 20
49.87568263736488
 30
0.0
  0
ENDBLK
  5
E5
330
E2
100
AcDbEntity
  8
0
100
AcDbBlockEnd
  0
BLOCK
  5
E9
330
E7
100
AcDbEntity
  8
0
100
AcDbBlockBegin
  2
block 27
 70
     0
 10
0.0
 20
0.0
 30
0.0
  3
block 27
  1

  0
POLYLINE
  5
EB
330
E7
100
AcDbEntity
  8
0
 62
     7
420
 16777215
370
    25
100
AcDb2dPolyline
 66
     1
 10
0.0
 20
0.0
 30
0.0
  0
VERTEX
  5
EC
330
EB
100
AcDbEntity
  8
0
 62
     7
420
 16777215
370
    25
100
AcDbVertex
100
AcDb2dVertex
 10
-30.6122028026693
 20
46.9363516373649
 30
0.0
  0
VERTEX
  5
ED
330
EB
100
AcDbEntity
  8
0
 62
     7
420
 16777215
370
    25
100
AcDbVertex
100
AcDb2dVertex
 10
-33.67287200266915
 20
43.87568263736468
 30
0.0
  0
SEQEND
  5
EE
330
EB
100
AcDbEntity
  8
0
 62
     7
420
 16777215
370
    25
  0
ENDBLK
  5
EA
330
E7
100
AcDbEntity
  8
0
100
AcDbBlockEnd
  0
BLOCK
  5
F1
330
EF
100
AcDbEntity
  8
0
100
AcDbBlockBegin
  2
block 28
 70
     0
 10
0.0
 20
0.0
 30
0.0
  3
block 28
  1

  0
POLYLINE
  5
F3
330
EF
100
AcDbEntity
  8
0
 62
     7
420
 16777215
370
    25
100
AcDb2dPolyline
 66
     1
 10
0.0
 20
0.0
 30
0.0
  0
VERTEX
  5
F4
330
F3
100
AcDbEntity
  8
0
 62
     7
420
 16777215
370
    25
100
AcDbVertex
100
AcDb2dVertex
 10
-44.18720279016908
 20
29.87568263736482
 30
0.0
  0
VERTEX
  5
F5
330
F3
100
AcDbEntity
  8
0
 62
     7
420
 16777215
370
    25
100
AcDbVertex
100
AcDb2dVertex
 10
-44.18720279016908
 20
29.87578263736499
 30
0.0
  0
SEQEND
  5
F6
330
F3
100
AcDbEntity
  8
0
 62
     7
420
 16777215
370
    25
  0
ENDBLK
  5
F2
330
EF
100
AcDbEntity
  8
0
100
AcDbBlockEnd
  0
BLOCK
  5
F9
330
F7
100
AcDbEntity
  8
0
100
AcDbBlockBegin
  2
block 29
 70
     0
 10
0.0
 20
0.0
 30
0.0
  3
block 29
  1

  0
POLYLINE
  5
FB
330
F7
100
AcDbEntity
  8
0
 62
     7
420
 16777215
370
    25
100
AcDb2dPolyline
 66
     1
 10
0.0
 20
0.0
 30
0.0
  0
VERTEX
  5
FC
330
FB
100
AcDbEntity
  8
0
 62
     7
420
 16777215
370
    25
100
AcDbVertex
100
AcDb2dVertex
 10
-43.67288280266904
 20
45.87568563736487
 30
0.0
  0
VERTEX
  5
FD
330
FB
100
AcDbEntity
  8
0
 62
     7
420
 16777215
370
    25
100
AcDbVertex
100
AcDb2dVertex
 10
-40.61220280266901
 20
42.8150122873876
 30
0.0
  0
SEQEND
  5
FE
330
FB
100
AcDbEntity
  8
0
 62
     7
420
 16777215
370
    25
  0
ENDBLK
  5
FA
330
F7
100
AcDbEntity
  8
0
100
AcDbBlockEnd
  0
BLOCK
  5
101
330
FF
100
AcDbEntity
  8
0
100
AcDbBlockBegin
  2
block 30
 70
     0
 10
0.0
 20
0.0
 30
0.0
  3
block 30
  1

  0
POLYLINE
  5
103
330
FF
100
AcDbEntity
  8
0
 62
     7
420
 16777215
370
    25
100
AcDb2dPolyline
 66
     1
 10
0.0
 20
0.0
 30
0.0
  0
VERTEX
  5
104
330
103
100
AcDbEntity
  8
0
 62
     7
420
 16777215
370
    25
100
AcDbVertex
100
AcDb2dVertex
 10
-43.67287130266921
 20
33.875683637365
 30
0.0
  0
VERTEX
  5
105
330
103
100
AcDbEntity
  8
0
 62
     7
420
 16777215
370
    25
100
AcDbVertex
100
AcDb2dVertex
 10
-40.61220280266901
 20
36.93634538736477
 30
0.0
  0
SEQEND
  5
106
330
103
100
AcDbEntity
  8
0
 62
     7
420
 16777215
370
    25
  0
ENDBLK
  5
102
330
FF
100
AcDbEntity
  8
0
100
AcDbBlockEnd
  0
BLOCK
  5
109
330
107
100
AcDbEntity
  8
0
100
AcDbBlockBegin
  2
block 31
 70
     0
 10
0.0
 20
0.0
 30
0.0
  3
block 31
  1

  0
POLYLINE
  5
10B
330
107
100
AcDbEntity
  8
0
 62
     7
420
 16777215
370
    25
100
AcDb2dPolyline
 66
     1
 10
0.0
 20
0.0
 30
0.0
  0
VERTEX
  5
10C
330
10B
100
AcDbEntity
  8
0
 62
     7
420
 16777215
370
    25
100
AcDbVertex
100
AcDb2dVertex
 10
-46.31220280266921
 20
42.87568263736464
 30
0.0
  0
VERTEX
  5
10D
330
10B
100
AcDbEntity
  8
0
 62
     7
420
 16777215
370
    25
100
AcDbVertex
100
AcDb2dVertex
 10
-44.61220280266915
 20
42.87568263736464
 30
0.0
  0
SEQEND
  5
10E
330
10B
100
AcDbEntity
  8
0
 62
     7
420
 16777215
370
    25
  0
ENDBLK
  5
10A
330
107
100
AcDbEntity
  8
0
100
AcDbBlockEnd
  0
BLOCK
  5
111
330
10F
100
AcDbEntity
  8
0
100
AcDbBlockBegin
  2
block 32
 70
     0
 10
0.0
 20
0.0
 30
0.0
  3
block 32
  1

  0
POLYLINE
  5
113
330
10F
100
AcDbEntity
  8
0
 62
     7
420
 16777215
370
    25
100
AcDb2dPolyline
 66
     1
 10
0.0
 20
0.0
 30
0.0
  0
VERTEX
  5
114
330
113
100
AcDbEntity
  8
0
 62
     7
420
 16777215
370
    25
100
AcDbVertex
100
AcDb2dVertex
 10
-33.31220285266898
 20
29.87568263736482
 30
0.0
  0
VERTEX
  5
115
330
113
100
AcDbEntity
  8
0
 62
     7
420
 16777215
370
    25
100
AcDbVertex
100
AcDb2dVertex
 10
-27.6122028026692
 20
29.87568263736482
 30
0.0
  0
SEQEND
  5
116
330
113
100
AcDbEntity
  8
0
 62
     7
420
 16777215
370
    25
  0
ENDBLK
  5
112
330
10F
100
AcDbEntity
  8
0
100
AcDbBlockEnd
  0
BLOCK
  5
119
330
117
100
AcDbEntity
  8
0
100
AcDbBlockBegin
  2
block 33
 70
     0
 10
0.0
 20
0.0
 30
0.0
  3
block 33
  1

  0
POLYLINE
  5
11B
330
117
100
AcDbEntity
  8
0
 62
     7
420
 16777215
370
    25
100
AcDb2dPolyline
 66
     1
 10
0.0
 20
0.0
 30
0.0
  0
VERTEX
  5
11C
330
11B
100
AcDbEntity
  8
0
 62
     7
420
 16777215
370
    25
100
AcDbVertex
100
AcDb2dVertex
 10
-40.31220280266933
 20
39.87568263736453
 30
0.0
  0
VERTEX
  5
11D
330
11B
100
AcDbEntity
  8
0
 62
     7
420
 16777215
370
    25
100
AcDbVertex
100
AcDb2dVertex
 10
-40.61220280266933
 20
40.39529787963578
 30
0.0
  0
SEQEND
  5
11E
330
11B
100
AcDbEntity
  8
0
 62
     7
420
 16777215
370
    25
  0
ENDBLK
  5
11A
330
117
100
AcDbEntity
  8
0
100
AcDbBlockEnd
  0
BLOCK
  5
121
330
11F
100
AcDbEntity
  8
0
100
AcDbBlockBegin
  2
block 34
 70
     0
 10
0.0
 20
0.0
 30
0.0
  3
block 34
  1

  0
POLYLINE
  5
123
330
11F
100
AcDbEntity
  8
0
 62
     7
420
 16777215
370
    25
100
AcDb2dPolyline
 66
     1
 10
0.0
 20
0.0
 30
0.0
  0
VERTEX
  5
124
330
123
100
AcDbEntity
  8
0
 62
     7
420
 16777215
370
    25
100
AcDbVertex
100
AcDb2dVertex
 10
-32.61220280266905
 20
39.35606739509393
 30
0.0
  0
VERTEX
  5
125
330
123
100
AcDbEntity
  8
0
 62
     7
420
 16777215
370
    25
100
AcDbVertex
100
AcDb2dVertex
 10
-32.61220280266905
 20
36.93633443736488
 30
0.0
  0
SEQEND
  5
126
330
123
100
AcDbEntity
  8
0
 62
     7
420
 16777215
370
    25
  0
ENDBLK
  5
122
330
11F
100
AcDbEntity
  8
0
100
AcDbBlockEnd
  0
BLOCK
  5
129
330
127
100
AcDbEntity
  8
0
100
AcDbBlockBegin
  2
block 35
 70
     0
 10
0.0
 20
0.0
 30
0.0
  3
block 35
  1

  0
POLYLINE
  5
12B
330
127
100
AcDbEntity
  8
0
 62
     7
420
 16777215
370
    25
100
AcDb2dPolyline
 66
     1
 10
0.0
 20
0.0
 30
0.0
  0
VERTEX
  5
12C
330
12B
100
AcDbEntity
  8
0
 62
     7
420
 16777215
370
    25
100
AcDbVertex
100
AcDb2dVertex
 10
-46.61220280266922
 20
36.57568268736464
 30
0.0
  0
VERTEX
  5
12D
330
12B
100
AcDbEntity
  8
0
 62
     7
420
 16777215
370
    25
100
AcDbVertex
100
AcDb2dVertex
 10
-46.61220280266922
 20
30.87568263736486
 30
0.0
  0
SEQEND
  5
12E
330
12B
100
AcDbEntity
  8
0
 62
     7
420
 16777215
370
    25
  0
ENDBLK
  5
12A
330
127
100
AcDbEntity
  8
0
100
AcDbBlockEnd
  0
BLOCK
  5
131
330
12F
100
AcDbEntity
  8
0
100
AcDbBlockBegin
  2
block 36
 70
     0
 10
0.0
 20
0.0
 30
0.0
  3
block 36
  1

  0
POLYLINE
  5
133
330
12F
100
AcDbEntity
  8
0
 62
     7
420
 16777215
370
    25
100
AcDb2dPolyline
 66
     1
 10
0.0
 20
0.0
 30
0.0
  0
VERTEX
  5
134
330
133
100
AcDbEntity
  8
0
 62
     7
420
 16777215
370
    25
100
AcDbVertex
100
AcDb2dVertex
 10
-36.61221567766898
 20
43.57568263736498
 30
0.0
  0
VERTEX
  5
135
330
133
100
AcDbEntity
  8
0
 62
     7
420
 16777215
370
    25
100
AcDbVertex
100
AcDb2dVertex
 10
-37.13183091993991
 20
43.87568263736468
 30
0.0
  0
SEQEND
  5
136
330
133
100
AcDbEntity
  8
0
 62
     7
420
 16777215
370
    25
  0
ENDBLK
  5
132
330
12F
100
AcDbEntity
  8
0
100
AcDbBlockEnd
  0
BLOCK
  5
139
330
137
100
AcDbEntity
  8
0
100
AcDbBlockBegin
  2
block 37
 70
     0
 10
0.0
 20
0.0
 30
0.0
  3
block 37
  1

  0
POLYLINE
  5
13B
330
137
100
AcDbEntity
  8
0
 62
     7
420
 16777215
370
    25
100
AcDb2dPolyline
 66
     1
 10
0.0
 20
0.0
 30
0.0
  0
VERTEX
  5
13C
330
13B
100
AcDbEntity
  8
0
 62
     7
420
 16777215
370
    25
100
AcDbVertex
100
AcDb2dVertex
 10
-44.61220280266915
 20
33.87568263736496
 30
0.0
  0
VERTEX
  5
13D
330
13B
100
AcDbEntity
  8
0
 62
     7
420
 16777215
370
    25
100
AcDbVertex
100
AcDb2dVertex
 10
-43.67287180266923
 20
33.87568263736496
 30
0.0
  0
SEQEND
  5
13E
330
13B
100
AcDbEntity
  8
0
 62
     7
420
 16777215
370
    25
  0
ENDBLK
  5
13A
330
137
100
AcDbEntity
  8
0
100
AcDbBlockEnd
  0
BLOCK
  5
141
330
13F
100
AcDbEntity
  8
0
100
AcDbBlockBegin
  2
block 38
 70
     0
 10
0.0
 20
0.0
 30
0.0
  3
block 38
  1

  0
POLYLINE
  5
143
330
13F
100
AcDbEntity
  8
0
 62
     7
420
 16777215
370
    25
100
AcDb2dPolyline
 66
     1
 10
0.0
 20
0.0
 30
0.0
  0
VERTEX
  5
144
330
143
100
AcDbEntity
  8
0
 62
     7
420
 16777215
370
    25
100
AcDbVertex
100
AcDb2dVertex
 10
-42.61220280266908
 20
46.93632613736484
 30
0.0
  0
VERTEX
  5
145
330
143
100
AcDbEntity
  8
0
 62
     7
420
 16777215
370
    25
100
AcDbVertex
100
AcDb2dVertex
 10
-39.55155935266914
 20
43.87568263736468
 30
0.0
  0
SEQEND
  5
146
330
143
100
AcDbEntity
  8
0
 62
     7
420
 16777215
370
    25
  0
ENDBLK
  5
142
330
13F
100
AcDbEntity
  8
0
100
AcDbBlockEnd
  0
BLOCK
  5
149
330
147
100
AcDbEntity
  8
0
100
AcDbBlockBegin
  2
block 39
 70
     0
 10
0.0
 20
0.0
 30
0.0
  3
block 39
  1

  0
POLYLINE
  5
14B
330
147
100
AcDbEntity
  8
0
 62
     7
420
 16777215
370
    25
100
AcDb2dPolyline
 66
     1
 10
0.0
 20
0.0
 30
0.0
  0
VERTEX
  5
14C
330
14B
100
AcDbEntity
  8
0
 62
     7
420
 16777215
370
    25
100
AcDbVertex
100
AcDb2dVertex
 10
-44.61220280266915
 20
33.87568263736496
 30
0.0
  0
VERTEX
  5
14D
330
14B
100
AcDbEntity
  8
0
 62
     7
420
 16777215
370
    25
100
AcDbVertex
100
AcDb2dVertex
 10
-44.61220280266915
 20
36.87568263736507
 30
0.0
  0
SEQEND
  5
14E
330
14B
100
AcDbEntity
  8
0
 62
     7
420
 16777215
370
    25
  0
ENDBLK
  5
14A
330
147
100
AcDbEntity
  8
0
100
AcDbBlockEnd
  0
BLOCK
  5
151
330
14F
100
AcDbEntity
  8
0
100
AcDbBlockBegin
  2
block 40
 70
     0
 10
0.0
 20
0.0
 30
0.0
  3
block 40
  1

  0
POLYLINE
  5
153
330
14F
100
AcDbEntity
  8
0
 62
     7
420
 16777215
370
    25
100
AcDb2dPolyline
 66
     1
 10
0.0
 20
0.0
 30
0.0
  0
VERTEX
  5
154
330
153
100
AcDbEntity
  8
0
 62
     7
420
 16777215
370
    25
100
AcDbVertex
100
AcDb2dVertex
 10
-26.61220280266916
 20
36.57568268736464
 30
0.0
  0
VERTEX
  5
155
330
153
100
AcDbEntity
  8
0
 62
     7
420
 16777215
370
    25
100
AcDbVertex
100
AcDb2dVertex
 10
-26.61220280266916
 20
30.87568263736486
 30
0.0
  0
SEQEND
  5
156
330
153
100
AcDbEntity
  8
0
 62
     7
420
 16777215
370
    25
  0
ENDBLK
  5
152
330
14F
100
AcDbEntity
  8
0
100
AcDbBlockEnd
  0
BLOCK
  5
159
330
157
100
AcDbEntity
  8
0
100
AcDbBlockBegin
  2
block 41
 70
     0
 10
0.0
 20
0.0
 30
0.0
  3
block 41
  1

  0
SPLINE
  5
15B
330
157
100
AcDbEntity
  8
0
 62
     7
420
 16777215
370
    25
100
AcDbSpline
210
0.0
220
0.0
230
1.0
 70
     8
 71
     3
 72
     8
 73
     4
 74
     0
 42
0.0000000001
 43
0.0000000001
 12
1.0
 22
0.0
 32
0.0
 13
1.0
 23
0.0
 33
0.0
 40
0.0
 40
0.0
 40
0.0
 40
0.0
 40
1.0
 40
1.0
 40
1.0
 40
1.0
 10
-46.61220281266914
 20
43.17568263968921
 30
0.0
 10
-46.61220284156678
 20
43.00999720921713
 30
0.0
 10
-46.47788828546543
 20
42.87568260626277
 30
0.0
 10
-46.31220285499335
 20
42.87568257736514
 30
0.0
  0
ENDBLK
  5
15A
330
157
100
AcDbEntity
  8
0
100
AcDbBlockEnd
  0
BLOCK
  5
15E
330
15C
100
AcDbEntity
  8
0
100
AcDbBlockBegin
  2
block 42
 70
     0
 10
0.0
 20
0.0
 30
0.0
  3
block 42
  1

  0
POLYLINE
  5
160
330
15C
100
AcDbEntity
  8
0
 62
     7
420
 16777215
370
    25
100
AcDb2dPolyline
 66
     1
 10
0.0
 20
0.0
 30
0.0
  0
VERTEX
  5
161
330
160
100
AcDbEntity
  8
0
 62
     7
420
 16777215
370
    25
100
AcDbVertex
100
AcDb2dVertex
 10
-28.61220280266923
 20
33.87568263736496
 30
0.0
  0
VERTEX
  5
162
330
160
100
AcDbEntity
  8
0
 62
     7
420
 16777215
370
    25
100
AcDbVertex
100
AcDb2dVertex
 10
-28.61220280266923
 20
36.87568263736507
 30
0.0
  0
SEQEND
  5
163
330
160
100
AcDbEntity
  8
0
 62
     7
420
 16777215
370
    25
  0
ENDBLK
  5
15F
330
15C
100
AcDbEntity
  8
0
100
AcDbBlockEnd
  0
BLOCK
  5
166
330
164
100
AcDbEntity
  8
0
100
AcDbBlockBegin
  2
block 43
 70
     0
 10
0.0
 20
0.0
 30
0.0
  3
block 43
  1

  0
SPLINE
  5
168
330
164
100
AcDbEntity
  8
0
 62
     7
420
 16777215
370
    25
100
AcDbSpline
210
0.0
220
0.0
230
1.0
 70
     8
 71
     3
 72
     8
 73
     4
 74
     0
 42
0.0000000001
 43
0.0000000001
 12
1.0
 22
0.0
 32
0.0
 13
1.0
 23
0.0
 33
0.0
 40
0.0
 40
0.0
 40
0.0
 40
0.0
 40
1.0
 40
1.0
 40
1.0
 40
1.0
 10
-45.61220280266919
 20
49.87568263736488
 30
0.0
 10
-46.16448755249982
 20
49.87568263736488
 30
0.0
 10
-46.61220280266922
 20
49.42796738719517
 30
0.0
 10
-46.61220280266922
 20
48.87568263736485
 30
0.0
  0
ENDBLK
  5
167
330
164
100
AcDbEntity
  8
0
100
AcDbBlockEnd
  0
BLOCK
  5
16B
330
169
100
AcDbEntity
  8
0
100
AcDbBlockBegin
  2
block 44
 70
     0
 10
0.0
 20
0.0
 30
0.0
  3
block 44
  1

  0
POLYLINE
  5
16D
330
169
100
AcDbEntity
  8
0
 62
     7
420
 16777215
370
    25
100
AcDb2dPolyline
 66
     1
 10
0.0
 20
0.0
 30
0.0
  0
VERTEX
  5
16E
330
16D
100
AcDbEntity
  8
0
 62
     7
420
 16777215
370
    25
100
AcDbVertex
100
AcDb2dVertex
 10
-32.91220280266906
 20
39.87569551236465
 30
0.0
  0
VERTEX
  5
16F
330
16D
100
AcDbEntity
  8
0
 62
     7
420
 16777215
370
    25
100
AcDbVertex
100
AcDb2dVertex
 10
-32.61220280266905
 20
40.39531075463525
 30
0.0
  0
SEQEND
  5
170
330
16D
100
AcDbEntity
  8
0
 62
     7
420
 16777215
370
    25
  0
ENDBLK
  5
16C
330
169
100
AcDbEntity
  8
0
100
AcDbBlockEnd
  0
BLOCK
  5
173
330
171
100
AcDbEntity
  8
0
100
AcDbBlockBegin
  2
block 45
 70
     0
 10
0.0
 20
0.0
 30
0.0
  3
block 45
  1

  0
SPLINE
  5
175
330
171
100
AcDbEntity
  8
0
 62
     7
420
 16777215
370
    25
100
AcDbSpline
210
0.0
220
0.0
230
1.0
 70
     8
 71
     3
 72
     8
 73
     4
 74
     0
 42
0.0000000001
 43
0.0000000001
 12
1.0
 22
0.0
 32
0.0
 13
1.0
 23
0.0
 33
0.0
 40
0.0
 40
0.0
 40
0.0
 40
0.0
 40
1.0
 40
1.0
 40
1.0
 40
1.0
 10
-26.61220279266924
 20
36.57568268736464
 30
0.0
 10
-26.61220279266924
 20
36.74136811783671
 30
0.0
 10
-26.7465173721971
 20
36.87568269736457
 30
0.0
 10
-26.91220280266917
 20
36.87568269736457
 30
0.0
  0
ENDBLK
  5
174
330
171
100
AcDbEntity
  8
0
100
AcDbBlockEnd
  0
BLOCK
  5
178
330
176
100
AcDbEntity
  8
0
100
AcDbBlockBegin
  2
block 46
 70
     0
 10
0.0
 20
0.0
 30
0.0
  3
block 46
  1

  0
POLYLINE
  5
17A
330
176
100
AcDbEntity
  8
0
 62
     7
420
 16777215
370
    25
100
AcDb2dPolyline
 66
     1
 10
0.0
 20
0.0
 30
0.0
  0
VERTEX
  5
17B
330
17A
100
AcDbEntity
  8
0
 62
     7
420
 16777215
370
    25
100
AcDbVertex
100
AcDb2dVertex
 10
-30.6122028026693
 20
47.87568263736482
 30
0.0
  0
VERTEX
  5
17C
330
17A
100
AcDbEntity
  8
0
 62
     7
420
 16777215
370
    25
100
AcDbVertex
100
AcDb2dVertex
 10
-30.6122028026693
 20
46.9363516373649
 30
0.0
  0
SEQEND
  5
17D
330
17A
100
AcDbEntity
  8
0
 62
     7
420
 16777215
370
    25
  0
ENDBLK
  5
179
330
176
100
AcDbEntity
  8
0
100
AcDbBlockEnd
  0
BLOCK
  5
180
330
17E
100
AcDbEntity
  8
0
100
AcDbBlockBegin
  2
block 47
 70
     0
 10
0.0
 20
0.0
 30
0.0
  3
block 47
  1

  0
SPLINE
  5
182
330
17E
100
AcDbEntity
  8
0
 62
     7
420
 16777215
370
    25
100
AcDbSpline
210
0.0
220
0.0
230
1.0
 70
     8
 71
     3
 72
     8
 73
     4
 74
     0
 42
0.0000000001
 43
0.0000000001
 12
1.0
 22
0.0
 32
0.0
 13
1.0
 23
0.0
 33
0.0
 40
0.0
 40
0.0
 40
0.0
 40
0.0
 40
1.0
 40
1.0
 40
1.0
 40
1.0
 10
-33.31220286837713
 20
49.87568264736512
 30
0.0
 10
-33.4778882988492
 20
49.87568263868936
 30
0.0
 10
-33.61220287134436
 20
49.74136805212911
 30
0.0
 10
-33.61220286266923
 20
49.57568262165704
 30
0.0
  0
ENDBLK
  5
181
330
17E
100
AcDbEntity
  8
0
100
AcDbBlockEnd
  0
BLOCK
  5
185
330
183
100
AcDbEntity
  8
0
100
AcDbBlockBegin
  2
block 48
 70
     0
 10
0.0
 20
0.0
 30
0.0
  3
block 48
  1

  0
POLYLINE
  5
187
330
183
100
AcDbEntity
  8
0
 62
     7
420
 16777215
370
    25
100
AcDb2dPolyline
 66
     1
 10
0.0
 20
0.0
 30
0.0
  0
VERTEX
  5
188
330
187
100
AcDbEntity
  8
0
 62
     7
420
 16777215
370
    25
100
AcDbVertex
100
AcDb2dVertex
 10
-26.91220280266917
 20
36.87568263736507
 30
0.0
  0
VERTEX
  5
189
330
187
100
AcDbEntity
  8
0
 62
     7
420
 16777215
370
    25
100
AcDbVertex
100
AcDb2dVertex
 10
-28.61220280266923
 20
36.87568263736507
 30
0.0
  0
SEQEND
  5
18A
330
187
100
AcDbEntity
  8
0
 62
     7
420
 16777215
370
    25
  0
ENDBLK
  5
186
330
183
100
AcDbEntity
  8
0
100
AcDbBlockEnd
  0
BLOCK
  5
18D
330
18B
100
AcDbEntity
  8
0
100
AcDbBlockBegin
  2
block 49
 70
     0
 10
0.0
 20
0.0
 30
0.0
  3
block 49
  1

  0
POLYLINE
  5
18F
330
18B
100
AcDbEntity
  8
0
 62
     7
420
 16777215
370
    25
100
AcDb2dPolyline
 66
     1
 10
0.0
 20
0.0
 30
0.0
  0
VERTEX
  5
190
330
18F
100
AcDbEntity
  8
0
 62
     7
420
 16777215
370
    25
100
AcDbVertex
100
AcDb2dVertex
 10
-33.31220285266898
 20
49.87568263736488
 30
0.0
  0
VERTEX
  5
191
330
18F
100
AcDbEntity
  8
0
 62
     7
420
 16777215
370
    25
100
AcDbVertex
100
AcDb2dVertex
 10
-27.6122028026692
 20
49.87568263736488
 30
0.0
  0
SEQEND
  5
192
330
18F
100
AcDbEntity
  8
0
 62
     7
420
 16777215
370
    25
  0
ENDBLK
  5
18E
330
18B
100
AcDbEntity
  8
0
100
AcDbBlockEnd
  0
BLOCK
  5
195
330
193
100
AcDbEntity
  8
0
100
AcDbBlockBegin
  2
block 50
 70
     0
 10
0.0
 20
0.0
 30
0.0
  3
block 50
  1

  0
POLYLINE
  5
197
330
193
100
AcDbEntity
  8
0
 62
     7
420
 16777215
370
    25
100
AcDb2dPolyline
 66
     1
 10
0.0
 20
0.0
 30
0.0
  0
VERTEX
  5
198
330
197
100
AcDbEntity
  8
0
 62
     7
420
 16777215
370
    25
100
AcDbVertex
100
AcDb2dVertex
 10
-40.61220280266933
 20
39.35605452009381
 30
0.0
  0
VERTEX
  5
199
330
197
100
AcDbEntity
  8
0
 62
     7
420
 16777215
370
    25
100
AcDbVertex
100
AcDb2dVertex
 10
-40.61220280266901
 20
36.93634538736477
 30
0.0
  0
SEQEND
  5
19A
330
197
100
AcDbEntity
  8
0
 62
     7
420
 16777215
370
    25
  0
ENDBLK
  5
196
330
193
100
AcDbEntity
  8
0
100
AcDbBlockEnd
  0
BLOCK
  5
19D
330
19B
100
AcDbEntity
  8
0
100
AcDbBlockBegin
  2
block 51
 70
     0
 10
0.0
 20
0.0
 30
0.0
  3
block 51
  1

  0
POLYLINE
  5
19F
330
19B
100
AcDbEntity
  8
0
 62
     7
420
 16777215
370
    25
100
AcDb2dPolyline
 66
     1
 10
0.0
 20
0.0
 30
0.0
  0
VERTEX
  5
1A0
330
19F
100
AcDbEntity
  8
0
 62
     7
420
 16777215
370
    25
100
AcDbVertex
100
AcDb2dVertex
 10
-32.61220280266905
 20
42.81502273736469
 30
0.0
  0
VERTEX
  5
1A1
330
19F
100
AcDbEntity
  8
0
 62
     7
420
 16777215
370
    25
100
AcDbVertex
100
AcDb2dVertex
 10
-32.61220280266905
 20
40.39531075463525
 30
0.0
  0
SEQEND
  5
1A2
330
19F
100
AcDbEntity
  8
0
 62
     7
420
 16777215
370
    25
  0
ENDBLK
  5
19E
330
19B
100
AcDbEntity
  8
0
100
AcDbBlockEnd
  0
BLOCK
  5
1A5
330
1A3
100
AcDbEntity
  8
0
100
AcDbBlockBegin
  2
block 52
 70
     0
 10
0.0
 20
0.0
 30
0.0
  3
block 52
  1

  0
POLYLINE
  5
1A7
330
1A3
100
AcDbEntity
  8
0
 62
     7
420
 16777215
370
    25
100
AcDb2dPolyline
 66
     1
 10
0.0
 20
0.0
 30
0.0
  0
VERTEX
  5
1A8
330
1A7
100
AcDbEntity
  8
0
 62
     7
420
 16777215
370
    25
100
AcDbVertex
100
AcDb2dVertex
 10
-42.61220280266908
 20
47.87568263736482
 30
0.0
  0
VERTEX
  5
1A9
330
1A7
100
AcDbEntity
  8
0
 62
     7
420
 16777215
370
    25
100
AcDbVertex
100
AcDb2dVertex
 10
-39.61220280266897
 20
47.87568263736482
 30
0.0
  0
SEQEND
  5
1AA
330
1A7
100
AcDbEntity
  8
0
 62
     7
420
 16777215
370
    25
  0
ENDBLK
  5
1A6
330
1A3
100
AcDbEntity
  8
0
100
AcDbBlockEnd
  0
BLOCK
  5
1AD
330
1AB
100
AcDbEntity
  8
0
100
AcDbBlockBegin
  2
block 53
 70
     0
 10
0.0
 20
0.0
 30
0.0
  3
block 53
  1

  0
SPLINE
  5
1AF
330
1AB
100
AcDbEntity
  8
0
 62
     7
420
 16777215
370
    25
100
AcDbSpline
210
0.0
220
0.0
230
1.0
 70
     8
 71
     3
 72
     8
 73
     4
 74
     0
 42
0.0000000001
 43
0.0000000001
 12
1.0
 22
0.0
 32
0.0
 13
1.0
 23
0.0
 33
0.0
 40
0.0
 40
0.0
 40
0.0
 40
0.0
 40
1.0
 40
1.0
 40
1.0
 40
1.0
 10
-27.6122028026692
 20
29.87568263736482
 30
0.0
 10
-27.05991805283824
 20
29.87568263736482
 30
0.0
 10
-26.61220280266916
 20
30.3233978875339
 30
0.0
 10
-26.61220280266916
 20
30.87568263736486
 30
0.0
  0
ENDBLK
  5
1AE
330
1AB
100
AcDbEntity
  8
0
100
AcDbBlockEnd
  0
BLOCK
  5
1B2
330
1B0
100
AcDbEntity
  8
0
100
AcDbBlockBegin
  2
block 54
 70
     0
 10
0.0
 20
0.0
 30
0.0
  3
block 54
  1

  0
POLYLINE
  5
1B4
330
1B0
100
AcDbEntity
  8
0
 62
     7
420
 16777215
370
    25
100
AcDb2dPolyline
 66
     1
 10
0.0
 20
0.0
 30
0.0
  0
VERTEX
  5
1B5
330
1B4
100
AcDbEntity
  8
0
 62
     7
420
 16777215
370
    25
100
AcDbVertex
100
AcDb2dVertex
 10
-26.91220280266917
 20
42.87568263736464
 30
0.0
  0
VERTEX
  5
1B6
330
1B4
100
AcDbEntity
  8
0
 62
     7
420
 16777215
370
    25
100
AcDbVertex
100
AcDb2dVertex
 10
-28.61220280266923
 20
42.87568263736464
 30
0.0
  0
SEQEND
  5
1B7
330
1B4
100
AcDbEntity
  8
0
 62
     7
420
 16777215
370
    25
  0
ENDBLK
  5
1B3
330
1B0
100
AcDbEntity
  8
0
100
AcDbBlockEnd
  0
BLOCK
  5
1BA
330
1B8
100
AcDbEntity
  8
0
100
AcDbBlockBegin
  2
block 55
 70
     0
 10
0.0
 20
0.0
 30
0.0
  3
block 55
  1

  0
POLYLINE
  5
1BC
330
1B8
100
AcDbEntity
  8
0
 62
     7
420
 16777215
370
    25
100
AcDb2dPolyline
 66
     1
 10
0.0
 20
0.0
 30
0.0
  0
VERTEX
  5
1BD
330
1BC
100
AcDbEntity
  8
0
 62
     7
420
 16777215
370
    25
100
AcDbVertex
100
AcDb2dVertex
 10
-40.61220280266901
 20
42.8150122873876
 30
0.0
  0
VERTEX
  5
1BE
330
1BC
100
AcDbEntity
  8
0
 62
     7
420
 16777215
370
    25
100
AcDbVertex
100
AcDb2dVertex
 10
-40.61220280266933
 20
40.39529787963578
 30
0.0
  0
SEQEND
  5
1BF
330
1BC
100
AcDbEntity
  8
0
 62
     7
420
 16777215
370
    25
  0
ENDBLK
  5
1BB
330
1B8
100
AcDbEntity
  8
0
100
AcDbBlockEnd
  0
BLOCK
  5
1C2
330
1C0
100
AcDbEntity
  8
0
100
AcDbBlockBegin
  2
block 56
 70
     0
 10
0.0
 20
0.0
 30
0.0
  3
block 56
  1

  0
POLYLINE
  5
1C4
330
1C0
100
AcDbEntity
  8
0
 62
     7
420
 16777215
370
    25
100
AcDb2dPolyline
 66
     1
 10
0.0
 20
0.0
 30
0.0
  0
VERTEX
  5
1C5
330
1C4
100
AcDbEntity
  8
0
 62
     7
420
 16777215
370
    25
100
AcDbVertex
100
AcDb2dVertex
 10
-39.55155935266914
 20
43.87568263736468
 30
0.0
  0
VERTEX
  5
1C6
330
1C4
100
AcDbEntity
  8
0
 62
     7
420
 16777215
370
    25
100
AcDbVertex
100
AcDb2dVertex
 10
-37.13183091993991
 20
43.87568263736468
 30
0.0
  0
SEQEND
  5
1C7
330
1C4
100
AcDbEntity
  8
0
 62
     7
420
 16777215
370
    25
  0
ENDBLK
  5
1C3
330
1C0
100
AcDbEntity
  8
0
100
AcDbBlockEnd
  0
BLOCK
  5
1CA
330
1C8
100
AcDbEntity
  8
0
100
AcDbBlockBegin
  2
block 57
 70
     0
 10
0.0
 20
0.0
 30
0.0
  3
block 57
  1

  0
SPLINE
  5
1CC
330
1C8
100
AcDbEntity
  8
0
 62
     7
420
 16777215
370
    25
100
AcDbSpline
210
0.0
220
0.0
230
1.0
 70
     8
 71
     3
 72
     8
 73
     4
 74
     0
 42
0.0000000001
 43
0.0000000001
 12
1.0
 22
0.0
 32
0.0
 13
1.0
 23
0.0
 33
0.0
 40
0.0
 40
0.0
 40
0.0
 40
0.0
 40
1.0
 40
1.0
 40
1.0
 40
1.0
 10
-26.91220280266917
 20
42.87568257736514
 30
0.0
 10
-26.7465173721971
 20
42.87568257736514
 30
0.0
 10
-26.61220279266924
 20
43.00999715689299
 30
0.0
 10
-26.61220279266924
 20
43.17568258736507
 30
0.0
  0
ENDBLK
  5
1CB
330
1C8
100
AcDbEntity
  8
0
100
AcDbBlockEnd
  0
BLOCK
  5
1CF
330
1CD
100
AcDbEntity
  8
0
100
AcDbBlockBegin
  2
block 58
 70
     0
 10
0.0
 20
0.0
 30
0.0
  3
block 58
  1

  0
POLYLINE
  5
1D1
330
1CD
100
AcDbEntity
  8
0
 62
     7
420
 16777215
370
    25
100
AcDb2dPolyline
 66
     1
 10
0.0
 20
0.0
 30
0.0
  0
VERTEX
  5
1D2
330
1D1
100
AcDbEntity
  8
0
 62
     7
420
 16777215
370
    25
100
AcDbVertex
100
AcDb2dVertex
 10
-39.61220280266897
 20
49.57568263736455
 30
0.0
  0
VERTEX
  5
1D3
330
1D1
100
AcDbEntity
  8
0
 62
     7
420
 16777215
370
    25
100
AcDbVertex
100
AcDb2dVertex
 10
-39.61220280266897
 20
47.87568263736482
 30
0.0
  0
SEQEND
  5
1D4
330
1D1
100
AcDbEntity
  8
0
 62
     7
420
 16777215
370
    25
  0
ENDBLK
  5
1D0
330
1CD
100
AcDbEntity
  8
0
100
AcDbBlockEnd
  0
BLOCK
  5
1D7
330
1D5
100
AcDbEntity
  8
0
100
AcDbBlockBegin
  2
block 59
 70
     0
 10
0.0
 20
0.0
 30
0.0
  3
block 59
  1

  0
POLYLINE
  5
1D9
330
1D5
100
AcDbEntity
  8
0
 62
     7
420
 16777215
370
    25
100
AcDb2dPolyline
 66
     1
 10
0.0
 20
0.0
 30
0.0
  0
VERTEX
  5
1DA
330
1D9
100
AcDbEntity
  8
0
 62
     7
420
 16777215
370
    25
100
AcDbVertex
100
AcDb2dVertex
 10
-36.6122028026692
 20
43.57568263736498
 30
0.0
  0
VERTEX
  5
1DB
330
1D9
100
AcDbEntity
  8
0
 62
     7
420
 16777215
370
    25
100
AcDbVertex
100
AcDb2dVertex
 10
-36.09258756039859
 20
43.87568263736468
 30
0.0
  0
SEQEND
  5
1DC
330
1D9
100
AcDbEntity
  8
0
 62
     7
420
 16777215
370
    25
  0
ENDBLK
  5
1D8
330
1D5
100
AcDbEntity
  8
0
100
AcDbBlockEnd
  0
BLOCK
  5
1DF
330
1DD
100
AcDbEntity
  8
0
100
AcDbBlockBegin
  2
block 60
 70
     0
 10
0.0
 20
0.0
 30
0.0
  3
block 60
  1

  0
POLYLINE
  5
1E1
330
1DD
100
AcDbEntity
  8
0
 62
     7
420
 16777215
370
    25
100
AcDb2dPolyline
 66
     1
 10
0.0
 20
0.0
 30
0.0
  0
VERTEX
  5
1E2
330
1E1
100
AcDbEntity
  8
0
 62
     7
420
 16777215
370
    25
100
AcDbVertex
100
AcDb2dVertex
 10
-45.61220280266919
 20
49.87568263736488
 30
0.0
  0
VERTEX
  5
1E3
330
1E1
100
AcDbEntity
  8
0
 62
     7
420
 16777215
370
    25
100
AcDbVertex
100
AcDb2dVertex
 10
-39.91220280266899
 20
49.87568263736488
 30
0.0
  0
SEQEND
  5
1E4
330
1E1
100
AcDbEntity
  8
0
 62
     7
420
 16777215
370
    25
  0
ENDBLK
  5
1E0
330
1DD
100
AcDbEntity
  8
0
100
AcDbBlockEnd
  0
BLOCK
  5
1E7
330
1E5
100
AcDbEntity
  8
0
100
AcDbBlockBegin
  2
block 61
 70
     0
 10
0.0
 20
0.0
 30
0.0
  3
block 61
  1

  0
POLYLINE
  5
1E9
330
1E5
100
AcDbEntity
  8
0
 62
     7
420
 16777215
370
    25
100
AcDb2dPolyline
 66
     1
 10
0.0
 20
0.0
 30
0.0
  0
VERTEX
  5
1EA
330
1E9
100
AcDbEntity
  8
0
 62
     7
420
 16777215
370
    25
100
AcDbVertex
100
AcDb2dVertex
 10
-29.55154930266913
 20
45.87568263736475
 30
0.0
  0
VERTEX
  5
1EB
330
1E9
100
AcDbEntity
  8
0
 62
     7
420
 16777215
370
    25
100
AcDbVertex
100
AcDb2dVertex
 10
-28.61220280266923
 20
45.87568263736475
 30
0.0
  0
SEQEND
  5
1EC
330
1E9
100
AcDbEntity
  8
0
 62
     7
420
 16777215
370
    25
  0
ENDBLK
  5
1E8
330
1E5
100
AcDbEntity
  8
0
100
AcDbBlockEnd
  0
BLOCK
  5
1EF
330
1ED
100
AcDbEntity
  8
0
100
AcDbBlockBegin
  2
block 62
 70
     0
 10
0.0
 20
0.0
 30
0.0
  3
block 62
  1

  0
POLYLINE
  5
1F1
330
1ED
100
AcDbEntity
  8
0
 62
     7
420
 16777215
370
    25
100
AcDb2dPolyline
 66
     1
 10
0.0
 20
0.0
 30
0.0
  0
VERTEX
  5
1F2
330
1F1
100
AcDbEntity
  8
0
 62
     7
420
 16777215
370
    25
100
AcDbVertex
100
AcDb2dVertex
 10
-33.61220280266909
 20
49.5756826373652
 30
0.0
  0
VERTEX
  5
1F3
330
1F1
100
AcDbEntity
  8
0
 62
     7
420
 16777215
370
    25
100
AcDbVertex
100
AcDb2dVertex
 10
-33.61220280266909
 20
47.87568263736482
 30
0.0
  0
SEQEND
  5
1F4
330
1F1
100
AcDbEntity
  8
0
 62
     7
420
 16777215
370
    25
  0
ENDBLK
  5
1F0
330
1ED
100
AcDbEntity
  8
0
100
AcDbBlockEnd
  0
BLOCK
  5
1F7
330
1F5
100
AcDbEntity
  8
0
100
AcDbBlockBegin
  2
block 63
 70
     0
 10
0.0
 20
0.0
 30
0.0
  3
block 63
  1

  0
POLYLINE
  5
1F9
330
1F5
100
AcDbEntity
  8
0
 62
     7
420
 16777215
370
    25
100
AcDb2dPolyline
 66
     1
 10
0.0
 20
0.0
 30
0.0
  0
VERTEX
  5
1FA
330
1F9
100
AcDbEntity
  8
0
 62
     7
420
 16777215
370
    25
100
AcDbVertex
100
AcDb2dVertex
 10
-44.61220280266915
 20
45.87568263736475
 30
0.0
  0
VERTEX
  5
1FB
330
1F9
100
AcDbEntity
  8
0
 62
     7
420
 16777215
370
    25
100
AcDbVertex
100
AcDb2dVertex
 10
-43.67287180266923
 20
45.87568263736475
 30
0.0
  0
SEQEND
  5
1FC
330
1F9
100
AcDbEntity
  8
0
 62
     7
420
 16777215
370
    25
  0
ENDBLK
  5
1F8
330
1F5
100
AcDbEntity
  8
0
100
AcDbBlockEnd
  0
BLOCK
  5
1FF
330
1FD
100
AcDbEntity
  8
0
100
AcDbBlockBegin
  2
block 64
 70
     0
 10
0.0
 20
0.0
 30
0.0
  3
block 64
  1

  0
POLYLINE
  5
201
330
1FD
100
AcDbEntity
  8
0
 62
     7
420
 16777215
370
    25
100
AcDb2dPolyline
 66
     1
 10
0.0
 20
0.0
 30
0.0
  0
VERTEX
  5
202
330
201
100
AcDbEntity
  8
0
 62
     7
420
 16777215
370
    25
100
AcDbVertex
100
AcDb2dVertex
 10
-30.6122028026693
 20
47.87568263736482
 30
0.0
  0
VERTEX
  5
203
330
201
100
AcDbEntity
  8
0
 62
     7
420
 16777215
370
    25
100
AcDbVertex
100
AcDb2dVertex
 10
-33.61220280266909
 20
47.87568263736482
 30
0.0
  0
SEQEND
  5
204
330
201
100
AcDbEntity
  8
0
 62
     7
420
 16777215
370
    25
  0
ENDBLK
  5
200
330
1FD
100
AcDbEntity
  8
0
100
AcDbBlockEnd
  0
BLOCK
  5
207
330
205
100
AcDbEntity
  8
0
100
AcDbBlockBegin
  2
block 65
 70
     0
 10
0.0
 20
0.0
 30
0.0
  3
block 65
  1

  0
POLYLINE
  5
209
330
205
100
AcDbEntity
  8
0
 62
     7
420
 16777215
370
    25
100
AcDb2dPolyline
 66
     1
 10
0.0
 20
0.0
 30
0.0
  0
VERTEX
  5
20A
330
209
100
AcDbEntity
  8
0
 62
     7
420
 16777215
370
    25
100
AcDbVertex
100
AcDb2dVertex
 10
-36.09258756039859
 20
43.87568263736468
 30
0.0
  0
VERTEX
  5
20B
330
209
100
AcDbEntity
  8
0
 62
     7
420
 16777215
370
    25
100
AcDbVertex
100
AcDb2dVertex
 10
-33.67287200266915
 20
43.87568263736468
 30
0.0
  0
SEQEND
  5
20C
330
209
100
AcDbEntity
  8
0
 62
     7
420
 16777215
370
    25
  0
ENDBLK
  5
208
330
205
100
AcDbEntity
  8
0
100
AcDbBlockEnd
  0
BLOCK
  5
20F
330
20D
100
AcDbEntity
  8
0
100
AcDbBlockBegin
  2
block 66
 70
     0
 10
0.0
 20
0.0
 30
0.0
  3
block 66
  1

  0
SPLINE
  5
211
330
20D
100
AcDbEntity
  8
0
 62
     7
420
 16777215
370
    25
100
AcDbSpline
210
0.0
220
0.0
230
1.0
 70
     8
 71
     3
 72
     8
 73
     4
 74
     0
 42
0.0000000001
 43
0.0000000001
 12
1.0
 22
0.0
 32
0.0
 13
1.0
 23
0.0
 33
0.0
 40
0.0
 40
0.0
 40
0.0
 40
0.0
 40
1.0
 40
1.0
 40
1.0
 40
1.0
 10
-39.61220280266897
 20
49.57568263736455
 30
0.0
 10
-39.61220280266897
 20
49.74136806231416
 30
0.0
 10
-39.7465173777197
 20
49.87568263736488
 30
0.0
 10
-39.91220280266899
 20
49.87568263736488
 30
0.0
  0
ENDBLK
  5
210
330
20D
100
AcDbEntity
  8
0
100
AcDbBlockEnd
  0
BLOCK
  5
214
330
212
100
AcDbEntity
  8
0
100
AcDbBlockBegin
  2
block 67
 70
     0
 10
0.0
 20
0.0
 30
0.0
  3
block 67
  1

  0
POLYLINE
  5
216
330
212
100
AcDbEntity
  8
0
 62
     7
420
 16777215
370
    25
100
AcDb2dPolyline
 66
     1
 10
0.0
 20
0.0
 30
0.0
  0
VERTEX
  5
217
330
216
100
AcDbEntity
  8
0
 62
     7
420
 16777215
370
    25
100
AcDbVertex
100
AcDb2dVertex
 10
-32.91220280266906
 20
39.87568263736453
 30
0.0
  0
VERTEX
  5
218
330
216
100
AcDbEntity
  8
0
 62
     7
420
 16777215
370
    25
100
AcDbVertex
100
AcDb2dVertex
 10
-32.61220280266905
 20
39.35606739509393
 30
0.0
  0
SEQEND
  5
219
330
216
100
AcDbEntity
  8
0
 62
     7
420
 16777215
370
    25
  0
ENDBLK
  5
215
330
212
100
AcDbEntity
  8
0
100
AcDbBlockEnd
  0
BLOCK
  5
21C
330
21A
100
AcDbEntity
  8
0
100
AcDbBlockBegin
  2
block 68
 70
     0
 10
0.0
 20
0.0
 30
0.0
  3
block 68
  1

  0
POLYLINE
  5
21E
330
21A
100
AcDbEntity
  8
0
 62
     7
420
 16777215
370
    25
100
AcDb2dPolyline
 66
     1
 10
0.0
 20
0.0
 30
0.0
  0
VERTEX
  5
21F
330
21E
100
AcDbEntity
  8
0
 62
     7
420
 16777215
370
    25
100
AcDbVertex
100
AcDb2dVertex
 10
-29.55153380266915
 20
33.87568263736496
 30
0.0
  0
VERTEX
  5
220
330
21E
100
AcDbEntity
  8
0
 62
     7
420
 16777215
370
    25
100
AcDbVertex
100
AcDb2dVertex
 10
-28.61220280266923
 20
33.87568263736496
 30
0.0
  0
SEQEND
  5
221
330
21E
100
AcDbEntity
  8
0
 62
     7
420
 16777215
370
    25
  0
ENDBLK
  5
21D
330
21A
100
AcDbEntity
  8
0
100
AcDbBlockEnd
  0
BLOCK
  5
224
330
222
100
AcDbEntity
  8
0
100
AcDbBlockBegin
  2
block 69
 70
     0
 10
0.0
 20
0.0
 30
0.0
  3
block 69
  1

  0
POLYLINE
  5
226
330
222
100
AcDbEntity
  8
0
 62
     7
420
 16777215
370
    25
100
AcDb2dPolyline
 66
     1
 10
0.0
 20
0.0
 30
0.0
  0
VERTEX
  5
227
330
226
100
AcDbEntity
  8
0
 62
     7
420
 16777215
370
    25
100
AcDbVertex
100
AcDb2dVertex
 10
256.6877971473307
 20
49.87568263736488
 30
0.0
  0
VERTEX
  5
228
330
226
100
AcDbEntity
  8
0
 62
     7
420
 16777215
370
    25
100
AcDbVertex
100
AcDb2dVertex
 10
262.3877971973311
 20
49.87568263736488
 30
0.0
  0
SEQEND
  5
229
330
226
100
AcDbEntity
  8
0
 62
     7
420
 16777215
370
    25
  0
ENDBLK
  5
225
330
222
100
AcDbEntity
  8
0
100
AcDbBlockEnd
  0
BLOCK
  5
22C
330
22A
100
AcDbEntity
  8
0
100
AcDbBlockBegin
  2
block 70
 70
     0
 10
0.0
 20
0.0
 30
0.0
  3
block 70
  1

  0
SPLINE
  5
22E
330
22A
100
AcDbEntity
  8
0
 62
     7
420
 16777215
370
    25
100
AcDbSpline
210
0.0
220
0.0
230
1.0
 70
     8
 71
     3
 72
     8
 73
     4
 74
     0
 42
0.0000000001
 43
0.0000000001
 12
1.0
 22
0.0
 32
0.0
 13
1.0
 23
0.0
 33
0.0
 40
0.0
 40
0.0
 40
0.0
 40
0.0
 40
1.0
 40
1.0
 40
1.0
 40
1.0
 10
243.6877971816232
 20
36.87568269736457
 30
0.0
 10
243.5221117511512
 20
36.87568268868944
 30
0.0
 10
243.3877971786557
 20
36.7413681021292
 30
0.0
 10
243.3877971873308
 20
36.57568267165713
 30
0.0
  0
ENDBLK
  5
22D
330
22A
100
AcDbEntity
  8
0
100
AcDbBlockEnd
  0
BLOCK
  5
231
330
22F
100
AcDbEntity
  8
0
100
AcDbBlockBegin
  2
block 71
 70
     0
 10
0.0
 20
0.0
 30
0.0
  3
block 71
  1

  0
POLYLINE
  5
233
330
22F
100
AcDbEntity
  8
0
 62
     7
420
 16777215
370
    25
100
AcDb2dPolyline
 66
     1
 10
0.0
 20
0.0
 30
0.0
  0
VERTEX
  5
234
330
233
100
AcDbEntity
  8
0
 62
     7
420
 16777215
370
    25
100
AcDbVertex
100
AcDb2dVertex
 10
246.3271171973313
 20
45.87568563736487
 30
0.0
  0
VERTEX
  5
235
330
233
100
AcDbEntity
  8
0
 62
     7
420
 16777215
370
    25
100
AcDbVertex
100
AcDb2dVertex
 10
249.3877971973306
 20
42.8150122873876
 30
0.0
  0
SEQEND
  5
236
330
233
100
AcDbEntity
  8
0
 62
     7
420
 16777215
370
    25
  0
ENDBLK
  5
232
330
22F
100
AcDbEntity
  8
0
100
AcDbBlockEnd
  0
BLOCK
  5
239
330
237
100
AcDbEntity
  8
0
100
AcDbBlockBegin
  2
block 72
 70
     0
 10
0.0
 20
0.0
 30
0.0
  3
block 72
  1

  0
SPLINE
  5
23B
330
237
100
AcDbEntity
  8
0
 62
     7
420
 16777215
370
    25
100
AcDbSpline
210
0.0
220
0.0
230
1.0
 70
     8
 71
     3
 72
     8
 73
     4
 74
     0
 42
0.0000000001
 43
0.0000000001
 12
1.0
 22
0.0
 32
0.0
 13
1.0
 23
0.0
 33
0.0
 40
0.0
 40
0.0
 40
0.0
 40
0.0
 40
1.0
 40
1.0
 40
1.0
 40
1.0
 10
243.3877971973311
 20
30.87568263736486
 30
0.0
 10
243.3877971973311
 20
30.3233978875339
 30
0.0
 10
243.8355124475002
 20
29.87568263736482
 30
0.0
 10
244.3877971973311
 20
29.87568263736482
 30
0.0
  0
ENDBLK
  5
23A
330
237
100
AcDbEntity
  8
0
100
AcDbBlockEnd
  0
BLOCK
  5
23E
330
23C
100
AcDbEntity
  8
0
100
AcDbBlockBegin
  2
block 73
 70
     0
 10
0.0
 20
0.0
 30
0.0
  3
block 73
  1

  0
POLYLINE
  5
240
330
23C
100
AcDbEntity
  8
0
 62
     7
420
 16777215
370
    25
100
AcDb2dPolyline
 66
     1
 10
0.0
 20
0.0
 30
0.0
  0
VERTEX
  5
241
330
240
100
AcDbEntity
  8
0
 62
     7
420
 16777215
370
    25
100
AcDbVertex
100
AcDb2dVertex
 10
247.3877971973312
 20
47.87568263736482
 30
0.0
  0
VERTEX
  5
242
330
240
100
AcDbEntity
  8
0
 62
     7
420
 16777215
370
    25
100
AcDbVertex
100
AcDb2dVertex
 10
250.3877971973307
 20
47.87568263736482
 30
0.0
  0
SEQEND
  5
243
330
240
100
AcDbEntity
  8
0
 62
     7
420
 16777215
370
    25
  0
ENDBLK
  5
23F
330
23C
100
AcDbEntity
  8
0
100
AcDbBlockEnd
  0
BLOCK
  5
246
330
244
100
AcDbEntity
  8
0
100
AcDbBlockBegin
  2
block 74
 70
     0
 10
0.0
 20
0.0
 30
0.0
  3
block 74
  1

  0
POLYLINE
  5
248
330
244
100
AcDbEntity
  8
0
 62
     7
420
 16777215
370
    25
100
AcDb2dPolyline
 66
     1
 10
0.0
 20
0.0
 30
0.0
  0
VERTEX
  5
249
330
248
100
AcDbEntity
  8
0
 62
     7
420
 16777215
370
    25
100
AcDbVertex
100
AcDb2dVertex
 10
259.387797197331
 20
47.87568263736482
 30
0.0
  0
VERTEX
  5
24A
330
248
100
AcDbEntity
  8
0
 62
     7
420
 16777215
370
    25
100
AcDbVertex
100
AcDb2dVertex
 10
259.387797197331
 20
46.9363516373649
 30
0.0
  0
SEQEND
  5
24B
330
248
100
AcDbEntity
  8
0
 62
     7
420
 16777215
370
    25
  0
ENDBLK
  5
247
330
244
100
AcDbEntity
  8
0
100
AcDbBlockEnd
  0
BLOCK
  5
24E
330
24C
100
AcDbEntity
  8
0
100
AcDbBlockBegin
  2
block 75
 70
     0
 10
0.0
 20
0.0
 30
0.0
  3
block 75
  1

  0
SPLINE
  5
250
330
24C
100
AcDbEntity
  8
0
 62
     7
420
 16777215
370
    25
100
AcDbSpline
210
0.0
220
0.0
230
1.0
 70
     8
 71
     3
 72
     8
 73
     4
 74
     0
 42
0.0000000001
 43
0.0000000001
 12
1.0
 22
0.0
 32
0.0
 13
1.0
 23
0.0
 33
0.0
 40
0.0
 40
0.0
 40
0.0
 40
0.0
 40
1.0
 40
1.0
 40
1.0
 40
1.0
 10
263.0877971973308
 20
42.87568257736514
 30
0.0
 10
263.2534826278029
 20
42.87568257736514
 30
0.0
 10
263.3877972073307
 20
43.00999715689299
 30
0.0
 10
263.3877972073307
 20
43.17568258736507
 30
0.0
  0
ENDBLK
  5
24F
330
24C
100
AcDbEntity
  8
0
100
AcDbBlockEnd
  0
BLOCK
  5
253
330
251
100
AcDbEntity
  8
0
100
AcDbBlockBegin
  2
block 76
 70
     0
 10
0.0
 20
0.0
 30
0.0
  3
block 76
  1

  0
POLYLINE
  5
255
330
251
100
AcDbEntity
  8
0
 62
     7
420
 16777215
370
    25
100
AcDb2dPolyline
 66
     1
 10
0.0
 20
0.0
 30
0.0
  0
VERTEX
  5
256
330
255
100
AcDbEntity
  8
0
 62
     7
420
 16777215
370
    25
100
AcDbVertex
100
AcDb2dVertex
 10
250.3877971973307
 20
49.57568263736455
 30
0.0
  0
VERTEX
  5
257
330
255
100
AcDbEntity
  8
0
 62
     7
420
 16777215
370
    25
100
AcDbVertex
100
AcDb2dVertex
 10
250.3877971973307
 20
47.87568263736482
 30
0.0
  0
SEQEND
  5
258
330
255
100
AcDbEntity
  8
0
 62
     7
420
 16777215
370
    25
  0
ENDBLK
  5
254
330
251
100
AcDbEntity
  8
0
100
AcDbBlockEnd
  0
BLOCK
  5
25B
330
259
100
AcDbEntity
  8
0
100
AcDbBlockBegin
  2
block 77
 70
     0
 10
0.0
 20
0.0
 30
0.0
  3
block 77
  1

  0
POLYLINE
  5
25D
330
259
100
AcDbEntity
  8
0
 62
     7
420
 16777215
370
    25
100
AcDb2dPolyline
 66
     1
 10
0.0
 20
0.0
 30
0.0
  0
VERTEX
  5
25E
330
25D
100
AcDbEntity
  8
0
 62
     7
420
 16777215
370
    25
100
AcDbVertex
100
AcDb2dVertex
 10
249.3877971973306
 20
39.35605452009381
 30
0.0
  0
VERTEX
  5
25F
330
25D
100
AcDbEntity
  8
0
 62
     7
420
 16777215
370
    25
100
AcDbVertex
100
AcDb2dVertex
 10
249.3877971973313
 20
36.93634538736477
 30
0.0
  0
SEQEND
  5
260
330
25D
100
AcDbEntity
  8
0
 62
     7
420
 16777215
370
    25
  0
ENDBLK
  5
25C
330
259
100
AcDbEntity
  8
0
100
AcDbBlockEnd
  0
BLOCK
  5
263
330
261
100
AcDbEntity
  8
0
100
AcDbBlockBegin
  2
block 78
 70
     0
 10
0.0
 20
0.0
 30
0.0
  3
block 78
  1

  0
POLYLINE
  5
265
330
261
100
AcDbEntity
  8
0
 62
     7
420
 16777215
370
    25
100
AcDb2dPolyline
 66
     1
 10
0.0
 20
0.0
 30
0.0
  0
VERTEX
  5
266
330
265
100
AcDbEntity
  8
0
 62
     7
420
 16777215
370
    25
100
AcDbVertex
100
AcDb2dVertex
 10
245.3877971973311
 20
33.87568263736496
 30
0.0
  0
VERTEX
  5
267
330
265
100
AcDbEntity
  8
0
 62
     7
420
 16777215
370
    25
100
AcDbVertex
100
AcDb2dVertex
 10
245.3877971973311
 20
36.87568263736507
 30
0.0
  0
SEQEND
  5
268
330
265
100
AcDbEntity
  8
0
 62
     7
420
 16777215
370
    25
  0
ENDBLK
  5
264
330
261
100
AcDbEntity
  8
0
100
AcDbBlockEnd
  0
BLOCK
  5
26B
330
269
100
AcDbEntity
  8
0
100
AcDbBlockBegin
  2
block 79
 70
     0
 10
0.0
 20
0.0
 30
0.0
  3
block 79
  1

  0
POLYLINE
  5
26D
330
269
100
AcDbEntity
  8
0
 62
     7
420
 16777215
370
    25
100
AcDb2dPolyline
 66
     1
 10
0.0
 20
0.0
 30
0.0
  0
VERTEX
  5
26E
330
26D
100
AcDbEntity
  8
0
 62
     7
420
 16777215
370
    25
100
AcDbVertex
100
AcDb2dVertex
 10
257.3877971973309
 20
42.81502273736469
 30
0.0
  0
VERTEX
  5
26F
330
26D
100
AcDbEntity
  8
0
 62
     7
420
 16777215
370
    25
100
AcDbVertex
100
AcDb2dVertex
 10
257.3877971973309
 20
40.39531075463525
 30
0.0
  0
SEQEND
  5
270
330
26D
100
AcDbEntity
  8
0
 62
     7
420
 16777215
370
    25
  0
ENDBLK
  5
26C
330
269
100
AcDbEntity
  8
0
100
AcDbBlockEnd
  0
BLOCK
  5
273
330
271
100
AcDbEntity
  8
0
100
AcDbBlockBegin
  2
block 80
 70
     0
 10
0.0
 20
0.0
 30
0.0
  3
block 80
  1

  0
POLYLINE
  5
275
330
271
100
AcDbEntity
  8
0
 62
     7
420
 16777215
370
    25
100
AcDb2dPolyline
 66
     1
 10
0.0
 20
0.0
 30
0.0
  0
VERTEX
  5
276
330
275
100
AcDbEntity
  8
0
 62
     7
420
 16777215
370
    25
100
AcDbVertex
100
AcDb2dVertex
 10
257.0877971973306
 20
39.87568263736453
 30
0.0
  0
VERTEX
  5
277
330
275
100
AcDbEntity
  8
0
 62
     7
420
 16777215
370
    25
100
AcDbVertex
100
AcDb2dVertex
 10
257.3877971973309
 20
39.35606739509393
 30
0.0
  0
SEQEND
  5
278
330
275
100
AcDbEntity
  8
0
 62
     7
420
 16777215
370
    25
  0
ENDBLK
  5
274
330
271
100
AcDbEntity
  8
0
100
AcDbBlockEnd
  0
BLOCK
  5
27B
330
279
100
AcDbEntity
  8
0
100
AcDbBlockBegin
  2
block 81
 70
     0
 10
0.0
 20
0.0
 30
0.0
  3
block 81
  1

  0
POLYLINE
  5
27D
330
279
100
AcDbEntity
  8
0
 62
     7
420
 16777215
370
    25
100
AcDb2dPolyline
 66
     1
 10
0.0
 20
0.0
 30
0.0
  0
VERTEX
  5
27E
330
27D
100
AcDbEntity
  8
0
 62
     7
420
 16777215
370
    25
100
AcDbVertex
100
AcDb2dVertex
 10
249.3877971973306
 20
42.8150122873876
 30
0.0
  0
VERTEX
  5
27F
330
27D
100
AcDbEntity
  8
0
 62
     7
420
 16777215
370
    25
100
AcDbVertex
100
AcDb2dVertex
 10
249.3877971973306
 20
40.39529787963578
 30
0.0
  0
SEQEND
  5
280
330
27D
100
AcDbEntity
  8
0
 62
     7
420
 16777215
370
    25
  0
ENDBLK
  5
27C
330
279
100
AcDbEntity
  8
0
100
AcDbBlockEnd
  0
BLOCK
  5
283
330
281
100
AcDbEntity
  8
0
100
AcDbBlockBegin
  2
block 82
 70
     0
 10
0.0
 20
0.0
 30
0.0
  3
block 82
  1

  0
POLYLINE
  5
285
330
281
100
AcDbEntity
  8
0
 62
     7
420
 16777215
370
    25
100
AcDb2dPolyline
 66
     1
 10
0.0
 20
0.0
 30
0.0
  0
VERTEX
  5
286
330
285
100
AcDbEntity
  8
0
 62
     7
420
 16777215
370
    25
100
AcDbVertex
100
AcDb2dVertex
 10
260.4484661973305
 20
33.87568263736496
 30
0.0
  0
VERTEX
  5
287
330
285
100
AcDbEntity
  8
0
 62
     7
420
 16777215
370
    25
100
AcDbVertex
100
AcDb2dVertex
 10
261.3877971973311
 20
33.87568263736496
 30
0.0
  0
SEQEND
  5
288
330
285
100
AcDbEntity
  8
0
 62
     7
420
 16777215
370
    25
  0
ENDBLK
  5
284
330
281
100
AcDbEntity
  8
0
100
AcDbBlockEnd
  0
BLOCK
  5
28B
330
289
100
AcDbEntity
  8
0
100
AcDbBlockBegin
  2
block 83
 70
     0
 10
0.0
 20
0.0
 30
0.0
  3
block 83
  1

  0
POLYLINE
  5
28D
330
289
100
AcDbEntity
  8
0
 62
     7
420
 16777215
370
    25
100
AcDb2dPolyline
 66
     1
 10
0.0
 20
0.0
 30
0.0
  0
VERTEX
  5
28E
330
28D
100
AcDbEntity
  8
0
 62
     7
420
 16777215
370
    25
100
AcDbVertex
100
AcDb2dVertex
 10
257.0877971973306
 20
39.87569551236465
 30
0.0
  0
VERTEX
  5
28F
330
28D
100
AcDbEntity
  8
0
 62
     7
420
 16777215
370
    25
100
AcDbVertex
100
AcDb2dVertex
 10
257.3877971973309
 20
40.39531075463525
 30
0.0
  0
SEQEND
  5
290
330
28D
100
AcDbEntity
  8
0
 62
     7
420
 16777215
370
    25
  0
ENDBLK
  5
28C
330
289
100
AcDbEntity
  8
0
100
AcDbBlockEnd
  0
BLOCK
  5
293
330
291
100
AcDbEntity
  8
0
100
AcDbBlockBegin
  2
block 84
 70
     0
 10
0.0
 20
0.0
 30
0.0
  3
block 84
  1

  0
SPLINE
  5
295
330
291
100
AcDbEntity
  8
0
 62
     7
420
 16777215
370
    25
100
AcDbSpline
210
0.0
220
0.0
230
1.0
 70
     8
 71
     3
 72
     8
 73
     4
 74
     0
 42
0.0000000001
 43
0.0000000001
 12
1.0
 22
0.0
 32
0.0
 13
1.0
 23
0.0
 33
0.0
 40
0.0
 40
0.0
 40
0.0
 40
0.0
 40
1.0
 40
1.0
 40
1.0
 40
1.0
 10
243.3877971873308
 20
43.17568263968921
 30
0.0
 10
243.3877971584332
 20
43.00999720921713
 30
0.0
 10
243.5221117145346
 20
42.87568260626277
 30
0.0
 10
243.6877971450066
 20
42.87568257736514
 30
0.0
  0
ENDBLK
  5
294
330
291
100
AcDbEntity
  8
0
100
AcDbBlockEnd
  0
BLOCK
  5
298
330
296
100
AcDbEntity
  8
0
100
AcDbBlockBegin
  2
block 85
 70
     0
 10
0.0
 20
0.0
 30
0.0
  3
block 85
  1

  0
POLYLINE
  5
29A
330
296
100
AcDbEntity
  8
0
 62
     7
420
 16777215
370
    25
100
AcDb2dPolyline
 66
     1
 10
0.0
 20
0.0
 30
0.0
  0
VERTEX
  5
29B
330
29A
100
AcDbEntity
  8
0
 62
     7
420
 16777215
370
    25
100
AcDbVertex
100
AcDb2dVertex
 10
260.4484506973308
 20
45.87568263736475
 30
0.0
  0
VERTEX
  5
29C
330
29A
100
AcDbEntity
  8
0
 62
     7
420
 16777215
370
    25
100
AcDbVertex
100
AcDb2dVertex
 10
261.3877971973311
 20
45.87568263736475
 30
0.0
  0
SEQEND
  5
29D
330
29A
100
AcDbEntity
  8
0
 62
     7
420
 16777215
370
    25
  0
ENDBLK
  5
299
330
296
100
AcDbEntity
  8
0
100
AcDbBlockEnd
  0
BLOCK
  5
2A0
330
29E
100
AcDbEntity
  8
0
100
AcDbBlockBegin
  2
block 86
 70
     0
 10
0.0
 20
0.0
 30
0.0
  3
block 86
  1

  0
POLYLINE
  5
2A2
330
29E
100
AcDbEntity
  8
0
 62
     7
420
 16777215
370
    25
100
AcDb2dPolyline
 66
     1
 10
0.0
 20
0.0
 30
0.0
  0
VERTEX
  5
2A3
330
2A2
100
AcDbEntity
  8
0
 62
     7
420
 16777215
370
    25
100
AcDbVertex
100
AcDb2dVertex
 10
244.3877971973311
 20
49.87568263736488
 30
0.0
  0
VERTEX
  5
2A4
330
2A2
100
AcDbEntity
  8
0
 62
     7
420
 16777215
370
    25
100
AcDbVertex
100
AcDb2dVertex
 10
250.087797197331
 20
49.87568263736488
 30
0.0
  0
SEQEND
  5
2A5
330
2A2
100
AcDbEntity
  8
0
 62
     7
420
 16777215
370
    25
  0
ENDBLK
  5
2A1
330
29E
100
AcDbEntity
  8
0
100
AcDbBlockEnd
  0
BLOCK
  5
2A8
330
2A6
100
AcDbEntity
  8
0
100
AcDbBlockBegin
  2
block 87
 70
     0
 10
0.0
 20
0.0
 30
0.0
  3
block 87
  1

  0
POLYLINE
  5
2AA
330
2A6
100
AcDbEntity
  8
0
 62
     7
420
 16777215
370
    25
100
AcDb2dPolyline
 66
     1
 10
0.0
 20
0.0
 30
0.0
  0
VERTEX
  5
2AB
330
2AA
100
AcDbEntity
  8
0
 62
     7
420
 16777215
370
    25
100
AcDbVertex
100
AcDb2dVertex
 10
247.3877971973312
 20
46.93632613736484
 30
0.0
  0
VERTEX
  5
2AC
330
2AA
100
AcDbEntity
  8
0
 62
     7
420
 16777215
370
    25
100
AcDbVertex
100
AcDb2dVertex
 10
250.4484406473308
 20
43.87568263736468
 30
0.0
  0
SEQEND
  5
2AD
330
2AA
100
AcDbEntity
  8
0
 62
     7
420
 16777215
370
    25
  0
ENDBLK
  5
2A9
330
2A6
100
AcDbEntity
  8
0
100
AcDbBlockEnd
  0
BLOCK
  5
2B0
330
2AE
100
AcDbEntity
  8
0
100
AcDbBlockBegin
  2
block 88
 70
     0
 10
0.0
 20
0.0
 30
0.0
  3
block 88
  1

  0
POLYLINE
  5
2B2
330
2AE
100
AcDbEntity
  8
0
 62
     7
420
 16777215
370
    25
100
AcDb2dPolyline
 66
     1
 10
0.0
 20
0.0
 30
0.0
  0
VERTEX
  5
2B3
330
2B2
100
AcDbEntity
  8
0
 62
     7
420
 16777215
370
    25
100
AcDbVertex
100
AcDb2dVertex
 10
259.387797197331
 20
46.9363516373649
 30
0.0
  0
VERTEX
  5
2B4
330
2B2
100
AcDbEntity
  8
0
 62
     7
420
 16777215
370
    25
100
AcDbVertex
100
AcDb2dVertex
 10
256.3271279973305
 20
43.87568263736468
 30
0.0
  0
SEQEND
  5
2B5
330
2B2
100
AcDbEntity
  8
0
 62
     7
420
 16777215
370
    25
  0
ENDBLK
  5
2B1
330
2AE
100
AcDbEntity
  8
0
100
AcDbBlockEnd
  0
BLOCK
  5
2B8
330
2B6
100
AcDbEntity
  8
0
100
AcDbBlockBegin
  2
block 89
 70
     0
 10
0.0
 20
0.0
 30
0.0
  3
block 89
  1

  0
POLYLINE
  5
2BA
330
2B6
100
AcDbEntity
  8
0
 62
     7
420
 16777215
370
    25
100
AcDb2dPolyline
 66
     1
 10
0.0
 20
0.0
 30
0.0
  0
VERTEX
  5
2BB
330
2BA
100
AcDbEntity
  8
0
 62
     7
420
 16777215
370
    25
100
AcDbVertex
100
AcDb2dVertex
 10
249.687797197331
 20
39.87566976236506
 30
0.0
  0
VERTEX
  5
2BC
330
2BA
100
AcDbEntity
  8
0
 62
     7
420
 16777215
370
    25
100
AcDbVertex
100
AcDb2dVertex
 10
249.3877971973306
 20
39.35605452009381
 30
0.0
  0
SEQEND
  5
2BD
330
2BA
100
AcDbEntity
  8
0
 62
     7
420
 16777215
370
    25
  0
ENDBLK
  5
2B9
330
2B6
100
AcDbEntity
  8
0
100
AcDbBlockEnd
  0
BLOCK
  5
2C0
330
2BE
100
AcDbEntity
  8
0
100
AcDbBlockBegin
  2
block 90
 70
     0
 10
0.0
 20
0.0
 30
0.0
  3
block 90
  1

  0
POLYLINE
  5
2C2
330
2BE
100
AcDbEntity
  8
0
 62
     7
420
 16777215
370
    25
100
AcDb2dPolyline
 66
     1
 10
0.0
 20
0.0
 30
0.0
  0
VERTEX
  5
2C3
330
2C2
100
AcDbEntity
  8
0
 62
     7
420
 16777215
370
    25
100
AcDbVertex
100
AcDb2dVertex
 10
245.8127972098309
 20
29.87568263736482
 30
0.0
  0
VERTEX
  5
2C4
330
2C2
100
AcDbEntity
  8
0
 62
     7
420
 16777215
370
    25
100
AcDbVertex
100
AcDb2dVertex
 10
245.8127972098309
 20
29.87578263736499
 30
0.0
  0
SEQEND
  5
2C5
330
2C2
100
AcDbEntity
  8
0
 62
     7
420
 16777215
370
    25
  0
ENDBLK
  5
2C1
330
2BE
100
AcDbEntity
  8
0
100
AcDbBlockEnd
  0
BLOCK
  5
2C8
330
2C6
100
AcDbEntity
  8
0
100
AcDbBlockBegin
  2
block 91
 70
     0
 10
0.0
 20
0.0
 30
0.0
  3
block 91
  1

  0
POLYLINE
  5
2CA
330
2C6
100
AcDbEntity
  8
0
 62
     7
420
 16777215
370
    25
100
AcDb2dPolyline
 66
     1
 10
0.0
 20
0.0
 30
0.0
  0
VERTEX
  5
2CB
330
2CA
100
AcDbEntity
  8
0
 62
     7
420
 16777215
370
    25
100
AcDbVertex
100
AcDb2dVertex
 10
247.3877971973312
 20
47.87568263736482
 30
0.0
  0
VERTEX
  5
2CC
330
2CA
100
AcDbEntity
  8
0
 62
     7
420
 16777215
370
    25
100
AcDbVertex
100
AcDb2dVertex
 10
247.3877971973312
 20
46.93632613736484
 30
0.0
  0
SEQEND
  5
2CD
330
2CA
100
AcDbEntity
  8
0
 62
     7
420
 16777215
370
    25
  0
ENDBLK
  5
2C9
330
2C6
100
AcDbEntity
  8
0
100
AcDbBlockEnd
  0
BLOCK
  5
2D0
330
2CE
100
AcDbEntity
  8
0
100
AcDbBlockBegin
  2
block 92
 70
     0
 10
0.0
 20
0.0
 30
0.0
  3
block 92
  1

  0
POLYLINE
  5
2D2
330
2CE
100
AcDbEntity
  8
0
 62
     7
420
 16777215
370
    25
100
AcDb2dPolyline
 66
     1
 10
0.0
 20
0.0
 30
0.0
  0
VERTEX
  5
2D3
330
2D2
100
AcDbEntity
  8
0
 62
     7
420
 16777215
370
    25
100
AcDbVertex
100
AcDb2dVertex
 10
263.3877971973305
 20
48.87568263736485
 30
0.0
  0
VERTEX
  5
2D4
330
2D2
100
AcDbEntity
  8
0
 62
     7
420
 16777215
370
    25
100
AcDbVertex
100
AcDb2dVertex
 10
263.3877971973305
 20
43.17568258736507
 30
0.0
  0
SEQEND
  5
2D5
330
2D2
100
AcDbEntity
  8
0
 62
     7
420
 16777215
370
    25
  0
ENDBLK
  5
2D1
330
2CE
100
AcDbEntity
  8
0
100
AcDbBlockEnd
  0
BLOCK
  5
2D8
330
2D6
100
AcDbEntity
  8
0
100
AcDbBlockBegin
  2
block 93
 70
     0
 10
0.0
 20
0.0
 30
0.0
  3
block 93
  1

  0
POLYLINE
  5
2DA
330
2D6
100
AcDbEntity
  8
0
 62
     7
420
 16777215
370
    25
100
AcDb2dPolyline
 66
     1
 10
0.0
 20
0.0
 30
0.0
  0
VERTEX
  5
2DB
330
2DA
100
AcDbEntity
  8
0
 62
     7
420
 16777215
370
    25
100
AcDbVertex
100
AcDb2dVertex
 10
256.3877971973309
 20
49.5756826373652
 30
0.0
  0
VERTEX
  5
2DC
330
2DA
100
AcDbEntity
  8
0
 62
     7
420
 16777215
370
    25
100
AcDbVertex
100
AcDb2dVertex
 10
256.3877971973309
 20
47.87568263736482
 30
0.0
  0
SEQEND
  5
2DD
330
2DA
100
AcDbEntity
  8
0
 62
     7
420
 16777215
370
    25
  0
ENDBLK
  5
2D9
330
2D6
100
AcDbEntity
  8
0
100
AcDbBlockEnd
  0
BLOCK
  5
2E0
330
2DE
100
AcDbEntity
  8
0
100
AcDbBlockBegin
  2
block 94
 70
     0
 10
0.0
 20
0.0
 30
0.0
  3
block 94
  1

  0
POLYLINE
  5
2E2
330
2DE
100
AcDbEntity
  8
0
 62
     7
420
 16777215
370
    25
100
AcDb2dPolyline
 66
     1
 10
0.0
 20
0.0
 30
0.0
  0
VERTEX
  5
2E3
330
2E2
100
AcDbEntity
  8
0
 62
     7
420
 16777215
370
    25
100
AcDbVertex
100
AcDb2dVertex
 10
243.6877971973308
 20
36.87568263736507
 30
0.0
  0
VERTEX
  5
2E4
330
2E2
100
AcDbEntity
  8
0
 62
     7
420
 16777215
370
    25
100
AcDbVertex
100
AcDb2dVertex
 10
245.3877971973311
 20
36.87568263736507
 30
0.0
  0
SEQEND
  5
2E5
330
2E2
100
AcDbEntity
  8
0
 62
     7
420
 16777215
370
    25
  0
ENDBLK
  5
2E1
330
2DE
100
AcDbEntity
  8
0
100
AcDbBlockEnd
  0
BLOCK
  5
2E8
330
2E6
100
AcDbEntity
  8
0
100
AcDbBlockBegin
  2
block 95
 70
     0
 10
0.0
 20
0.0
 30
0.0
  3
block 95
  1

  0
POLYLINE
  5
2EA
330
2E6
100
AcDbEntity
  8
0
 62
     7
420
 16777215
370
    25
100
AcDb2dPolyline
 66
     1
 10
0.0
 20
0.0
 30
0.0
  0
VERTEX
  5
2EB
330
2EA
100
AcDbEntity
  8
0
 62
     7
420
 16777215
370
    25
100
AcDbVertex
100
AcDb2dVertex
 10
244.3877971973311
 20
29.87568263736482
 30
0.0
  0
VERTEX
  5
2EC
330
2EA
100
AcDbEntity
  8
0
 62
     7
420
 16777215
370
    25
100
AcDbVertex
100
AcDb2dVertex
 10
250.0877972473309
 20
29.87568263736482
 30
0.0
  0
SEQEND
  5
2ED
330
2EA
100
AcDbEntity
  8
0
 62
     7
420
 16777215
370
    25
  0
ENDBLK
  5
2E9
330
2E6
100
AcDbEntity
  8
0
100
AcDbBlockEnd
  0
BLOCK
  5
2F0
330
2EE
100
AcDbEntity
  8
0
100
AcDbBlockBegin
  2
block 96
 70
     0
 10
0.0
 20
0.0
 30
0.0
  3
block 96
  1

  0
SPLINE
  5
2F2
330
2EE
100
AcDbEntity
  8
0
 62
     7
420
 16777215
370
    25
100
AcDbSpline
210
0.0
220
0.0
230
1.0
 70
     8
 71
     3
 72
     8
 73
     4
 74
     0
 42
0.0000000001
 43
0.0000000001
 12
1.0
 22
0.0
 32
0.0
 13
1.0
 23
0.0
 33
0.0
 40
0.0
 40
0.0
 40
0.0
 40
0.0
 40
1.0
 40
1.0
 40
1.0
 40
1.0
 10
250.3877971973307
 20
49.57568263736455
 30
0.0
 10
250.3877971973307
 20
49.74136806231416
 30
0.0
 10
250.25348262228
 20
49.87568263736488
 30
0.0
 10
250.087797197331
 20
49.87568263736488
 30
0.0
  0
ENDBLK
  5
2F1
330
2EE
100
AcDbEntity
  8
0
100
AcDbBlockEnd
  0
BLOCK
  5
2F5
330
2F3
100
AcDbEntity
  8
0
100
AcDbBlockBegin
  2
block 97
 70
     0
 10
0.0
 20
0.0
 30
0.0
  3
block 97
  1

  0
SPLINE
  5
2F7
330
2F3
100
AcDbEntity
  8
0
 62
     7
420
 16777215
370
    25
100
AcDbSpline
210
0.0
220
0.0
230
1.0
 70
     8
 71
     3
 72
     8
 73
     4
 74
     0
 42
0.0000000001
 43
0.0000000001
 12
1.0
 22
0.0
 32
0.0
 13
1.0
 23
0.0
 33
0.0
 40
0.0
 40
0.0
 40
0.0
 40
0.0
 40
1.0
 40
1.0
 40
1.0
 40
1.0
 10
256.6877971316231
 20
49.87568264736512
 30
0.0
 10
256.5221117011511
 20
49.87568263868936
 30
0.0
 10
256.3877971286556
 20
49.74136805212911
 30
0.0
 10
256.3877971373307
 20
49.57568262165704
 30
0.0
  0
ENDBLK
  5
2F6
330
2F3
100
AcDbEntity
  8
0
100
AcDbBlockEnd
  0
BLOCK
  5
2FA
330
2F8
100
AcDbEntity
  8
0
100
AcDbBlockBegin
  2
block 98
 70
     0
 10
0.0
 20
0.0
 30
0.0
  3
block 98
  1

  0
SPLINE
  5
2FC
330
2F8
100
AcDbEntity
  8
0
 62
     7
420
 16777215
370
    25
100
AcDbSpline
210
0.0
220
0.0
230
1.0
 70
     8
 71
     3
 72
     8
 73
     4
 74
     0
 42
0.0000000001
 43
0.0000000001
 12
1.0
 22
0.0
 32
0.0
 13
1.0
 23
0.0
 33
0.0
 40
0.0
 40
0.0
 40
0.0
 40
0.0
 40
1.0
 40
1.0
 40
1.0
 40
1.0
 10
263.3877971973305
 20
48.87568263736485
 30
0.0
 10
263.3877971973305
 20
49.42796738719517
 30
0.0
 10
262.9400819471614
 20
49.87568263736488
 30
0.0
 10
262.3877971973311
 20
49.87568263736488
 30
0.0
  0
ENDBLK
  5
2FB
330
2F8
100
AcDbEntity
  8
0
100
AcDbBlockEnd
  0
BLOCK
  5
2FF
330
2FD
100
AcDbEntity
  8
0
100
AcDbBlockBegin
  2
block 99
 70
     0
 10
0.0
 20
0.0
 30
0.0
  3
block 99
  1

  0
POLYLINE
  5
301
330
2FD
100
AcDbEntity
  8
0
 62
     7
420
 16777215
370
    25
100
AcDb2dPolyline
 66
     1
 10
0.0
 20
0.0
 30
0.0
  0
VERTEX
  5
302
330
301
100
AcDbEntity
  8
0
 62
     7
420
 16777215
370
    25
100
AcDbVertex
100
AcDb2dVertex
 10
260.4484511973305
 20
45.87568563736487
 30
0.0
  0
VERTEX
  5
303
330
301
100
AcDbEntity
  8
0
 62
     7
420
 16777215
370
    25
100
AcDbVertex
100
AcDb2dVertex
 10
257.3877971973309
 20
42.81502273736469
 30
0.0
  0
SEQEND
  5
304
330
301
100
AcDbEntity
  8
0
 62
     7
420
 16777215
370
    25
  0
ENDBLK
  5
300
330
2FD
100
AcDbEntity
  8
0
100
AcDbBlockEnd
  0
BLOCK
  5
307
330
305
100
AcDbEntity
  8
0
100
AcDbBlockBegin
  2
block 100
 70
     0
 10
0.0
 20
0.0
 30
0.0
  3
block 100
  1

  0
SPLINE
  5
309
330
305
100
AcDbEntity
  8
0
 62
     7
420
 16777215
370
    25
100
AcDbSpline
210
0.0
220
0.0
230
1.0
 70
     8
 71
     3
 72
     8
 73
     4
 74
     0
 42
0.0000000001
 43
0.0000000001
 12
1.0
 22
0.0
 32
0.0
 13
1.0
 23
0.0
 33
0.0
 40
0.0
 40
0.0
 40
0.0
 40
0.0
 40
1.0
 40
1.0
 40
1.0
 40
1.0
 10
244.3877971973311
 20
49.87568263736488
 30
0.0
 10
243.8355124475002
 20
49.87568263736488
 30
0.0
 10
243.3877971973311
 20
49.42796738719517
 30
0.0
 10
243.3877971973311
 20
48.87568263736485
 30
0.0
  0
ENDBLK
  5
308
330
305
100
AcDbEntity
  8
0
100
AcDbBlockEnd
  0
BLOCK
  5
30C
330
30A
100
AcDbEntity
  8
0
100
AcDbBlockBegin
  2
block 101
 70
     0
 10
0.0
 20
0.0
 30
0.0
  3
block 101
  1

  0
POLYLINE
  5
30E
330
30A
100
AcDbEntity
  8
0
 62
     7
420
 16777215
370
    25
100
AcDb2dPolyline
 66
     1
 10
0.0
 20
0.0
 30
0.0
  0
VERTEX
  5
30F
330
30E
100
AcDbEntity
  8
0
 62
     7
420
 16777215
370
    25
100
AcDbVertex
100
AcDb2dVertex
 10
261.3877971973311
 20
33.87568263736496
 30
0.0
  0
VERTEX
  5
310
330
30E
100
AcDbEntity
  8
0
 62
     7
420
 16777215
370
    25
100
AcDbVertex
100
AcDb2dVertex
 10
261.3877971973311
 20
36.87568263736507
 30
0.0
  0
SEQEND
  5
311
330
30E
100
AcDbEntity
  8
0
 62
     7
420
 16777215
370
    25
  0
ENDBLK
  5
30D
330
30A
100
AcDbEntity
  8
0
100
AcDbBlockEnd
  0
BLOCK
  5
314
330
312
100
AcDbEntity
  8
0
100
AcDbBlockBegin
  2
block 102
 70
     0
 10
0.0
 20
0.0
 30
0.0
  3
block 102
  1

  0
POLYLINE
  5
316
330
312
100
AcDbEntity
  8
0
 62
     7
420
 16777215
370
    25
100
AcDb2dPolyline
 66
     1
 10
0.0
 20
0.0
 30
0.0
  0
VERTEX
  5
317
330
316
100
AcDbEntity
  8
0
 62
     7
420
 16777215
370
    25
100
AcDbVertex
100
AcDb2dVertex
 10
263.3877971973305
 20
36.57568268736464
 30
0.0
  0
VERTEX
  5
318
330
316
100
AcDbEntity
  8
0
 62
     7
420
 16777215
370
    25
100
AcDbVertex
100
AcDb2dVertex
 10
263.3877971973305
 20
30.87568263736486
 30
0.0
  0
SEQEND
  5
319
330
316
100
AcDbEntity
  8
0
 62
     7
420
 16777215
370
    25
  0
ENDBLK
  5
315
330
312
100
AcDbEntity
  8
0
100
AcDbBlockEnd
  0
BLOCK
  5
31C
330
31A
100
AcDbEntity
  8
0
100
AcDbBlockBegin
  2
block 103
 70
     0
 10
0.0
 20
0.0
 30
0.0
  3
block 103
  1

  0
POLYLINE
  5
31E
330
31A
100
AcDbEntity
  8
0
 62
     7
420
 16777215
370
    25
100
AcDb2dPolyline
 66
     1
 10
0.0
 20
0.0
 30
0.0
  0
VERTEX
  5
31F
330
31E
100
AcDbEntity
  8
0
 62
     7
420
 16777215
370
    25
100
AcDbVertex
100
AcDb2dVertex
 10
243.3877971973311
 20
48.87568263736485
 30
0.0
  0
VERTEX
  5
320
330
31E
100
AcDbEntity
  8
0
 62
     7
420
 16777215
370
    25
100
AcDbVertex
100
AcDb2dVertex
 10
243.3877971973311
 20
43.17568258736507
 30
0.0
  0
SEQEND
  5
321
330
31E
100
AcDbEntity
  8
0
 62
     7
420
 16777215
370
    25
  0
ENDBLK
  5
31D
330
31A
100
AcDbEntity
  8
0
100
AcDbBlockEnd
  0
BLOCK
  5
324
330
322
100
AcDbEntity
  8
0
100
AcDbBlockBegin
  2
block 104
 70
     0
 10
0.0
 20
0.0
 30
0.0
  3
block 104
  1

  0
POLYLINE
  5
326
330
322
100
AcDbEntity
  8
0
 62
     7
420
 16777215
370
    25
100
AcDb2dPolyline
 66
     1
 10
0.0
 20
0.0
 30
0.0
  0
VERTEX
  5
327
330
326
100
AcDbEntity
  8
0
 62
     7
420
 16777215
370
    25
100
AcDbVertex
100
AcDb2dVertex
 10
245.3877971973311
 20
45.87568263736475
 30
0.0
  0
VERTEX
  5
328
330
326
100
AcDbEntity
  8
0
 62
     7
420
 16777215
370
    25
100
AcDbVertex
100
AcDb2dVertex
 10
246.3271281973311
 20
45.87568263736475
 30
0.0
  0
SEQEND
  5
329
330
326
100
AcDbEntity
  8
0
 62
     7
420
 16777215
370
    25
  0
ENDBLK
  5
325
330
322
100
AcDbEntity
  8
0
100
AcDbBlockEnd
  0
BLOCK
  5
32C
330
32A
100
AcDbEntity
  8
0
100
AcDbBlockBegin
  2
block 105
 70
     0
 10
0.0
 20
0.0
 30
0.0
  3
block 105
  1

  0
POLYLINE
  5
32E
330
32A
100
AcDbEntity
  8
0
 62
     7
420
 16777215
370
    25
100
AcDb2dPolyline
 66
     1
 10
0.0
 20
0.0
 30
0.0
  0
VERTEX
  5
32F
330
32E
100
AcDbEntity
  8
0
 62
     7
420
 16777215
370
    25
100
AcDbVertex
100
AcDb2dVertex
 10
259.387797197331
 20
47.87568263736482
 30
0.0
  0
VERTEX
  5
330
330
32E
100
AcDbEntity
  8
0
 62
     7
420
 16777215
370
    25
100
AcDbVertex
100
AcDb2dVertex
 10
256.3877971973309
 20
47.87568263736482
 30
0.0
  0
SEQEND
  5
331
330
32E
100
AcDbEntity
  8
0
 62
     7
420
 16777215
370
    25
  0
ENDBLK
  5
32D
330
32A
100
AcDbEntity
  8
0
100
AcDbBlockEnd
  0
BLOCK
  5
334
330
332
100
AcDbEntity
  8
0
100
AcDbBlockBegin
  2
block 106
 70
     0
 10
0.0
 20
0.0
 30
0.0
  3
block 106
  1

  0
POLYLINE
  5
336
330
332
100
AcDbEntity
  8
0
 62
     7
420
 16777215
370
    25
100
AcDb2dPolyline
 66
     1
 10
0.0
 20
0.0
 30
0.0
  0
VERTEX
  5
337
330
336
100
AcDbEntity
  8
0
 62
     7
420
 16777215
370
    25
100
AcDbVertex
100
AcDb2dVertex
 10
257.3877971973309
 20
39.35606739509393
 30
0.0
  0
VERTEX
  5
338
330
336
100
AcDbEntity
  8
0
 62
     7
420
 16777215
370
    25
100
AcDbVertex
100
AcDb2dVertex
 10
257.3877971973309
 20
36.93633443736488
 30
0.0
  0
SEQEND
  5
339
330
336
100
AcDbEntity
  8
0
 62
     7
420
 16777215
370
    25
  0
ENDBLK
  5
335
330
332
100
AcDbEntity
  8
0
100
AcDbBlockEnd
  0
BLOCK
  5
33C
330
33A
100
AcDbEntity
  8
0
100
AcDbBlockBegin
  2
block 107
 70
     0
 10
0.0
 20
0.0
 30
0.0
  3
block 107
  1

  0
POLYLINE
  5
33E
330
33A
100
AcDbEntity
  8
0
 62
     7
420
 16777215
370
    25
100
AcDb2dPolyline
 66
     1
 10
0.0
 20
0.0
 30
0.0
  0
VERTEX
  5
33F
330
33E
100
AcDbEntity
  8
0
 62
     7
420
 16777215
370
    25
100
AcDbVertex
100
AcDb2dVertex
 10
253.3877843223307
 20
43.57568263736498
 30
0.0
  0
VERTEX
  5
340
330
33E
100
AcDbEntity
  8
0
 62
     7
420
 16777215
370
    25
100
AcDbVertex
100
AcDb2dVertex
 10
252.8681690800601
 20
43.87568263736468
 30
0.0
  0
SEQEND
  5
341
330
33E
100
AcDbEntity
  8
0
 62
     7
420
 16777215
370
    25
  0
ENDBLK
  5
33D
330
33A
100
AcDbEntity
  8
0
100
AcDbBlockEnd
  0
BLOCK
  5
344
330
342
100
AcDbEntity
  8
0
100
AcDbBlockBegin
  2
block 108
 70
     0
 10
0.0
 20
0.0
 30
0.0
  3
block 108
  1

  0
POLYLINE
  5
346
330
342
100
AcDbEntity
  8
0
 62
     7
420
 16777215
370
    25
100
AcDb2dPolyline
 66
     1
 10
0.0
 20
0.0
 30
0.0
  0
VERTEX
  5
347
330
346
100
AcDbEntity
  8
0
 62
     7
420
 16777215
370
    25
100
AcDbVertex
100
AcDb2dVertex
 10
256.6877971473307
 20
29.87568263736482
 30
0.0
  0
VERTEX
  5
348
330
346
100
AcDbEntity
  8
0
 62
     7
420
 16777215
370
    25
100
AcDbVertex
100
AcDb2dVertex
 10
262.3877971973311
 20
29.87568263736482
 30
0.0
  0
SEQEND
  5
349
330
346
100
AcDbEntity
  8
0
 62
     7
420
 16777215
370
    25
  0
ENDBLK
  5
345
330
342
100
AcDbEntity
  8
0
100
AcDbBlockEnd
  0
BLOCK
  5
34C
330
34A
100
AcDbEntity
  8
0
100
AcDbBlockBegin
  2
block 109
 70
     0
 10
0.0
 20
0.0
 30
0.0
  3
block 109
  1

  0
POLYLINE
  5
34E
330
34A
100
AcDbEntity
  8
0
 62
     7
420
 16777215
370
    25
100
AcDb2dPolyline
 66
     1
 10
0.0
 20
0.0
 30
0.0
  0
VERTEX
  5
34F
330
34E
100
AcDbEntity
  8
0
 62
     7
420
 16777215
370
    25
100
AcDbVertex
100
AcDb2dVertex
 10
261.3877971973311
 20
45.87568263736475
 30
0.0
  0
VERTEX
  5
350
330
34E
100
AcDbEntity
  8
0
 62
     7
420
 16777215
370
    25
100
AcDbVertex
100
AcDb2dVertex
 10
261.3877971973311
 20
42.87568263736464
 30
0.0
  0
SEQEND
  5
351
330
34E
100
AcDbEntity
  8
0
 62
     7
420
 16777215
370
    25
  0
ENDBLK
  5
34D
330
34A
100
AcDbEntity
  8
0
100
AcDbBlockEnd
  0
BLOCK
  5
354
330
352
100
AcDbEntity
  8
0
100
AcDbBlockBegin
  2
block 110
 70
     0
 10
0.0
 20
0.0
 30
0.0
  3
block 110
  1

  0
POLYLINE
  5
356
330
352
100
AcDbEntity
  8
0
 62
     7
420
 16777215
370
    25
100
AcDb2dPolyline
 66
     1
 10
0.0
 20
0.0
 30
0.0
  0
VERTEX
  5
357
330
356
100
AcDbEntity
  8
0
 62
     7
420
 16777215
370
    25
100
AcDbVertex
100
AcDb2dVertex
 10
245.3877971973311
 20
45.87568263736475
 30
0.0
  0
VERTEX
  5
358
330
356
100
AcDbEntity
  8
0
 62
     7
420
 16777215
370
    25
100
AcDbVertex
100
AcDb2dVertex
 10
245.3877971973311
 20
42.87568263736464
 30
0.0
  0
SEQEND
  5
359
330
356
100
AcDbEntity
  8
0
 62
     7
420
 16777215
370
    25
  0
ENDBLK
  5
355
330
352
100
AcDbEntity
  8
0
100
AcDbBlockEnd
  0
BLOCK
  5
35C
330
35A
100
AcDbEntity
  8
0
100
AcDbBlockBegin
  2
block 111
 70
     0
 10
0.0
 20
0.0
 30
0.0
  3
block 111
  1

  0
POLYLINE
  5
35E
330
35A
100
AcDbEntity
  8
0
 62
     7
420
 16777215
370
    25
100
AcDb2dPolyline
 66
     1
 10
0.0
 20
0.0
 30
0.0
  0
VERTEX
  5
35F
330
35E
100
AcDbEntity
  8
0
 62
     7
420
 16777215
370
    25
100
AcDbVertex
100
AcDb2dVertex
 10
260.4484506973308
 20
33.87567263736456
 30
0.0
  0
VERTEX
  5
360
330
35E
100
AcDbEntity
  8
0
 62
     7
420
 16777215
370
    25
100
AcDbVertex
100
AcDb2dVertex
 10
257.3877971973309
 20
36.93633443736488
 30
0.0
  0
SEQEND
  5
361
330
35E
100
AcDbEntity
  8
0
 62
     7
420
 16777215
370
    25
  0
ENDBLK
  5
35D
330
35A
100
AcDbEntity
  8
0
100
AcDbBlockEnd
  0
BLOCK
  5
364
330
362
100
AcDbEntity
  8
0
100
AcDbBlockBegin
  2
block 112
 70
     0
 10
0.0
 20
0.0
 30
0.0
  3
block 112
  1

  0
SPLINE
  5
366
330
362
100
AcDbEntity
  8
0
 62
     7
420
 16777215
370
    25
100
AcDbSpline
210
0.0
220
0.0
230
1.0
 70
     8
 71
     3
 72
     8
 73
     4
 74
     0
 42
0.0000000001
 43
0.0000000001
 12
1.0
 22
0.0
 32
0.0
 13
1.0
 23
0.0
 33
0.0
 40
0.0
 40
0.0
 40
0.0
 40
0.0
 40
1.0
 40
1.0
 40
1.0
 40
1.0
 10
263.3877972073307
 20
36.57568268736464
 30
0.0
 10
263.3877972073307
 20
36.74136811783671
 30
0.0
 10
263.2534826278029
 20
36.87568269736457
 30
0.0
 10
263.0877971973308
 20
36.87568269736457
 30
0.0
  0
ENDBLK
  5
365
330
362
100
AcDbEntity
  8
0
100
AcDbBlockEnd
  0
BLOCK
  5
369
330
367
100
AcDbEntity
  8
0
100
AcDbBlockBegin
  2
block 113
 70
     0
 10
0.0
 20
0.0
 30
0.0
  3
block 113
  1

  0
POLYLINE
  5
36B
330
367
100
AcDbEntity
  8
0
 62
     7
420
 16777215
370
    25
100
AcDb2dPolyline
 66
     1
 10
0.0
 20
0.0
 30
0.0
  0
VERTEX
  5
36C
330
36B
100
AcDbEntity
  8
0
 62
     7
420
 16777215
370
    25
100
AcDbVertex
100
AcDb2dVertex
 10
249.687797197331
 20
39.87568263736453
 30
0.0
  0
VERTEX
  5
36D
330
36B
100
AcDbEntity
  8
0
 62
     7
420
 16777215
370
    25
100
AcDbVertex
100
AcDb2dVertex
 10
249.3877971973306
 20
40.39529787963578
 30
0.0
  0
SEQEND
  5
36E
330
36B
100
AcDbEntity
  8
0
 62
     7
420
 16777215
370
    25
  0
ENDBLK
  5
36A
330
367
100
AcDbEntity
  8
0
100
AcDbBlockEnd
  0
BLOCK
  5
371
330
36F
100
AcDbEntity
  8
0
100
AcDbBlockBegin
  2
block 114
 70
     0
 10
0.0
 20
0.0
 30
0.0
  3
block 114
  1

  0
POLYLINE
  5
373
330
36F
100
AcDbEntity
  8
0
 62
     7
420
 16777215
370
    25
100
AcDb2dPolyline
 66
     1
 10
0.0
 20
0.0
 30
0.0
  0
VERTEX
  5
374
330
373
100
AcDbEntity
  8
0
 62
     7
420
 16777215
370
    25
100
AcDbVertex
100
AcDb2dVertex
 10
243.3877971973311
 20
36.57568268736464
 30
0.0
  0
VERTEX
  5
375
330
373
100
AcDbEntity
  8
0
 62
     7
420
 16777215
370
    25
100
AcDbVertex
100
AcDb2dVertex
 10
243.3877971973311
 20
30.87568263736486
 30
0.0
  0
SEQEND
  5
376
330
373
100
AcDbEntity
  8
0
 62
     7
420
 16777215
370
    25
  0
ENDBLK
  5
372
330
36F
100
AcDbEntity
  8
0
100
AcDbBlockEnd
  0
BLOCK
  5
379
330
377
100
AcDbEntity
  8
0
100
AcDbBlockBegin
  2
block 115
 70
     0
 10
0.0
 20
0.0
 30
0.0
  3
block 115
  1

  0
POLYLINE
  5
37B
330
377
100
AcDbEntity
  8
0
 62
     7
420
 16777215
370
    25
100
AcDb2dPolyline
 66
     1
 10
0.0
 20
0.0
 30
0.0
  0
VERTEX
  5
37C
330
37B
100
AcDbEntity
  8
0
 62
     7
420
 16777215
370
    25
100
AcDbVertex
100
AcDb2dVertex
 10
263.0877971973308
 20
36.87568263736507
 30
0.0
  0
VERTEX
  5
37D
330
37B
100
AcDbEntity
  8
0
 62
     7
420
 16777215
370
    25
100
AcDbVertex
100
AcDb2dVertex
 10
261.3877971973311
 20
36.87568263736507
 30
0.0
  0
SEQEND
  5
37E
330
37B
100
AcDbEntity
  8
0
 62
     7
420
 16777215
370
    25
  0
ENDBLK
  5
37A
330
377
100
AcDbEntity
  8
0
100
AcDbBlockEnd
  0
BLOCK
  5
381
330
37F
100
AcDbEntity
  8
0
100
AcDbBlockBegin
  2
block 116
 70
     0
 10
0.0
 20
0.0
 30
0.0
  3
block 116
  1

  0
POLYLINE
  5
383
330
37F
100
AcDbEntity
  8
0
 62
     7
420
 16777215
370
    25
100
AcDb2dPolyline
 66
     1
 10
0.0
 20
0.0
 30
0.0
  0
VERTEX
  5
384
330
383
100
AcDbEntity
  8
0
 62
     7
420
 16777215
370
    25
100
AcDbVertex
100
AcDb2dVertex
 10
250.4484406473308
 20
43.87568263736468
 30
0.0
  0
VERTEX
  5
385
330
383
100
AcDbEntity
  8
0
 62
     7
420
 16777215
370
    25
100
AcDbVertex
100
AcDb2dVertex
 10
252.8681690800601
 20
43.87568263736468
 30
0.0
  0
SEQEND
  5
386
330
383
100
AcDbEntity
  8
0
 62
     7
420
 16777215
370
    25
  0
ENDBLK
  5
382
330
37F
100
AcDbEntity
  8
0
100
AcDbBlockEnd
  0
BLOCK
  5
389
330
387
100
AcDbEntity
  8
0
100
AcDbBlockBegin
  2
block 117
 70
     0
 10
0.0
 20
0.0
 30
0.0
  3
block 117
  1

  0
POLYLINE
  5
38B
330
387
100
AcDbEntity
  8
0
 62
     7
420
 16777215
370
    25
100
AcDb2dPolyline
 66
     1
 10
0.0
 20
0.0
 30
0.0
  0
VERTEX
  5
38C
330
38B
100
AcDbEntity
  8
0
 62
     7
420
 16777215
370
    25
100
AcDbVertex
100
AcDb2dVertex
 10
246.3271286973307
 20
33.875683637365
 30
0.0
  0
VERTEX
  5
38D
330
38B
100
AcDbEntity
  8
0
 62
     7
420
 16777215
370
    25
100
AcDbVertex
100
AcDb2dVertex
 10
249.3877971973313
 20
36.93634538736477
 30
0.0
  0
SEQEND
  5
38E
330
38B
100
AcDbEntity
  8
0
 62
     7
420
 16777215
370
    25
  0
ENDBLK
  5
38A
330
387
100
AcDbEntity
  8
0
100
AcDbBlockEnd
  0
BLOCK
  5
391
330
38F
100
AcDbEntity
  8
0
100
AcDbBlockBegin
  2
block 118
 70
     0
 10
0.0
 20
0.0
 30
0.0
  3
block 118
  1

  0
POLYLINE
  5
393
330
38F
100
AcDbEntity
  8
0
 62
     7
420
 16777215
370
    25
100
AcDb2dPolyline
 66
     1
 10
0.0
 20
0.0
 30
0.0
  0
VERTEX
  5
394
330
393
100
AcDbEntity
  8
0
 62
     7
420
 16777215
370
    25
100
AcDbVertex
100
AcDb2dVertex
 10
243.6877971973308
 20
42.87568263736464
 30
0.0
  0
VERTEX
  5
395
330
393
100
AcDbEntity
  8
0
 62
     7
420
 16777215
370
    25
100
AcDbVertex
100
AcDb2dVertex
 10
245.3877971973311
 20
42.87568263736464
 30
0.0
  0
SEQEND
  5
396
330
393
100
AcDbEntity
  8
0
 62
     7
420
 16777215
370
    25
  0
ENDBLK
  5
392
330
38F
100
AcDbEntity
  8
0
100
AcDbBlockEnd
  0
BLOCK
  5
399
330
397
100
AcDbEntity
  8
0
100
AcDbBlockBegin
  2
block 119
 70
     0
 10
0.0
 20
0.0
 30
0.0
  3
block 119
  1

  0
SPLINE
  5
39B
330
397
100
AcDbEntity
  8
0
 62
     7
420
 16777215
370
    25
100
AcDbSpline
210
0.0
220
0.0
230
1.0
 70
     8
 71
     3
 72
     8
 73
     4
 74
     0
 42
0.0000000001
 43
0.0000000001
 12
1.0
 22
0.0
 32
0.0
 13
1.0
 23
0.0
 33
0.0
 40
0.0
 40
0.0
 40
0.0
 40
0.0
 40
1.0
 40
1.0
 40
1.0
 40
1.0
 10
262.3877971973311
 20
29.87568263736482
 30
0.0
 10
262.9400819471614
 20
29.87568263736482
 30
0.0
 10
263.3877971973311
 20
30.3233978875339
 30
0.0
 10
263.3877971973311
 20
30.87568263736486
 30
0.0
  0
ENDBLK
  5
39A
330
397
100
AcDbEntity
  8
0
100
AcDbBlockEnd
  0
BLOCK
  5
39E
330
39C
100
AcDbEntity
  8
0
100
AcDbBlockBegin
  2
block 120
 70
     0
 10
0.0
 20
0.0
 30
0.0
  3
block 120
  1

  0
POLYLINE
  5
3A0
330
39C
100
AcDbEntity
  8
0
 62
     7
420
 16777215
370
    25
100
AcDb2dPolyline
 66
     1
 10
0.0
 20
0.0
 30
0.0
  0
VERTEX
  5
3A1
330
3A0
100
AcDbEntity
  8
0
 62
     7
420
 16777215
370
    25
100
AcDbVertex
100
AcDb2dVertex
 10
253.3877971973308
 20
43.57568263736498
 30
0.0
  0
VERTEX
  5
3A2
330
3A0
100
AcDbEntity
  8
0
 62
     7
420
 16777215
370
    25
100
AcDbVertex
100
AcDb2dVertex
 10
253.9074124396014
 20
43.87568263736468
 30
0.0
  0
SEQEND
  5
3A3
330
3A0
100
AcDbEntity
  8
0
 62
     7
420
 16777215
370
    25
  0
ENDBLK
  5
39F
330
39C
100
AcDbEntity
  8
0
100
AcDbBlockEnd
  0
BLOCK
  5
3A6
330
3A4
100
AcDbEntity
  8
0
100
AcDbBlockBegin
  2
block 121
 70
     0
 10
0.0
 20
0.0
 30
0.0
  3
block 121
  1

  0
POLYLINE
  5
3A8
330
3A4
100
AcDbEntity
  8
0
 62
     7
420
 16777215
370
    25
100
AcDb2dPolyline
 66
     1
 10
0.0
 20
0.0
 30
0.0
  0
VERTEX
  5
3A9
330
3A8
100
AcDbEntity
  8
0
 62
     7
420
 16777215
370
    25
100
AcDbVertex
100
AcDb2dVertex
 10
253.9074124396014
 20
43.87568263736468
 30
0.0
  0
VERTEX
  5
3AA
330
3A8
100
AcDbEntity
  8
0
 62
     7
420
 16777215
370
    25
100
AcDbVertex
100
AcDb2dVertex
 10
256.3271279973305
 20
43.87568263736468
 30
0.0
  0
SEQEND
  5
3AB
330
3A8
100
AcDbEntity
  8
0
 62
     7
420
 16777215
370
    25
  0
ENDBLK
  5
3A7
330
3A4
100
AcDbEntity
  8
0
100
AcDbBlockEnd
  0
BLOCK
  5
3AE
330
3AC
100
AcDbEntity
  8
0
100
AcDbBlockBegin
  2
block 122
 70
     0
 10
0.0
 20
0.0
 30
0.0
  3
block 122
  1

  0
POLYLINE
  5
3B0
330
3AC
100
AcDbEntity
  8
0
 62
     7
420
 16777215
370
    25
100
AcDb2dPolyline
 66
     1
 10
0.0
 20
0.0
 30
0.0
  0
VERTEX
  5
3B1
330
3B0
100
AcDbEntity
  8
0
 62
     7
420
 16777215
370
    25
100
AcDbVertex
100
AcDb2dVertex
 10
263.0877971973308
 20
42.87568263736464
 30
0.0
  0
VERTEX
  5
3B2
330
3B0
100
AcDbEntity
  8
0
 62
     7
420
 16777215
370
    25
100
AcDbVertex
100
AcDb2dVertex
 10
261.3877971973311
 20
42.87568263736464
 30
0.0
  0
SEQEND
  5
3B3
330
3B0
100
AcDbEntity
  8
0
 62
     7
420
 16777215
370
    25
  0
ENDBLK
  5
3AF
330
3AC
100
AcDbEntity
  8
0
100
AcDbBlockEnd
  0
BLOCK
  5
3B6
330
3B4
100
AcDbEntity
  8
0
100
AcDbBlockBegin
  2
block 123
 70
     0
 10
0.0
 20
0.0
 30
0.0
  3
block 123
  1

  0
POLYLINE
  5
3B8
330
3B4
100
AcDbEntity
  8
0
 62
     7
420
 16777215
370
    25
100
AcDb2dPolyline
 66
     1
 10
0.0
 20
0.0
 30
0.0
  0
VERTEX
  5
3B9
330
3B8
100
AcDbEntity
  8
0
 62
     7
420
 16777215
370
    25
100
AcDbVertex
100
AcDb2dVertex
 10
245.3877971973311
 20
33.87568263736496
 30
0.0
  0
VERTEX
  5
3BA
330
3B8
100
AcDbEntity
  8
0
 62
     7
420
 16777215
370
    25
100
AcDbVertex
100
AcDb2dVertex
 10
246.3271281973311
 20
33.87568263736496
 30
0.0
  0
SEQEND
  5
3BB
330
3B8
100
AcDbEntity
  8
0
 62
     7
420
 16777215
370
    25
  0
ENDBLK
  5
3B7
330
3B4
100
AcDbEntity
  8
0
100
AcDbBlockEnd
  0
BLOCK
  5
3BE
330
3BC
100
AcDbEntity
  8
0
100
AcDbBlockBegin
  2
block 124
 70
     0
 10
0.0
 20
0.0
 30
0.0
  3
block 124
  1

  0
SPLINE
  5
3C0
330
3BC
100
AcDbEntity
  8
0
 62
     7
420
 16777215
370
    25
100
AcDbSpline
210
0.0
220
0.0
230
1.0
 70
    11
 71
     3
 72
    23
 73
    19
 74
     0
 42
0.0000000001
 43
0.0000000001
 12
1.0
 22
0.0
 32
0.0
 13
1.0
 23
0.0
 33
0.0
 40
0.0
 40
0.0
 40
0.0
 40
0.0
 40
1.0
 40
1.0
 40
1.0
 40
2.0
 40
2.0
 40
2.0
 40
3.0
 40
3.0
 40
3.0
 40
4.0
 40
4.0
 40
4.0
 40
5.0
 40
5.0
 40
5.0
 40
6.0
 40
6.0
 40
6.0
 40
6.0
 10
255.8877971973305
 20
60.24568150487672
 30
0.0
 10
255.8877971973305
 20
60.24568150487672
 30
0.0
 10
255.8877971973305
 20
53.20090393024765
 30
0.0
 10
255.8877971973305
 20
53.20090393024765
 30
0.0
 10
255.8877971973312
 20
51.82019205567058
 30
0.0
 10
254.7685090719079
 20
50.70090393024788
 30
0.0
 10
253.3877971973308
 20
50.70090393024788
 30
0.0
 10
252.0070853227537
 20
50.70090393024788
 30
0.0
 10
250.887797197331
 20
51.82019205567058
 30
0.0
 10
250.887797197331
 20
53.20090393024765
 30
0.0
 10
250.887797197331
 20
53.20090393024765
 30
0.0
 10
250.887797197331
 20
60.24568150487672
 30
0.0
 10
250.887797197331
 20
60.24568150487672
 30
0.0
 10
250.887797197331
 20
61.62639337945379
 30
0.0
 10
252.0070853227537
 20
62.74568150487649
 30
0.0
 10
253.3877971973308
 20
62.74568150487649
 30
0.0
 10
254.7685090719079
 20
62.74568150487649
 30
0.0
 10
255.8877971973312
 20
61.62639337945379
 30
0.0
 10
255.8877971973305
 20
60.24568150487672
 30
0.0
  0
ENDBLK
  5
3BF
330
3BC
100
AcDbEntity
  8
0
100
AcDbBlockEnd
  0
BLOCK
  5
3C3
330
3C1
100
AcDbEntity
  8
0
100
AcDbBlockBegin
  2
block 125
 70
     0
 10
0.0
 20
0.0
 30
0.0
  3
block 125
  1

  0
SPLINE
  5
3C5
330
3C1
100
AcDbEntity
  8
0
 62
     7
420
 16777215
370
    25
100
AcDbSpline
210
0.0
220
0.0
230
1.0
 70
    11
 71
     3
 72
    23
 73
    19
 74
     0
 42
0.0000000001
 43
0.0000000001
 12
1.0
 22
0.0
 32
0.0
 13
1.0
 23
0.0
 33
0.0
 40
0.0
 40
0.0
 40
0.0
 40
0.0
 40
1.0
 40
1.0
 40
1.0
 40
2.0
 40
2.0
 40
2.0
 40
3.0
 40
3.0
 40
3.0
 40
4.0
 40
4.0
 40
4.0
 40
5.0
 40
5.0
 40
5.0
 40
6.0
 40
6.0
 40
6.0
 40
6.0
 10
-39.11220280266896
 20
60.24568150487672
 30
0.0
 10
-39.11220280266896
 20
61.62639337945379
 30
0.0
 10
-37.99291467724626
 20
62.74568150487649
 30
0.0
 10
-36.6122028026692
 20
62.74568150487649
 30
0.0
 10
-35.23149092809212
 20
62.74568150487649
 30
0.0
 10
-34.1122028026691
 20
61.62639337945379
 30
0.0
 10
-34.1122028026691
 20
60.24568150487672
 30
0.0
 10
-34.1122028026691
 20
60.24568150487672
 30
0.0
 10
-34.1122028026691
 20
53.20090393024765
 30
0.0
 10
-34.1122028026691
 20
53.20090393024765
 30
0.0
 10
-34.1122028026691
 20
51.82019205567058
 30
0.0
 10
-35.23149092809212
 20
50.70090393024788
 30
0.0
 10
-36.6122028026692
 20
50.70090393024788
 30
0.0
 10
-37.99291467724626
 20
50.70090393024788
 30
0.0
 10
-39.11220280266896
 20
51.82019205567058
 30
0.0
 10
-39.11220280266896
 20
53.20090393024765
 30
0.0
 10
-39.11220280266896
 20
53.20090393024765
 30
0.0
 10
-39.11220280266896
 20
60.24568150487672
 30
0.0
 10
-39.11220280266896
 20
60.24568150487672
 30
0.0
  0
ENDBLK
  5
3C4
330
3C1
100
AcDbEntity
  8
0
100
AcDbBlockEnd
  0
ENDSEC
  0
SECTION
  2
ENTITIES
  0
INSERT
  5
41
330
1F
100
AcDbEntity
  8
0
100
AcDbBlockReference
  2
block 2
 10
0.0
 20
0.0
 30
0.0
  0
INSERT
  5
46
330
1F
100
AcDbEntity
  8
0
100
AcDbBlockReference
  2
block 3
 10
0.0
 20
0.0
 30
0.0
  0
INSERT
  5
4B
330
1F
100
AcDbEntity
  8
0
100
AcDbBlockReference
  2
block 4
 10
0.0
 20
0.0
 30
0.0
  0
INSERT
  5
50
330
1F
100
AcDbEntity
  8
0
100
AcDbBlockReference
  2
block 5
 10
0.0
 20
0.0
 30
0.0
  0
INSERT
  5
55
330
1F
100
AcDbEntity
  8
0
100
AcDbBlockReference
  2
block 6
 10
0.0
 20
0.0
 30
0.0
  0
INSERT
  5
5A
330
1F
100
AcDbEntity
  8
0
100
AcDbBlockReference
  2
block 7
 10
0.0
 20
0.0
 30
0.0
  0
INSERT
  5
5F
330
1F
100
AcDbEntity
  8
0
100
AcDbBlockReference
  2
block 8
 10
0.0
 20
0.0
 30
0.0
  0
INSERT
  5
64
330
1F
100
AcDbEntity
  8
0
100
AcDbBlockReference
  2
block 9
 10
0.0
 20
0.0
 30
0.0
  0
INSERT
  5
69
330
1F
100
AcDbEntity
  8
0
100
AcDbBlockReference
  2
block 10
 10
0.0
 20
0.0
 30
0.0
  0
INSERT
  5
6E
330
1F
100
AcDbEntity
  8
0
100
AcDbBlockReference
  2
block 11
 10
0.0
 20
0.0
 30
0.0
  0
INSERT
  5
79
330
1F
100
AcDbEntity
  8
0
100
AcDbBlockReference
  2
block 12
 10
0.0
 20
0.0
 30
0.0
  0
INSERT
  5
7E
330
1F
100
AcDbEntity
  8
0
100
AcDbBlockReference
  2
block 13
 10
0.0
 20
0.0
 30
0.0
  0
INSERT
  5
89
330
1F
100
AcDbEntity
  8
0
100
AcDbBlockReference
  2
block 14
 10
0.0
 20
0.0
 30
0.0
  0
INSERT
  5
91
330
1F
100
AcDbEntity
  8
0
100
AcDbBlockReference
  2
block 15
 10
0.0
 20
0.0
 30
0.0
  0
INSERT
  5
99
330
1F
100
AcDbEntity
  8
0
100
AcDbBlockReference
  2
block 16
 10
0.0
 20
0.0
 30
0.0
  0
INSERT
  5
A1
330
1F
100
AcDbEntity
  8
0
100
AcDbBlockReference
  2
block 17
 10
0.0
 20
0.0
 30
0.0
  0
INSERT
  5
A9
330
1F
100
AcDbEntity
  8
0
100
AcDbBlockReference
  2
block 18
 10
0.0
 20
0.0
 30
0.0
  0
INSERT
  5
B1
330
1F
100
AcDbEntity
  8
0
100
AcDbBlockReference
  2
block 19
 10
0.0
 20
0.0
 30
0.0
  0
INSERT
  5
B9
330
1F
100
AcDbEntity
  8
0
100
AcDbBlockReference
  2
block 20
 10
0.0
 20
0.0
 30
0.0
  0
INSERT
  5
C1
330
1F
100
AcDbEntity
  8
0
100
AcDbBlockReference
  2
block 21
 10
0.0
 20
0.0
 30
0.0
  0
INSERT
  5
C6
330
1F
100
AcDbEntity
  8
0
100
AcDbBlockReference
  2
block 22
 10
0.0
 20
0.0
 30
0.0
  0
INSERT
  5
CE
330
1F
100
AcDbEntity
  8
0
100
AcDbBlockReference
  2
block 23
 10
0.0
 20
0.0
 30
0.0
  0
INSERT
  5
D3
330
1F
100
AcDbEntity
  8
0
100
AcDbBlockReference
  2
block 24
 10
0.0
 20
0.0
 30
0.0
  0
INSERT
  5
DB
330
1F
100
AcDbEntity
  8
0
100
AcDbBlockReference
  2
block 25
 10
0.0
 20
0.0
 30
0.0
  0
INSERT
  5
E3
330
1F
100
AcDbEntity
  8
0
100
AcDbBlockReference
  2
block 26
 10
0.0
 20
0.0
 30
0.0
  0
INSERT
  5
E8
330
1F
100
AcDbEntity
  8
0
100
AcDbBlockReference
  2
block 27
 10
0.0
 20
0.0
 30
0.0
  0
INSERT
  5
F0
330
1F
100
AcDbEntity
  8
0
100
AcDbBlockReference
  2
block 28
 10
0.0
 20
0.0
 30
0.0
  0
INSERT
  5
F8
330
1F
100
AcDbEntity
  8
0
100
AcDbBlockReference
  2
block 29
 10
0.0
 20
0.0
 30
0.0
  0
INSERT
  5
100
330
1F
100
AcDbEntity
  8
0
100
AcDbBlockReference
  2
block 30
 10
0.0
 20
0.0
 30
0.0
  0
INSERT
  5
108
330
1F
100
AcDbEntity
  8
0
100
AcDbBlockReference
  2
block 31
 10
0.0
 20
0.0
 30
0.0
  0
INSERT
  5
110
330
1F
100
AcDbEntity
  8
0
100
AcDbBlockReference
  2
block 32
 10
0.0
 20
0.0
 30
0.0
  0
INSERT
  5
118
330
1F
100
AcDbEntity
  8
0
100
AcDbBlockReference
  2
block 33
 10
0.0
 20
0.0
 30
0.0
  0
INSERT
  5
120
330
1F
100
AcDbEntity
  8
0
100
AcDbBlockReference
  2
block 34
 10
0.0
 20
0.0
 30
0.0
  0
INSERT
  5
128
330
1F
100
AcDbEntity
  8
0
100
AcDbBlockReference
  2
block 35
 10
0.0
 20
0.0
 30
0.0
  0
INSERT
  5
130
330
1F
100
AcDbEntity
  8
0
100
AcDbBlockReference
  2
block 36
 10
0.0
 20
0.0
 30
0.0
  0
INSERT
  5
138
330
1F
100
AcDbEntity
  8
0
100
AcDbBlockReference
  2
block 37
 10
0.0
 20
0.0
 30
0.0
  0
INSERT
  5
140
330
1F
100
AcDbEntity
  8
0
100
AcDbBlockReference
  2
block 38
 10
0.0
 20
0.0
 30
0.0
  0
INSERT
  5
148
330
1F
100
AcDbEntity
  8
0
100
AcDbBlockReference
  2
block 39
 10
0.0
 20
0.0
 30
0.0
  0
INSERT
  5
150
330
1F
100
AcDbEntity
  8
0
100
AcDbBlockReference
  2
block 40
 10
0.0
 20
0.0
 30
0.0
  0
INSERT
  5
158
330
1F
100
AcDbEntity
  8
0
100
AcDbBlockReference
  2
block 41
 10
0.0
 20
0.0
 30
0.0
  0
INSERT
  5
15D
330
1F
100
AcDbEntity
  8
0
100
AcDbBlockReference
  2
block 42
 10
0.0
 20
0.0
 30
0.0
  0
INSERT
  5
165
330
1F
100
AcDbEntity
  8
0
100
AcDbBlockReference
  2
block 43
 10
0.0
 20
0.0
 30
0.0
  0
INSERT
  5
16A
330
1F
100
AcDbEntity
  8
0
100
AcDbBlockReference
  2
block 44
 10
0.0
 20
0.0
 30
0.0
  0
INSERT
  5
172
330
1F
100
AcDbEntity
  8
0
100
AcDbBlockReference
  2
block 45
 10
0.0
 20
0.0
 30
0.0
  0
INSERT
  5
177
330
1F
100
AcDbEntity
  8
0
100
AcDbBlockReference
  2
block 46
 10
0.0
 20
0.0
 30
0.0
  0
INSERT
  5
17F
330
1F
100
AcDbEntity
  8
0
100
AcDbBlockReference
  2
block 47
 10
0.0
 20
0.0
 30
0.0
  0
INSERT
  5
184
330
1F
100
AcDbEntity
  8
0
100
AcDbBlockReference
  2
block 48
 10
0.0
 20
0.0
 30
0.0
  0
INSERT
  5
18C
330
1F
100
AcDbEntity
  8
0
100
AcDbBlockReference
  2
block 49
 10
0.0
 20
0.0
 30
0.0
  0
INSERT
  5
194
330
1F
100
AcDbEntity
  8
0
100
AcDbBlockReference
  2
block 50
 10
0.0
 20
0.0
 30
0.0
  0
INSERT
  5
19C
330
1F
100
AcDbEntity
  8
0
100
AcDbBlockReference
  2
block 51
 10
0.0
 20
0.0
 30
0.0
  0
INSERT
  5
1A4
330
1F
100
AcDbEntity
  8
0
100
AcDbBlockReference
  2
block 52
 10
0.0
 20
0.0
 30
0.0
  0
INSERT
  5
1AC
330
1F
100
AcDbEntity
  8
0
100
AcDbBlockReference
  2
block 53
 10
0.0
 20
0.0
 30
0.0
  0
INSERT
  5
1B1
330
1F
100
AcDbEntity
  8
0
100
AcDbBlockReference
  2
block 54
 10
0.0
 20
0.0
 30
0.0
  0
INSERT
  5
1B9
330
1F
100
AcDbEntity
  8
0
100
AcDbBlockReference
  2
block 55
 10
0.0
 20
0.0
 30
0.0
  0
INSERT
  5
1C1
330
1F
100
AcDbEntity
  8
0
100
AcDbBlockReference
  2
block 56
 10
0.0
 20
0.0
 30
0.0
  0
INSERT
  5
1C9
330
1F
100
AcDbEntity
  8
0
100
AcDbBlockReference
  2
block 57
 10
0.0
 20
0.0
 30
0.0
  0
INSERT
  5
1CE
330
1F
100
AcDbEntity
  8
0
100
AcDbBlockReference
  2
block 58
 10
0.0
 20
0.0
 30
0.0
  0
INSERT
  5
1D6
330
1F
100
AcDbEntity
  8
0
100
AcDbBlockReference
  2
block 59
 10
0.0
 20
0.0
 30
0.0
  0
INSERT
  5
1DE
330
1F
100
AcDbEntity
  8
0
100
AcDbBlockReference
  2
block 60
 10
0.0
 20
0.0
 30
0.0
  0
INSERT
  5
1E6
330
1F
100
AcDbEntity
  8
0
100
AcDbBlockReference
  2
block 61
 10
0.0
 20
0.0
 30
0.0
  0
INSERT
  5
1EE
330
1F
100
AcDbEntity
  8
0
100
AcDbBlockReference
  2
block 62
 10
0.0
 20
0.0
 30
0.0
  0
INSERT
  5
1F6
330
1F
100
AcDbEntity
  8
0
100
AcDbBlockReference
  2
block 63
 10
0.0
 20
0.0
 30
0.0
  0
INSERT
  5
1FE
330
1F
100
AcDbEntity
  8
0
100
AcDbBlockReference
  2
block 64
 10
0.0
 20
0.0
 30
0.0
  0
INSERT
  5
206
330
1F
100
AcDbEntity
  8
0
100
AcDbBlockReference
  2
block 65
 10
0.0
 20
0.0
 30
0.0
  0
INSERT
  5
20E
330
1F
100
AcDbEntity
  8
0
100
AcDbBlockReference
  2
block 66
 10
0.0
 20
0.0
 30
0.0
  0
INSERT
  5
213
330
1F
100
AcDbEntity
  8
0
100
AcDbBlockReference
  2
block 67
 10
0.0
 20
0.0
 30
0.0
  0
INSERT
  5
21B
330
1F
100
AcDbEntity
  8
0
100
AcDbBlockReference
  2
block 68
 10
0.0
 20
0.0
 30
0.0
  0
INSERT
  5
223
330
1F
100
AcDbEntity
  8
0
100
AcDbBlockReference
  2
block 69
 10
0.0
 20
0.0
 30
0.0
  0
INSERT
  5
22B
330
1F
100
AcDbEntity
  8
0
100
AcDbBlockReference
  2
block 70
 10
0.0
 20
0.0
 30
0.0
  0
INSERT
  5
230
330
1F
100
AcDbEntity
  8
0
100
AcDbBlockReference
  2
block 71
 10
0.0
 20
0.0
 30
0.0
  0
INSERT
  5
238
330
1F
100
AcDbEntity
  8
0
100
AcDbBlockReference
  2
block 72
 10
0.0
 20
0.0
 30
0.0
  0
INSERT
  5
23D
330
1F
100
AcDbEntity
  8
0
100
AcDbBlockReference
  2
block 73
 10
0.0
 20
0.0
 30
0.0
  0
INSERT
  5
245
330
1F
100
AcDbEntity
  8
0
100
AcDbBlockReference
  2
block 74
 10
0.0
 20
0.0
 30
0.0
  0
INSERT
  5
24D
330
1F
100
AcDbEntity
  8
0
100
AcDbBlockReference
  2
block 75
 10
0.0
 20
0.0
 30
0.0
  0
INSERT
  5
252
330
1F
100
AcDbEntity
  8
0
100
AcDbBlockReference
  2
block 76
 10
0.0
 20
0.0
 30
0.0
  0
INSERT
  5
25A
330
1F
100
AcDbEntity
  8
0
100
AcDbBlockReference
  2
block 77
 10
0.0
 20
0.0
 30
0.0
  0
INSERT
  5
262
330
1F
100
AcDbEntity
  8
0
100
AcDbBlockReference
  2
block 78
 10
0.0
 20
0.0
 30
0.0
  0
INSERT
  5
26A
330
1F
100
AcDbEntity
  8
0
100
AcDbBlockReference
  2
block 79
 10
0.0
 20
0.0
 30
0.0
  0
INSERT
  5
272
330
1F
100
AcDbEntity
  8
0
100
AcDbBlockReference
  2
block 80
 10
0.0
 20
0.0
 30
0.0
  0
INSERT
  5
27A
330
1F
100
AcDbEntity
  8
0
100
AcDbBlockReference
  2
block 81
 10
0.0
 20
0.0
 30
0.0
  0
INSERT
  5
282
330
1F
100
AcDbEntity
  8
0
100
AcDbBlockReference
  2
block 82
 10
0.0
 20
0.0
 30
0.0
  0
INSERT
  5
28A
330
1F
100
AcDbEntity
  8
0
100
AcDbBlockReference
  2
block 83
 10
0.0
 20
0.0
 30
0.0
  0
INSERT
  5
292
330
1F
100
AcDbEntity
  8
0
100
AcDbBlockReference
  2
block 84
 10
0.0
 20
0.0
 30
0.0
  0
INSERT
  5
297
330
1F
100
AcDbEntity
  8
0
100
AcDbBlockReference
  2
block 85
 10
0.0
 20
0.0
 30
0.0
  0
INSERT
  5
29F
330
1F
100
AcDbEntity
  8
0
100
AcDbBlockReference
  2
block 86
 10
0.0
 20
0.0
 30
0.0
  0
INSERT
  5
2A7
330
1F
100
AcDbEntity
  8
0
100
AcDbBlockReference
  2
block 87
 10
0.0
 20
0.0
 30
0.0
  0
INSERT
  5
2AF
330
1F
100
AcDbEntity
  8
0
100
AcDbBlockReference
  2
block 88
 10
0.0
 20
0.0
 30
0.0
  0
INSERT
  5
2B7
330
1F
100
AcDbEntity
  8
0
100
AcDbBlockReference
  2
block 89
 10
0.0
 20
0.0
 30
0.0
  0
INSERT
  5
2BF
330
1F
100
AcDbEntity
  8
0
100
AcDbBlockReference
  2
block 90
 10
0.0
 20
0.0
 30
0.0
  0
INSERT
  5
2C7
330
1F
100
AcDbEntity
  8
0
100
AcDbBlockReference
  2
block 91
 10
0.0
 20
0.0
 30
0.0
  0
INSERT
  5
2CF
330
1F
100
AcDbEntity
  8
0
100
AcDbBlockReference
  2
block 92
 10
0.0
 20
0.0
 30
0.0
  0
INSERT
  5
2D7
330
1F
100
AcDbEntity
  8
0
100
AcDbBlockReference
  2
block 93
 10
0.0
 20
0.0
 30
0.0
  0
INSERT
  5
2DF
330
1F
100
AcDbEntity
  8
0
100
AcDbBlockReference
  2
block 94
 10
0.0
 20
0.0
 30
0.0
  0
INSERT
  5
2E7
330
1F
100
AcDbEntity
  8
0
100
AcDbBlockReference
  2
block 95
 10
0.0
 20
0.0
 30
0.0
  0
INSERT
  5
2EF
330
1F
100
AcDbEntity
  8
0
100
AcDbBlockReference
  2
block 96
 10
0.0
 20
0.0
 30
0.0
  0
INSERT
  5
2F4
330
1F
100
AcDbEntity
  8
0
100
AcDbBlockReference
  2
block 97
 10
0.0
 20
0.0
 30
0.0
  0
INSERT
  5
2F9
330
1F
100
AcDbEntity
  8
0
100
AcDbBlockReference
  2
block 98
 10
0.0
 20
0.0
 30
0.0
  0
INSERT
  5
2FE
330
1F
100
AcDbEntity
  8
0
100
AcDbBlockReference
  2
block 99
 10
0.0
 20
0.0
 30
0.0
  0
INSERT
  5
306
330
1F
100
AcDbEntity
  8
0
100
AcDbBlockReference
  2
block 100
 10
0.0
 20
0.0
 30
0.0
  0
INSERT
  5
30B
330
1F
100
AcDbEntity
  8
0
100
AcDbBlockReference
  2
block 101
 10
0.0
 20
0.0
 30
0.0
  0
INSERT
  5
313
330
1F
100
AcDbEntity
  8
0
100
AcDbBlockReference
  2
block 102
 10
0.0
 20
0.0
 30
0.0
  0
INSERT
  5
31B
330
1F
100
AcDbEntity
  8
0
100
AcDbBlockReference
  2
block 103
 10
0.0
 20
0.0
 30
0.0
  0
INSERT
  5
323
330
1F
100
AcDbEntity
  8
0
100
AcDbBlockReference
  2
block 104
 10
0.0
 20
0.0
 30
0.0
  0
INSERT
  5
32B
330
1F
100
AcDbEntity
  8
0
100
AcDbBlockReference
  2
block 105
 10
0.0
 20
0.0
 30
0.0
  0
INSERT
  5
333
330
1F
100
AcDbEntity
  8
0
100
AcDbBlockReference
  2
block 106
 10
0.0
 20
0.0
 30
0.0
  0
INSERT
  5
33B
330
1F
100
AcDbEntity
  8
0
100
AcDbBlockReference
  2
block 107
 10
0.0
 20
0.0
 30
0.0
  0
INSERT
  5
343
330
1F
100
AcDbEntity
  8
0
100
AcDbBlockReference
  2
block 108
 10
0.0
 20
0.0
 30
0.0
  0
INSERT
  5
34B
330
1F
100
AcDbEntity
  8
0
100
AcDbBlockReference
  2
block 109
 10
0.0
 20
0.0
 30
0.0
  0
INSERT
  5
353
330
1F
100
AcDbEntity
  8
0
100
AcDbBlockReference
  2
block 110
 10
0.0
 20
0.0
 30
0.0
  0
INSERT
  5
35B
330
1F
100
AcDbEntity
  8
0
100
AcDbBlockReference
  2
block 111
 10
0.0
 20
0.0
 30
0.0
  0
INSERT
  5
363
330
1F
100
AcDbEntity
  8
0
100
AcDbBlockReference
  2
block 112
 10
0.0
 20
0.0
 30
0.0
  0
INSERT
  5
368
330
1F
100
AcDbEntity
  8
0
100
AcDbBlockReference
  2
block 113
 10
0.0
 20
0.0
 30
0.0
  0
INSERT
  5
370
330
1F
100
AcDbEntity
  8
0
100
AcDbBlockReference
  2
block 114
 10
0.0
 20
0.0
 30
0.0
  0
INSERT
  5
378
330
1F
100
AcDbEntity
  8
0
100
AcDbBlockReference
  2
block 115
 10
0.0
 20
0.0
 30
0.0
  0
INSERT
  5
380
330
1F
100
AcDbEntity
  8
0
100
AcDbBlockReference
  2
block 116
 10
0.0
 20
0.0
 30
0.0
  0
INSERT
  5
388
330
1F
100
AcDbEntity
  8
0
100
AcDbBlockReference
  2
block 117
 10
0.0
 20
0.0
 30
0.0
  0
INSERT
  5
390
330
1F
100
AcDbEntity
  8
0
100
AcDbBlockReference
  2
block 118
 10
0.0
 20
0.0
 30
0.0
  0
INSERT
  5
398
330
1F
100
AcDbEntity
  8
0
100
AcDbBlockReference
  2
block 119
 10
0.0
 20
0.0
 30
0.0
  0
INSERT
  5
39D
330
1F
100
AcDbEntity
  8
0
100
AcDbBlockReference
  2
block 120
 10
0.0
 20
0.0
 30
0.0
  0
INSERT
  5
3A5
330
1F
100
AcDbEntity
  8
0
100
AcDbBlockReference
  2
block 121
 10
0.0
 20
0.0
 30
0.0
  0
INSERT
  5
3AD
330
1F
100
AcDbEntity
  8
0
100
AcDbBlockReference
  2
block 122
 10
0.0
 20
0.0
 30
0.0
  0
INSERT
  5
3B5
330
1F
100
AcDbEntity
  8
0
100
AcDbBlockReference
  2
block 123
 10
0.0
 20
0.0
 30
0.0
  0
INSERT
  5
3BD
330
1F
100
AcDbEntity
  8
0
100
AcDbBlockReference
  2
block 124
 10
0.0
 20
0.0
 30
0.0
  0
INSERT
  5
3C2
330
1F
100
AcDbEntity
  8
0
100
AcDbBlockReference
  2
block 125
 10
0.0
 20
0.0
 30
0.0
  0
ENDSEC
  0
SECTION
  2
OBJECTS
  0
DICTIONARY
  5
C
330
0
100
AcDbDictionary
281
     1
  3
ACAD_GROUP
350
D
  3
ACAD_LAYOUT
350
1A
  3
ACAD_MATERIAL
350
3B
  3
ACAD_MLEADERSTYLE
350
3C7
  3
ACAD_MLINESTYLE
350
17
  3
ACAD_PLOTSETTINGS
350
19
  3
ACAD_PLOTSTYLENAME
350
E
  3
ACAD_TABLESTYLE
350
3C6
  3
ACAD_VISUALSTYLE
350
2A
  0
SUN
  5
3F
330
29
100
AcDbSun
 90
        1
290
     0
 63
     7
421
 16777215
 40
1.0
291
     1
 91
  2455826
 92
 54000000
292
     0
 70
     2
 71
   256
280
     1
  0
DICTIONARY
  5
D
102
{ACAD_REACTORS
330
C
102
}
330
C
100
AcDbDictionary
281
     1
  0
DICTIONARY
  5
1A
102
{ACAD_REACTORS
330
C
102
}
330
C
100
AcDbDictionary
281
     1
  3
Layout1
350
1E
  3
Layout2
350
26
  3
Model
350
22
  0
DICTIONARY
  5
3B
102
{ACAD_REACTORS
330
C
102
}
330
C
100
AcDbDictionary
281
     1
  3
ByBlock
350
3D
  3
ByLayer
350
3C
  3
Global
350
3E
  0
DICTIONARY
  5
3C7
102
{ACAD_REACTORS
330
C
102
}
330
C
100
AcDbDictionary
281
     1
  0
DICTIONARY
  5
17
102
{ACAD_REACTORS
330
C
102
}
330
C
100
AcDbDictionary
281
     1
  3
Standard
350
18
  0
DICTIONARY
  5
19
102
{ACAD_REACTORS
330
C
102
}
330
C
100
AcDbDictionary
281
     1
  0
ACDBDICTIONARYWDFLT
  5
E
102
{ACAD_REACTORS
330
C
102
}
330
C
100
AcDbDictionary
281
     1
  3
Normal
350
F
100
AcDbDictionaryWithDefault
340
F
  0
DICTIONARY
  5
3C6
102
{ACAD_REACTORS
330
C
102
}
330
C
100
AcDbDictionary
281
     1
  0
DICTIONARY
  5
2A
102
{ACAD_REACTORS
330
C
102
}
330
C
100
AcDbDictionary
281
     1
  3
2dWireframe
350
2F
  3
3D Hidden
350
31
  3
3dWireframe
350
30
  3
Basic
350
32
  3
Brighten
350
36
  3
ColorChange
350
3A
  3
Conceptual
350
34
  3
Dim
350
35
  3
Facepattern
350
39
  3
Flat
350
2B
  3
FlatWithEdges
350
2C
  3
Gouraud
350
2D
  3
GouraudWithEdges
350
2E
  3
Linepattern
350
38
  3
Realistic
350
33
  3
Thicken
350
37
  0
LAYOUT
  5
1E
102
{ACAD_REACTORS
330
1A
102
}
330
1A
100
AcDbPlotSettings
  1

  2
none_device
  4

  6

 40
0.0
 41
0.0
 42
0.0
 43
0.0
 44
0.0
 45
0.0
 46
0.0
 47
0.0
 48
0.0
 49
0.0
140
0.0
141
0.0
142
1.0
143
1.0
 70
   688
 72
     0
 73
     0
 74
     5
  7

 75
    16
 76
     0
 77
     2
 78
   300
147
1.0
148
0.0
149
0.0
100
AcDbLayout
  1
Layout1
 70
     1
 71
     1
 10
0.0
 20
0.0
 11
12.0
 21
9.0
 12
0.0
 22
0.0
 32
0.0
 14
1.000000000000000E+20
 24
1.000000000000000E+20
 34
1.000000000000000E+20
 15
-1.000000000000000E+20
 25
-1.000000000000000E+20
 35
-1.000000000000000E+20
146
0.0
 13
0.0
 23
0.0
 33
0.0
 16
1.0
 26
0.0
 36
0.0
 17
0.0
 27
1.0
 37
0.0
 76
     0
330
1B
  0
LAYOUT
  5
26
102
{ACAD_REACTORS
330
1A
102
}
330
1A
100
AcDbPlotSettings
  1

  2
none_device
  4

  6

 40
0.0
 41
0.0
 42
0.0
 43
0.0
 44
0.0
 45
0.0
 46
0.0
 47
0.0
 48
0.0
 49
0.0
140
0.0
141
0.0
142
1.0
143
1.0
 70
   688
 72
     0
 73
     0
 74
     5
  7

 75
    16
 76
     0
 77
     2
 78
   300
147
1.0
148
0.0
149
0.0
100
AcDbLayout
  1
Layout2
 70
     1
 71
     2
 10
0.0
 20
0.0
 11
0.0
 21
0.0
 12
0.0
 22
0.0
 32
0.0
 14
0.0
 24
0.0
 34
0.0
 15
0.0
 25
0.0
 35
0.0
146
0.0
 13
0.0
 23
0.0
 33
0.0
 16
1.0
 26
0.0
 36
0.0
 17
0.0
 27
1.0
 37
0.0
 76
     0
330
23
  0
LAYOUT
  5
22
102
{ACAD_REACTORS
330
1A
102
}
330
1A
100
AcDbPlotSettings
  1

  2
none_device
  4

  6

 40
0.0
 41
0.0
 42
0.0
 43
0.0
 44
0.0
 45
0.0
 46
0.0
 47
0.0
 48
0.0
 49
0.0
140
0.0
141
0.0
142
1.0
143
1.0
 70
  1712
 72
     0
 73
     0
 74
     0
  7

 75
     0
 76
     0
 77
     2
 78
   300
147
1.0
148
0.0
149
0.0
100
AcDbLayout
  1
Model
 70
     1
 71
     0
 10
0.0
 20
0.0
 11
12.0
 21
9.0
 12
0.0
 22
0.0
 32
0.0
 14
1.000000000000000E+20
 24
1.000000000000000E+20
 34
1.000000000000000E+20
 15
-1.000000000000000E+20
 25
-1.000000000000000E+20
 35
-1.000000000000000E+20
146
0.0
 13
0.0
 23
0.0
 33
0.0
 16
1.0
 26
0.0
 36
0.0
 17
0.0
 27
1.0
 37
0.0
 76
     0
330
1F
331
29
  0
MATERIAL
  5
3D
102
{ACAD_REACTORS
330
3B
102
}
330
3B
100
AcDbMaterial
  1
ByBlock
 72
     1
 94
      127
  0
MATERIAL
  5
3C
102
{ACAD_REACTORS
330
3B
102
}
330
3B
100
AcDbMaterial
  1
ByLayer
 72
     1
 94
      127
  0
MATERIAL
  5
3E
102
{ACAD_REACTORS
330
3B
102
}
330
3B
100
AcDbMaterial
  1
Global
 72
     1
 94
      127
  0
MLINESTYLE
  5
18
102
{ACAD_REACTORS
330
17
102
}
330
17
100
AcDbMlineStyle
  2
Standard
 70
     0
  3

 62
   256
 51
90.0
 52
90.0
 71
     2
 49
0.5
 62
   256
  6
BYLAYER
 49
-0.5
 62
   256
  6
BYLAYER
  0
ACDBPLACEHOLDER
  5
F
102
{ACAD_REACTORS
330
E
102
}
330
E
  0
VISUALSTYLE
  5
2F
102
{ACAD_REACTORS
330
2A
102
}
330
2A
100
AcDbVisualStyle
  2
2dWireframe
 70
     4
177
     2
291
     0
 71
     0
176
     1
 72
     2
176
     1
 73
     0
176
     1
 90
        0
176
     1
 40
-0.6
176
     1
 41
-30.0
176
     1
 62
     5
 63
     7
421
 16777215
176
     1
 74
     1
176
     1
 91
        4
176
     1
 64
     7
176
     1
 65
   257
176
     1
 75
     1
176
     1
175
     1
176
     1
 42
1.0
176
     1
 92
        0
176
     1
 66
   257
176
     1
 43
1.0
176
     1
 76
     1
176
     1
 77
     6
176
     1
 78
     2
176
     1
 67
     7
176
     1
 79
     5
176
     1
170
     0
176
     1
171
     0
176
     1
290
     0
176
     1
 93
        1
176
     1
 44
0.0
176
     1
173
     0
176
     1
  0
VISUALSTYLE
  5
31
102
{ACAD_REACTORS
330
2A
102
}
330
2A
100
AcDbVisualStyle
  2
3D Hidden
 70
     6
177
     2
291
     0
 71
     1
176
     1
 72
     2
176
     1
 73
     2
176
     1
 90
        0
176
     1
 40
-0.6
176
     1
 41
-30.0
176
     1
 62
     5
 63
     7
421
 16777215
176
     1
 74
     2
176
     1
 91
        2
176
     1
 64
     7
176
     1
 65
   257
176
     1
 75
     2
176
     1
175
     1
176
     1
 42
40.0
176
     1
 92
        0
176
     1
 66
   257
176
     1
 43
1.0
176
     1
 76
     1
176
     1
 77
     6
176
     1
 78
     2
176
     1
 67
     7
176
     1
 79
     3
176
     1
170
     0
176
     1
171
     0
176
     1
290
     0
176
     1
 93
        1
176
     1
 44
0.0
176
     1
173
     0
176
     1
  0
VISUALSTYLE
  5
30
102
{ACAD_REACTORS
330
2A
102
}
330
2A
100
AcDbVisualStyle
  2
3dWireframe
 70
     5
177
     2
291
     0
 71
     0
176
     1
 72
     2
176
     1
 73
     0
176
     1
 90
        0
176
     1
 40
-0.6
176
     1
 41
-30.0
176
     1
 62
     5
 63
     7
421
 16777215
176
     1
 74
     1
176
     1
 91
        4
176
     1
 64
     7
176
     1
 65
   257
176
     1
 75
     1
176
     1
175
     1
176
     1
 42
1.0
176
     1
 92
        0
176
     1
 66
   257
176
     1
 43
1.0
176
     1
 76
     1
176
     1
 77
     6
176
     1
 78
     2
176
     1
 67
     7
176
     1
 79
     5
176
     1
170
     0
176
     1
171
     0
176
     1
290
     0
176
     1
 93
        1
176
     1
 44
0.0
176
     1
173
     0
176
     1
  0
VISUALSTYLE
  5
32
102
{ACAD_REACTORS
330
2A
102
}
330
2A
100
AcDbVisualStyle
  2
Basic
 70
     7
177
     2
291
     1
 71
     1
176
     1
 72
     0
176
     1
 73
     1
176
     1
 90
        0
176
     1
 40
-0.6
176
     1
 41
-30.0
176
     1
 62
     5
 63
     7
421
 16777215
176
     1
 74
     0
176
     1
 91
        4
176
     1
 64
     7
176
     1
 65
   257
176
     1
 75
     1
176
     1
175
     1
176
     1
 42
1.0
176
     1
 92
        8
176
     1
 66
     7
176
     1
 43
1.0
176
     1
 76
     1
176
     1
 77
     6
176
     1
 78
     2
176
     1
 67
     7
176
     1
 79
     5
176
     1
170
     0
176
     1
171
     0
176
     1
290
     0
176
     1
 93
        1
176
     1
 44
0.0
176
     1
173
     0
176
     1
  0
VISUALSTYLE
  5
36
102
{ACAD_REACTORS
330
2A
102
}
330
2A
100
AcDbVisualStyle
  2
Brighten
 70
    12
177
     2
291
     1
 71
     2
176
     1
 72
     2
176
     1
 73
     0
176
     1
 90
        0
176
     1
 40
-0.6
176
     1
 41
-30.0
176
     1
 62
     5
 63
     7
421
 16777215
176
     1
 74
     1
176
     1
 91
        4
176
     1
 64
     7
176
     1
 65
   257
176
     1
 75
     1
176
     1
175
     1
176
     1
 42
1.0
176
     1
 92
        8
176
     1
 66
     7
176
     1
 43
1.0
176
     1
 76
     1
176
     1
 77
     6
176
     1
 78
     2
176
     1
 67
     7
176
     1
 79
     5
176
     1
170
     0
176
     1
171
     0
176
     1
290
     0
176
     1
 93
        1
176
     1
 44
50.0
176
     1
173
     0
176
     1
  0
VISUALSTYLE
  5
3A
102
{ACAD_REACTORS
330
2A
102
}
330
2A
100
AcDbVisualStyle
  2
ColorChange
 70
    16
177
     2
291
     1
 71
     2
176
     1
 72
     2
176
     1
 73
     3
176
     1
 90
        0
176
     1
 40
-0.6
176
     1
 41
-30.0
176
     1
 62
     5
 63
     8
421
  8421504
176
     1
 74
     1
176
     1
 91
        4
176
     1
 64
     7
176
     1
 65
   257
176
     1
 75
     1
176
     1
175
     1
176
     1
 42
1.0
176
     1
 92
        8
176
     1
 66
     8
424
  8421504
176
     1
 43
1.0
176
     1
 76
     1
176
     1
 77
     6
176
     1
 78
     2
176
     1
 67
     7
176
     1
 79
     5
176
     1
170
     0
176
     1
171
     0
176
     1
290
     0
176
     1
 93
        1
176
     1
 44
0.0
176
     1
173
     0
176
     1
  0
VISUALSTYLE
  5
34
102
{ACAD_REACTORS
330
2A
102
}
330
2A
100
AcDbVisualStyle
  2
Conceptual
 70
     9
177
     2
291
     0
 71
     3
176
     1
 72
     2
176
     1
 73
     0
176
     1
 90
        0
176
     1
 40
-0.6
176
     1
 41
-30.0
176
     1
 62
     5
 63
     7
421
 16777215
176
     1
 74
     2
176
     1
 91
        2
176
     1
 64
     7
176
     1
 65
   257
176
     1
 75
     1
176
     1
175
     1
176
     1
 42
40.0
176
     1
 92
        8
176
     1
 66
     7
176
     1
 43
1.0
176
     1
 76
     1
176
     1
 77
     6
176
     1
 78
     2
176
     1
 67
     7
176
     1
 79
     3
176
     1
170
     0
176
     1
171
     0
176
     1
290
     0
176
     1
 93
        1
176
     1
 44
0.0
176
     1
173
     0
176
     1
  0
VISUALSTYLE
  5
35
102
{ACAD_REACTORS
330
2A
102
}
330
2A
100
AcDbVisualStyle
  2
Dim
 70
    11
177
     2
291
     1
 71
     2
176
     1
 72
     2
176
     1
 73
     0
176
     1
 90
        0
176
     1
 40
-0.6
176
     1
 41
-30.0
176
     1
 62
     5
 63
     7
421
 16777215
176
     1
 74
     1
176
     1
 91
        4
176
     1
 64
     7
176
     1
 65
   257
176
     1
 75
     1
176
     1
175
     1
176
     1
 42
1.0
176
     1
 92
        8
176
     1
 66
     7
176
     1
 43
1.0
176
     1
 76
     1
176
     1
 77
     6
176
     1
 78
     2
176
     1
 67
     7
176
     1
 79
     5
176
     1
170
     0
176
     1
171
     0
176
     1
290
     0
176
     1
 93
        1
176
     1
 44
-50.0
176
     1
173
     0
176
     1
  0
VISUALSTYLE
  5
39
102
{ACAD_REACTORS
330
2A
102
}
330
2A
100
AcDbVisualStyle
  2
Facepattern
 70
    15
177
     2
291
     1
 71
     2
176
     1
 72
     2
176
     1
 73
     0
176
     1
 90
        0
176
     1
 40
-0.6
176
     1
 41
-30.0
176
     1
 62
     5
 63
     7
421
 16777215
176
     1
 74
     1
176
     1
 91
        4
176
     1
 64
     7
176
     1
 65
   257
176
     1
 75
     1
176
     1
175
     1
176
     1
 42
1.0
176
     1
 92
        8
176
     1
 66
     7
176
     1
 43
1.0
176
     1
 76
     1
176
     1
 77
     6
176
     1
 78
     2
176
     1
 67
     7
176
     1
 79
     5
176
     1
170
     0
176
     1
171
     0
176
     1
290
     0
176
     1
 93
        1
176
     1
 44
0.0
176
     1
173
     0
176
     1
  0
VISUALSTYLE
  5
2B
102
{ACAD_REACTORS
330
2A
102
}
330
2A
100
AcDbVisualStyle
  2
Flat
 70
     0
177
     2
291
     1
 71
     2
176
     1
 72
     1
176
     1
 73
     1
176
     1
 90
        2
176
     1
 40
-0.6
176
     1
 41
30.0
176
     1
 62
     5
 63
     7
421
 16777215
176
     1
 74
     0
176
     1
 91
        4
176
     1
 64
     7
176
     1
 65
   257
176
     1
 75
     1
176
     1
175
     1
176
     1
 42
1.0
176
     1
 92
        8
176
     1
 66
     7
176
     1
 43
1.0
176
     1
 76
     1
176
     1
 77
     6
176
     1
 78
     2
176
     1
 67
     7
176
     1
 79
     5
176
     1
170
     0
176
     1
171
     0
176
     1
290
     0
176
     1
 93
       13
176
     1
 44
0.0
176
     1
173
     0
176
     1
  0
VISUALSTYLE
  5
2C
102
{ACAD_REACTORS
330
2A
102
}
330
2A
100
AcDbVisualStyle
  2
FlatWithEdges
 70
     1
177
     2
291
     1
 71
     2
176
     1
 72
     1
176
     1
 73
     1
176
     1
 90
        2
176
     1
 40
-0.6
176
     1
 41
30.0
176
     1
 62
     5
 63
     7
421
 16777215
176
     1
 74
     1
176
     1
 91
        4
176
     1
 64
     7
176
     1
 65
   257
176
     1
 75
     1
176
     1
175
     1
176
     1
 42
1.0
176
     1
 92
        0
176
     1
 66
   257
176
     1
 43
1.0
176
     1
 76
     1
176
     1
 77
     6
176
     1
 78
     2
176
     1
 67
     7
176
     1
 79
     5
176
     1
170
     0
176
     1
171
     0
176
     1
290
     0
176
     1
 93
       13
176
     1
 44
0.0
176
     1
173
     0
176
     1
  0
VISUALSTYLE
  5
2D
102
{ACAD_REACTORS
330
2A
102
}
330
2A
100
AcDbVisualStyle
  2
Gouraud
 70
     2
177
     2
291
     1
 71
     2
176
     1
 72
     2
176
     1
 73
     1
176
     1
 90
        2
176
     1
 40
-0.6
176
     1
 41
30.0
176
     1
 62
     5
 63
     7
421
 16777215
176
     1
 74
     0
176
     1
 91
        4
176
     1
 64
     7
176
     1
 65
   257
176
     1
 75
     1
176
     1
175
     1
176
     1
 42
1.0
176
     1
 92
        0
176
     1
 66
     7
176
     1
 43
1.0
176
     1
 76
     1
176
     1
 77
     6
176
     1
 78
     2
176
     1
 67
     7
176
     1
 79
     5
176
     1
170
     0
176
     1
171
     0
176
     1
290
     0
176
     1
 93
       13
176
     1
 44
0.0
176
     1
173
     0
176
     1
  0
VISUALSTYLE
  5
2E
102
{ACAD_REACTORS
330
2A
102
}
330
2A
100
AcDbVisualStyle
  2
GouraudWithEdges
 70
     3
177
     2
291
     1
 71
     2
176
     1
 72
     2
176
     1
 73
     1
176
     1
 90
        2
176
     1
 40
-0.6
176
     1
 41
30.0
176
     1
 62
     5
 63
     7
421
 16777215
176
     1
 74
     1
176
     1
 91
        4
176
     1
 64
     7
176
     1
 65
   257
176
     1
 75
     1
176
     1
175
     1
176
     1
 42
1.0
176
     1
 92
        0
176
     1
 66
   257
176
     1
 43
1.0
176
     1
 76
     1
176
     1
 77
     6
176
     1
 78
     2
176
     1
 67
     7
176
     1
 79
     5
176
     1
170
     0
176
     1
171
     0
176
     1
290
     0
176
     1
 93
       13
176
     1
 44
0.0
176
     1
173
     0
176
     1
  0
VISUALSTYLE
  5
38
102
{ACAD_REACTORS
330
2A
102
}
330
2A
100
AcDbVisualStyle
  2
Linepattern
 70
    14
177
     2
291
     1
 71
     2
176
     1
 72
     2
176
     1
 73
     0
176
     1
 90
        0
176
     1
 40
-0.6
176
     1
 41
-30.0
176
     1
 62
     5
 63
     7
421
 16777215
176
     1
 74
     1
176
     1
 91
        4
176
     1
 64
     7
176
     1
 65
   257
176
     1
 75
     7
176
     1
175
     7
176
     1
 42
1.0
176
     1
 92
        8
176
     1
 66
     7
176
     1
 43
1.0
176
     1
 76
     1
176
     1
 77
     6
176
     1
 78
     2
176
     1
 67
     7
176
     1
 79
     5
176
     1
170
     0
176
     1
171
     0
176
     1
290
     0
176
     1
 93
        1
176
     1
 44
0.0
176
     1
173
     0
176
     1
  0
VISUALSTYLE
  5
33
102
{ACAD_REACTORS
330
2A
102
}
330
2A
100
AcDbVisualStyle
  2
Realistic
 70
     8
177
     2
291
     0
 71
     2
176
     1
 72
     2
176
     1
 73
     0
176
     1
 90
        0
176
     1
 40
-0.6
176
     1
 41
-30.0
176
     1
 62
     5
 63
     7
421
 16777215
176
     1
 74
     1
176
     1
 91
        0
176
     1
 64
     7
176
     1
 65
   257
176
     1
 75
     1
176
     1
175
     1
176
     1
 42
1.0
176
     1
 92
        8
176
     1
 66
     8
424
  7895160
176
     1
 43
1.0
176
     1
 76
     1
176
     1
 77
     6
176
     1
 78
     2
176
     1
 67
     7
176
     1
 79
     5
176
     1
170
     0
176
     1
171
     0
176
     1
290
     0
176
     1
 93
       13
176
     1
 44
0.0
176
     1
173
     0
176
     1
  0
VISUALSTYLE
  5
37
102
{ACAD_REACTORS
330
2A
102
}
330
2A
100
AcDbVisualStyle
  2
Thicken
 70
    13
177
     2
291
     1
 71
     2
176
     1
 72
     2
176
     1
 73
     0
176
     1
 90
        0
176
     1
 40
-0.6
176
     1
 41
-30.0
176
     1
 62
     5
 63
     7
421
 16777215
176
     1
 74
     1
176
     1
 91
        4
176
     1
 64
     7
176
     1
 65
   257
176
     1
 75
     1
176
     1
175
     1
176
     1
 42
1.0
176
     1
 92
       12
176
     1
 66
     7
176
     1
 43
1.0
176
     1
 76
     1
176
     1
 77
     6
176
     1
 78
     2
176
     1
 67
     7
176
     1
 79
     5
176
     1
170
     0
176
     1
171
     0
176
     1
290
     0
176
     1
 93
        1
176
     1
 44
0.0
176
     1
173
     0
176
     1
  0
ENDSEC
  0
EOF
